<svg viewBox="0 0 330 200" xmlns="http://www.w3.org/2000/svg"><g><g><g><g><g><line x1="70" y1="178" x2="65" y2="178" style="visibility: inherit;" fill="rgb(0, 0, 0)" stroke="rgb(204, 204, 204)" stroke-width="1px"></line><line x1="70" y1="166.13333333333333" x2="65" y2="166.13333333333333" style="visibility: inherit;" fill="rgb(0, 0, 0)" stroke="rgb(204, 204, 204)" stroke-width="1px"></line><line x1="70" y1="154.26666666666665" x2="65" y2="154.26666666666665" style="visibility: inherit;" fill="rgb(0, 0, 0)" stroke="rgb(204, 204, 204)" stroke-width="1px"></line><line x1="70" y1="142.4" x2="65" y2="142.4" style="visibility: inherit;" fill="rgb(0, 0, 0)" stroke="rgb(204, 204, 204)" stroke-width="1px"></line><line x1="70" y1="130.53333333333333" x2="65" y2="130.53333333333333" style="visibility: inherit;" fill="rgb(0, 0, 0)" stroke="rgb(204, 204, 204)" stroke-width="1px"></line><line x1="70" y1="118.66666666666667" x2="65" y2="118.66666666666667" style="visibility: inherit;" fill="rgb(0, 0, 0)" stroke="rgb(204, 204, 204)" stroke-width="1px"></line><line x1="70" y1="106.8" x2="65" y2="106.8" style="visibility: inherit;" fill="rgb(0, 0, 0)" stroke="rgb(204, 204, 204)" stroke-width="1px"></line><line x1="70" y1="94.93333333333334" x2="65" y2="94.93333333333334" style="visibility: inherit;" fill="rgb(0, 0, 0)" stroke="rgb(204, 204, 204)" stroke-width="1px"></line><line x1="70" y1="83.06666666666666" x2="65" y2="83.06666666666666" style="visibility: inherit;" fill="rgb(0, 0, 0)" stroke="rgb(204, 204, 204)" stroke-width="1px"></line><line x1="70" y1="71.2" x2="65" y2="71.2" style="visibility: inherit;" fill="rgb(0, 0, 0)" stroke="rgb(204, 204, 204)" stroke-width="1px"></line><line x1="70" y1="59.33333333333334" x2="65" y2="59.33333333333334" style="visibility: inherit;" fill="rgb(0, 0, 0)" stroke="rgb(204, 204, 204)" stroke-width="1px"></line><line x1="70" y1="47.46666666666667" x2="65" y2="47.46666666666667" style="visibility: inherit;" fill="rgb(0, 0, 0)" stroke="rgb(204, 204, 204)" stroke-width="1px"></line><line x1="70" y1="35.599999999999994" x2="65" y2="35.599999999999994" style="visibility: inherit;" fill="rgb(0, 0, 0)" stroke="rgb(204, 204, 204)" stroke-width="1px"></line><line x1="70" y1="23.73333333333332" x2="65" y2="23.73333333333332" style="visibility: inherit;" fill="rgb(0, 0, 0)" stroke="rgb(204, 204, 204)" stroke-width="1px"></line><line x1="70" y1="11.866666666666674" x2="65" y2="11.866666666666674" style="visibility: inherit;" fill="rgb(0, 0, 0)" stroke="rgb(204, 204, 204)" stroke-width="1px"></line><line x1="70" y1="0" x2="65" y2="0" style="visibility: inherit;" fill="rgb(0, 0, 0)" stroke="rgb(204, 204, 204)" stroke-width="1px"></line></g><g transform="translate(60, 0)"><text x="0" y="178" dx="0em" dy="0.3em" style="text-anchor: end; visibility: hidden; font-family: &quot;Helvetica Neue&quot;, sans-serif; font-size: 12px; font-weight: 200;" fill="rgb(50, 49, 63)" stroke="none" stroke-width="1px">-400</text><text x="0" y="166.13333333333333" dx="0em" dy="0.3em" style="text-anchor: end; visibility: inherit; font-family: &quot;Helvetica Neue&quot;, sans-serif; font-size: 12px; font-weight: 200;" fill="rgb(50, 49, 63)" stroke="none" stroke-width="1px">-200</text><text x="0" y="154.26666666666665" dx="0em" dy="0.3em" style="text-anchor: end; visibility: hidden; font-family: &quot;Helvetica Neue&quot;, sans-serif; font-size: 12px; font-weight: 200;" fill="rgb(50, 49, 63)" stroke="none" stroke-width="1px">0</text><text x="0" y="142.4" dx="0em" dy="0.3em" style="text-anchor: end; visibility: inherit; font-family: &quot;Helvetica Neue&quot;, sans-serif; font-size: 12px; font-weight: 200;" fill="rgb(50, 49, 63)" stroke="none" stroke-width="1px">200</text><text x="0" y="130.53333333333333" dx="0em" dy="0.3em" style="text-anchor: end; visibility: hidden; font-family: &quot;Helvetica Neue&quot;, sans-serif; font-size: 12px; font-weight: 200;" fill="rgb(50, 49, 63)" stroke="none" stroke-width="1px">400</text><text x="0" y="118.66666666666667" dx="0em" dy="0.3em" style="text-anchor: end; visibility: inherit; font-family: &quot;Helvetica Neue&quot;, sans-serif; font-size: 12px; font-weight: 200;" fill="rgb(50, 49, 63)" stroke="none" stroke-width="1px">600</text><text x="0" y="106.8" dx="0em" dy="0.3em" style="text-anchor: end; visibility: hidden; font-family: &quot;Helvetica Neue&quot;, sans-serif; font-size: 12px; font-weight: 200;" fill="rgb(50, 49, 63)" stroke="none" stroke-width="1px">800</text><text x="0" y="94.93333333333334" dx="0em" dy="0.3em" style="text-anchor: end; visibility: inherit; font-family: &quot;Helvetica Neue&quot;, sans-serif; font-size: 12px; font-weight: 200;" fill="rgb(50, 49, 63)" stroke="none" stroke-width="1px">1e+3</text><text x="0" y="83.06666666666666" dx="0em" dy="0.3em" style="text-anchor: end; visibility: hidden; font-family: &quot;Helvetica Neue&quot;, sans-serif; font-size: 12px; font-weight: 200;" fill="rgb(50, 49, 63)" stroke="none" stroke-width="1px">1.2e+3</text><text x="0" y="71.2" dx="0em" dy="0.3em" style="text-anchor: end; visibility: inherit; font-family: &quot;Helvetica Neue&quot;, sans-serif; font-size: 12px; font-weight: 200;" fill="rgb(50, 49, 63)" stroke="none" stroke-width="1px">1.4e+3</text><text x="0" y="59.33333333333334" dx="0em" dy="0.3em" style="text-anchor: end; visibility: hidden; font-family: &quot;Helvetica Neue&quot;, sans-serif; font-size: 12px; font-weight: 200;" fill="rgb(50, 49, 63)" stroke="none" stroke-width="1px">1.6e+3</text><text x="0" y="47.46666666666667" dx="0em" dy="0.3em" style="text-anchor: end; visibility: inherit; font-family: &quot;Helvetica Neue&quot;, sans-serif; font-size: 12px; font-weight: 200;" fill="rgb(50, 49, 63)" stroke="none" stroke-width="1px">1.8e+3</text><text x="0" y="35.599999999999994" dx="0em" dy="0.3em" style="text-anchor: end; visibility: hidden; font-family: &quot;Helvetica Neue&quot;, sans-serif; font-size: 12px; font-weight: 200;" fill="rgb(50, 49, 63)" stroke="none" stroke-width="1px">2e+3</text><text x="0" y="23.73333333333332" dx="0em" dy="0.3em" style="text-anchor: end; visibility: inherit; font-family: &quot;Helvetica Neue&quot;, sans-serif; font-size: 12px; font-weight: 200;" fill="rgb(50, 49, 63)" stroke="none" stroke-width="1px">2.2e+3</text><text x="0" y="11.866666666666674" dx="0em" dy="0.3em" style="text-anchor: end; visibility: hidden; font-family: &quot;Helvetica Neue&quot;, sans-serif; font-size: 12px; font-weight: 200;" fill="rgb(50, 49, 63)" stroke="none" stroke-width="1px">2.4e+3</text><text x="0" y="0" dx="0em" dy="0.3em" style="text-anchor: end; visibility: hidden; font-family: &quot;Helvetica Neue&quot;, sans-serif; font-size: 12px; font-weight: 200;" fill="rgb(50, 49, 63)" stroke="none" stroke-width="1px">2.6e+3</text></g><line x1="70" y1="0" x2="70" y2="178" fill="rgb(0, 0, 0)" stroke="rgb(204, 204, 204)" stroke-width="1px"></line></g></g><g transform="translate(70, 0)" clip-path="url(#clip_0)"><clipPath id="clip_0"><rect width="260" height="178"></rect></clipPath><g><g><g><line x1="0" y1="0" x2="0" y2="178" fill="rgb(0, 0, 0)" stroke="rgb(60, 60, 60)" stroke-width="1px" opacity="0.25"></line><line x1="20" y1="0" x2="20" y2="178" fill="rgb(0, 0, 0)" stroke="rgb(60, 60, 60)" stroke-width="1px" opacity="0.25"></line><line x1="40" y1="0" x2="40" y2="178" fill="rgb(0, 0, 0)" stroke="rgb(60, 60, 60)" stroke-width="1px" opacity="0.25"></line><line x1="60" y1="0" x2="60" y2="178" fill="rgb(0, 0, 0)" stroke="rgb(60, 60, 60)" stroke-width="1px" opacity="0.25"></line><line x1="80" y1="0" x2="80" y2="178" fill="rgb(0, 0, 0)" stroke="rgb(60, 60, 60)" stroke-width="1px" opacity="0.25"></line><line x1="100" y1="0" x2="100" y2="178" fill="rgb(0, 0, 0)" stroke="rgb(60, 60, 60)" stroke-width="1px" opacity="0.25"></line><line x1="120" y1="0" x2="120" y2="178" fill="rgb(0, 0, 0)" stroke="rgb(60, 60, 60)" stroke-width="1px" opacity="0.25"></line><line x1="140" y1="0" x2="140" y2="178" fill="rgb(0, 0, 0)" stroke="rgb(60, 60, 60)" stroke-width="1px" opacity="0.25"></line><line x1="160" y1="0" x2="160" y2="178" fill="rgb(0, 0, 0)" stroke="rgb(60, 60, 60)" stroke-width="1px" opacity="0.25"></line><line x1="180" y1="0" x2="180" y2="178" fill="rgb(0, 0, 0)" stroke="rgb(60, 60, 60)" stroke-width="1px" opacity="0.25"></line><line x1="200" y1="0" x2="200" y2="178" fill="rgb(0, 0, 0)" stroke="rgb(60, 60, 60)" stroke-width="1px" opacity="0.25"></line><line x1="220" y1="0" x2="220" y2="178" fill="rgb(0, 0, 0)" stroke="rgb(60, 60, 60)" stroke-width="1px" opacity="0.25"></line><line x1="240" y1="0" x2="240" y2="178" fill="rgb(0, 0, 0)" stroke="rgb(60, 60, 60)" stroke-width="1px" opacity="0.25"></line><line x1="260" y1="0" x2="260" y2="178" fill="rgb(0, 0, 0)" stroke="rgb(60, 60, 60)" stroke-width="1px" opacity="0.25"></line></g><g><line x1="0" y1="178" x2="260" y2="178" fill="rgb(0, 0, 0)" stroke="rgb(60, 60, 60)" stroke-width="1px" opacity="0.25"></line><line x1="0" y1="166.13333333333333" x2="260" y2="166.13333333333333" fill="rgb(0, 0, 0)" stroke="rgb(60, 60, 60)" stroke-width="1px" opacity="0.25"></line><line x1="0" y1="154.26666666666665" x2="260" y2="154.26666666666665" fill="rgb(0, 0, 0)" stroke="rgb(60, 60, 60)" stroke-width="1px" opacity="0.25"></line><line x1="0" y1="142.4" x2="260" y2="142.4" fill="rgb(0, 0, 0)" stroke="rgb(60, 60, 60)" stroke-width="1px" opacity="0.25"></line><line x1="0" y1="130.53333333333333" x2="260" y2="130.53333333333333" fill="rgb(0, 0, 0)" stroke="rgb(60, 60, 60)" stroke-width="1px" opacity="0.25"></line><line x1="0" y1="118.66666666666667" x2="260" y2="118.66666666666667" fill="rgb(0, 0, 0)" stroke="rgb(60, 60, 60)" stroke-width="1px" opacity="0.25"></line><line x1="0" y1="106.8" x2="260" y2="106.8" fill="rgb(0, 0, 0)" stroke="rgb(60, 60, 60)" stroke-width="1px" opacity="0.25"></line><line x1="0" y1="94.93333333333334" x2="260" y2="94.93333333333334" fill="rgb(0, 0, 0)" stroke="rgb(60, 60, 60)" stroke-width="1px" opacity="0.25"></line><line x1="0" y1="83.06666666666666" x2="260" y2="83.06666666666666" fill="rgb(0, 0, 0)" stroke="rgb(60, 60, 60)" stroke-width="1px" opacity="0.25"></line><line x1="0" y1="71.2" x2="260" y2="71.2" fill="rgb(0, 0, 0)" stroke="rgb(60, 60, 60)" stroke-width="1px" opacity="0.25"></line><line x1="0" y1="59.33333333333334" x2="260" y2="59.33333333333334" fill="rgb(0, 0, 0)" stroke="rgb(60, 60, 60)" stroke-width="1px" opacity="0.25"></line><line x1="0" y1="47.46666666666667" x2="260" y2="47.46666666666667" fill="rgb(0, 0, 0)" stroke="rgb(60, 60, 60)" stroke-width="1px" opacity="0.25"></line><line x1="0" y1="35.599999999999994" x2="260" y2="35.599999999999994" fill="rgb(0, 0, 0)" stroke="rgb(60, 60, 60)" stroke-width="1px" opacity="0.25"></line><line x1="0" y1="23.73333333333332" x2="260" y2="23.73333333333332" fill="rgb(0, 0, 0)" stroke="rgb(60, 60, 60)" stroke-width="1px" opacity="0.25"></line><line x1="0" y1="11.866666666666674" x2="260" y2="11.866666666666674" fill="rgb(0, 0, 0)" stroke="rgb(60, 60, 60)" stroke-width="1px" opacity="0.25"></line><line x1="0" y1="0" x2="260" y2="0" fill="rgb(0, 0, 0)" stroke="rgb(60, 60, 60)" stroke-width="1px" opacity="0.25"></line></g></g></g><g><g><line x1="0" y1="154.26666666666665" x2="260" y2="154.26666666666665" fill="rgb(0, 0, 0)" stroke="rgb(153, 153, 153)" stroke-width="1.5px"></line></g></g><g><g><line x1="20" y1="0" x2="20" y2="178" fill="rgb(0, 0, 0)" stroke="rgb(153, 153, 153)" stroke-width="1.5px"></line></g></g><g><g><g><g><g><path stroke="rgb(255, 112, 67)" stroke-width="2px" d="M23.680000000000003,-63.79600906729209L24.6,9.364152879523175L24.7,48.09260923680037L25.12,50.54495245120333L25.220000000000002,47.18789429704307L25.36,38.35157656189867L25.48,27.276096372267745L26.18,-12.022719049692512L26.38,-59.966302377764436L26.8,11.333616426297027L26.96,46.95202471282178L27.36,50.757532338806044L28.44,7.1028580522039135L28.459999999999997,-19.901570491111045L28.86,40.71679470695625L28.919999999999998,74.6301811625582L29.220000000000002,82.77506972266086L29.28,85.18049526250879L29.3,85.81236970225734L29.5,78.09154920167212L29.88,58.10617993385007L30.3,29.42294476870987L30.740000000000002,-5.076590372470491L31.28,40.14601277942117L31.48,59.54053181111618L31.6,66.5616254929487L31.740000000000002,65.46620520869331L31.76,64.04083842278978L32.42,38.247557590278035L32.7,12.261581416661585L32.84,-8.623314046658322L32.96,-39.24117753390445L33,36.64660052290236L33.24,73.35190786502127L33.44,88.07169563066941L34.3,65.50903267769844L34.46,46.20526049194211L34.62,28.84384939407309L35.059999999999995,2.5715947926479714L35.14,62.52314764306695L35.32,92.10137152042907L35.4,107.01576640998442L35.44,114.49417809957308L35.620000000000005,112.66329632914464L35.72,108.11251897587182L35.76,104.01122948448122L35.86,97.99025588730314L35.9,92.94017976936097L35.98,87.08927736031443L36.06,80.78788770525112L36.18,72.74343532497356L36.2,67.21372473665078L36.66,47.86419395657376L36.739999999999995,33.48100719425676L37.4,77.62734405450979L37.54,99.32192398641683L37.66,108.22851824276157L38.16,96.36169274904235L38.2,87.91732554525873L38.36,77.432276870124L38.64,61.49513968978273L38.86,44.49067854043213L38.919999999999995,32.20657808780092L39.1,18.837552581847234L39.26,5.472799778275004L39.44,-8.589569091368304L39.46,55.867606199394515L39.58,90.48381575414192L39.6,110.59756411882628L39.699999999999996,119.31284678021504L40.06,112.52148791838945L40.120000000000005,106.42017852577325L40.3,96.79841219358894L41.28,58.48811704271586L41.34,33.589123676150365L41.379999999999995,17.284365677044406L41.46,4.930088807268305L41.58,-6.506187015118201L41.68,55.24010320027155L41.88,85.85289594522804L42,100.26143252156389L42.1,105.68566127075084L42.3,102.29708294409113L43.14,72.93335269614218L43.22,52.75176969060196L43.239999999999995,39.995582452381996L43.26,31.69533957559588L43.620000000000005,14.92344131046167L43.88,66.7620316970843L44.13999999999999,89.49695513478703L44.900000000000006,78.78295634910138L45.12,65.24887472091915L45.18,55.23021682473899L45.239999999999995,47.3124230635934L45.64,29.904347588156014L45.76,15.575898071122793L45.9,2.4898966551736805L46.339999999999996,49.82394232253128L46.4,76.3720485315396L46.62,85.4017579926217L46.68,88.92166880924488L46.74,89.11637364882819L46.76,88.59302233382817L47.72,57.990251681546894L47.839999999999996,35.89283167299067L47.86,21.980791712127683L48.3,67.99397971477663L48.54,88.13830963876181L48.74,93.99900993690291L48.82,95.05304318544904L49.34,79.41924863262359L49.559999999999995,63.12225230457415L49.72,48.38534649993201L49.839999999999996,35.823217405167526L50.48,75.81861856972813L50.56,97.33099925869885L51.06,94.75486778438598L51.379999999999995,83.41360322271493L51.4,75.97893481774354L51.699999999999996,62.35892127476069L51.78,51.62655234167934L52.1,35.321657707090935L52.120000000000005,24.903077827379548L52.56,71.80666239873894L52.76,93.94267298449076L52.82,105.4263409977257L52.919999999999995,109.22897043522397L52.98,109.71567565306147L53.379999999999995,97.70976164183688L53.660000000000004,81.96024028588337L53.839999999999996,67.00773453611338L53.92,55.5837653961472L53.96,47.49994393820913L54,41.42743654521715L54.06,35.95258328129697L54.199999999999996,28.42280589325736L54.38,18.38469707762107L54.66,69.694992607738L54.7,99.255930798204L54.76,115.1679201976724L54.86,121.75657073839511L54.919999999999995,123.85671051758133L54.94,124.50462460156442L55.34,112.80762355651157L55.52,100.32425509093821L55.64,89.21032610143793L55.800000000000004,77.73302811528986L55.980000000000004,65.47599763089265L56.120000000000005,53.912939789473086L56.54,34.214086920558856L56.62,20.030185420564464L56.82,70.71030779367983L56.900000000000006,98.68523109140972L57.08,110.06340428798384L57.34,109.1304345649778L57.4,106.76949060552315L57.52,101.83460386852221L57.559999999999995,97.70336818048833L58.36,71.20761752287633L58.7,45.18666048768415L58.900000000000006,88.20590433297505L58.96,112.22590718515288L59,125.46184556434693L59.36,122.65068469863421L59.64,112.63607102425864L59.68000000000001,105.45249702536248L60.04,90.47249984282165L60.120000000000005,79.09391286142214L60.28,67.46489488482204L60.62,50.505760368393226L60.74,36.767365140306765L61.220000000000006,78.40269259492624L61.480000000000004,95.74021228547137L61.54,104.39081472479845L61.559999999999995,108.96821621118116L61.64,109.28723570001598L61.72,107.08760531974917L61.800000000000004,103.42746895356825L61.94,97.10415988776595L62.24,84.4222612972429L62.92,56.88156634865824L63,38.00847066856997L63.14,22.55982250530866L63.32,71.706984832124L63.76,88.28510613364939L63.800000000000004,97.09253845232506L63.84,101.18573921722837L64,98.94142105312349L64.16,92.9194344678116L64.24,86.97477858433278L64.64,71.79389355033926L64.74,59.66761936588064L64.76,51.81438044114297L64.8,45.955826213904515L64.86,40.6826018155823L64.96000000000001,34.546464084141064L65.1,26.696904492151276L65.16,20.242322578103284L65.26,13.460235278632808L65.64,61.641002658065105L65.83999999999999,84.72764194314634L65.96000000000001,95.03088812812739L66.08000000000001,97.74310768156393L66.16,97.01071971961544L66.39999999999999,89.53736662994635L66.42,84.47550663161364L66.92,66.9689548904265L67.10000000000001,51.2008418795684L67.8,84.2562815518947L67.82,103.5050968119962L67.86,113.85916550907272L68.74,94.3740851127353L68.9,78.20815337883909L69.04,64.50155185803261L69.08,55.1145706981529L69.12,48.2837327834751L69.22,41.289983550293385L69.72,85.37766845455755L69.74,111.24487823948257L69.94,120.99092043327288L69.97999999999999,125.68380261803665L70.08000000000001,125.61649831886885L70.36,117.48391966189422L70.48,109.11836385768342L70.66,98.91420819091213L70.96000000000001,84.05834063720353L71.03999999999999,72.89838130289503L71.08,65.06138340413284L71.58,45.97837229508386L72.02000000000001,84.1358673508459L72.14,103.54188270705703L72.48,105.52072132345295L72.6,103.28238639107698L72.62,101.36595107292743L72.9,92.17687516849604L73.12,80.35983369484762L73.58,60.07158674034608L73.72,43.89779305983265L73.82000000000001,31.29417381767044L74.08000000000001,78.24938466983403L74.22000000000001,102.43144785105407L74.52,108.41928848602306L74.75999999999999,105.12739960528572L74.82000000000001,101.41617960692143L75.10000000000001,91.25780353238203L75.8,65.13988120797087L75.82,48.91298211019918L75.84,38.60667481299453L76.2,83.70758711741098L76.5,102.28401512038148L77.46,85.9821770409789L77.64,71.10585606182693L77.82000000000001,57.09712629985657L77.94,45.26127161324729L78.36,87.70328778179113L78.4,111.9899926804679L78.42,125.99809599687124L79.36,108.02041033249775L79.52,92.62354968257156L79.98,70.42397681475127L80.24000000000001,49.8064938362466L80.55999999999999,89.35431610765616L80.62,111.43919348539448L80.78,120.09020872632783L80.84,123.54975990376545L81.32,112.21288061673845L81.4,103.12795519295973L81.44000000000001,96.55104853895294L82,76.788486252278L82.46000000000001,52.0729606966793L82.75999999999999,89.58245363154926L83.12,102.01864535601287L83.24000000000001,106.10602186530043L83.56,99.60396569079484L83.92,85.60931789103941L83.94,76.66681609269658L84.08,67.42578509832627L84.14,60.1583385720166L84.62,42.34236857289744L84.82,86.53686333886787L84.88,111.39390380857789L84.9,125.75814477538111L84.94,133.2464704752547L84.96,137.16441493489242L85.46,125.59765885676879L86.11999999999999,100.19022688958209L86.28,80.47126663505134L86.56,60.85421278050998L86.58,48.49724101466015L86.92,31.67796557233777L87.5,65.79311025160577L87.53999999999999,85.13057017114575L87.74000000000001,91.11175455385933L88.08,85.21128779090935L88.17999999999999,78.87720154824352L88.62,62.87312021280027L88.78,48.857998104242654L89,34.35134131046226L89.04,24.551465202944L89.18,74.76662547186406L89.30000000000001,101.52209181957677L89.44,113.68176213927211L89.56,117.64984795739139L89.62,118.39046160646609L89.96,109.41709576270777L90.2,97.49192246413509L90.25999999999999,88.67221718290814L90.72000000000001,70.59690566781781L90.75999999999999,58.668534872044845L90.88,48.227800610726945L90.96000000000001,39.76103303570696L91.28,25.96262867559085L91.62,67.94892320144827L92.02,82.27365506019187L92.38000000000001,80.91641103741719L92.41999999999999,79.01187546359616L92.46,76.7661074721681L92.52000000000001,73.75690195074878L92.58,70.2994059490951L92.92,58.9309095199779L93.14,46.106147469799254L93.42,30.784198833442048L94.06,63.16670461907566L94.54,69.56190603967455L94.61999999999999,71.24601201573182L94.66,71.15240047115783L94.78,67.8601187983197L94.84,64.26791356414807L95.2,52.40268173223885L95.46000000000001,38.17755317996833L95.62,84.05276072013513L95.88000000000001,104.44812049458106L95.98,114.01212633320698L96.3,111.05166925695544L96.4,106.55591773255868L96.44,102.82909867013417L96.64,95.19039289348675L96.72,88.41938023478997L97.30000000000001,68.77221788696771L97.4,54.24029557593062L97.54,41.76384726743339L98.42,68.95127012803816L98.58000000000001,80.91879425455726L98.72000000000001,84.38289383789059L98.8,84.30199398502603L99.02,78.23607194440103L99.14,71.37579645440103L99.25999999999999,64.05206768383854L99.7,47.825619386344755L99.92,32.2844414885777L100.02,78.43272440852749L100.2,101.3415183202467L100.22,114.54858875093709L100.46,115.95388738142162L100.67999999999999,110.93458267299361L100.74,106.31971351981178L101.88,73.02075727855373L101.97999999999999,50.364505734319735L102,36.24506958642519L102.2,80.25381800511032L103.66,67.69330984603494L103.88000000000001,54.33703362897512L103.89999999999999,45.79106991696841L103.94,39.58678869497274L103.98,34.78703024823366L104.03999999999999,30.290927068211005L104.06,27.051749990926595L104.56,69.42667157658721L104.66,92.21123977049659L104.72,104.295889581699L104.88000000000001,107.28697346256106L105.28,98.51346480670331L105.34,91.65734314183449L105.36,87.02847544890277L105.66000000000001,76.26616000892501L105.97999999999999,61.27486726186541L106.1,49.0900239378484L106.18,39.65044769604239L106.36,29.26941223741707L106.4,21.96558868359608L106.58000000000001,70.10239409150532L106.66,96.83727302716882L106.88,107.09459391070234L107.39999999999999,99.50453131386932L107.58,90.17186878832159L107.88000000000001,76.59551590189919L108.02,64.70690071952495L108.13999999999999,54.485892254631636L108.22,46.25031451944565L108.24000000000001,40.79244339916738L108.62,84.63378475694834L108.67999999999999,109.34493513232655L109.4,105.19784913278136L109.52,99.54957315154381L109.82,88.20326879327003L109.86,80.36381046215993L110.2,66.74306554161888L110.22,58.040242905700495L110.6,42.80808311321195L110.61999999999999,33.15051288876049L110.68,25.788603110860464L110.86,73.56737553432227L111.08,96.52414208491628L111.58,97.13830914417893L111.64,95.89069163885111L111.86,89.38047204711276L111.92,83.83753990144474L111.96000000000001,79.44596215701267L112,75.75994926686386L112.58,58.381967997618304L113,93.65779318463869L113.14,111.08184649997592L113.3,117.43039226684753L113.38,119.16377072794707L113.52000000000001,116.54080753767971L113.54,114.43858053497762L113.55999999999999,112.66804236395532L113.76,106.38194673998777L114.28,89.03954502966975L114.38,75.97434248004143L114.7,59.670043313545705L114.92,44.13868959489827L115,32.764916035584775L115.02,25.43066915260087L115.18,73.27245794094205L115.3,98.87896340388815L115.36000000000001,112.66155657423393L115.53999999999999,116.20158526289973L115.62,116.21716147675025L115.75999999999999,112.64016355271683L115.78,109.96870690441655L115.89999999999999,105.2117418672593L116.02,99.21918151358474L116.06,94.61360249539044L116.12,90.29112110009885L116.82,69.57445680719474L117.06,50.83001542546266L117.44,86.01739635651458L117.9,95.09953890440353L118.3,90.16536217727754L118.78,74.78961688318942L119.10000000000001,57.19904753876783L119.25999999999999,42.50384766388569L119.44,85.13165239715956L119.5,109.11655379588036L119.53999999999999,122.44933620412328L119.56,129.91765109584634L120.44,111.62212695308072L120.56,97.58659632158803L120.62,87.57772885415075L120.76,77.94632181769877L121.02000000000001,65.43454937317136L121.06,56.90588063301742L121.08,51.26780920663336L121.22,44.276714560438336L121.58,86.73354314259437L122.14,97.64775145521808L122.54,93.90053655021418L122.58000000000001,90.60409354471184L122.7,85.5440233143271L123.22000000000001,69.11014077896084L123.32000000000001,56.63764677206399L123.66,40.465090797613385L124.02,77.29838464621126L124.17999999999999,95.26685681311739L124.8,90.03653446547459L125.34,72.97723164933684L125.80000000000001,50.9391925052271L126.38,78.36151885600084L126.6,89.15805496594425L126.92,87.49396286237905L127.2,79.23889897393784L127.22000000000001,73.80912831665438L127.61999999999999,60.29519215926345L128.42,87.11226290297994L128.79999999999998,93.4485152938713L128.86,95.71201529611444L128.96,94.46670305787701L129.7,74.81817548055953L129.84,59.53473409692947L129.92000000000002,48.27469026284518L130.04,38.45137978270711L130.16,29.475252804520096L130.32,75.30278078020555L130.36,101.78682551158036L130.84,105.4400699488753L131,103.5258718195856L131.34,93.62865294201177L131.48,84.13664316494665L131.72,72.30225380261385L131.76,64.18394053026623L131.88,56.28876327649306L132.12,45.45465861693751L132.22,36.41004738370418L132.42000000000002,80.97984528202916L132.62,102.66652492637895L133.18,101.26383110166071L133.22000000000003,99.41939745656934L133.29999999999998,96.3015574518062L133.6,86.81821005702122L134.42000000000002,60.33108026598357L134.48000000000002,42.908141453860964L134.84,78.30316708260303L135.20000000000002,90.35975568575974L135.54000000000002,88.9574814387996L135.6,86.59880305598809L135.7,82.65151126067619L135.8,77.71889031760362L136.16,65.56000889759343L136.18,57.75927477214981L136.52,44.481680553394085L136.57999999999998,35.03379550651559L136.72,80.676805286494L137.26,94.31190654429224L137.3,101.50122280027327L137.44,102.25153589370564L137.8,93.58317544247339L137.98,83.90259680194235L138.16,73.56292992361332L138.36,62.307206456772164L138.58,49.91354802770914L138.67999999999998,39.97094841297965L139.06,79.1308627977878L139.16,100.09378436975341L139.2,111.6784550619562L139.28,116.61538839361904L139.45999999999998,115.015641467161L139.82,104.85433767977577L140.22,88.7650775102092L140.32,76.57538355039635L140.5,64.71000519534198L140.62,54.48789400262186L140.72,45.83397172058352L140.78,39.13833824068345L141.22000000000003,78.60536371101166L141.57999999999998,93.21507460681532L141.66,100.00040343921941L141.76,101.57597787082331L142.07999999999998,94.4924911495773L142.12,89.22673297099638L142.44,77.94819512113949L142.48000000000002,70.15078442294411L142.6,62.45878989204772L142.64,56.84564880502029L142.68,52.45790295488719L142.92000000000002,43.75555974168233L142.96,37.52144854032187L143,32.77233253565146L143.46,72.80400522614349L143.64,92.27862378998297L143.70000000000002,102.47131659169813L144.02,100.5440961399147L144.24,93.8573959977509L144.28,88.8556623056818L144.4,82.862043444607L144.66,72.65751203681629L144.76000000000002,64.04682600464184L145.02,52.391297490805925L145.8,80.09671921713982L146.26,85.18339360710681L146.34,86.221877537962L146.36,86.33191708267303L146.5,82.93245116106216L146.84,72.3948853125227L147.06,60.5430035182428L147.28,47.8788538687582L147.42,36.75276564156741L147.54,81.24463809587793L148.01999999999998,95.93533031846427L149.12,77.25579438248482L149.20000000000002,64.0410301125638L149.46,49.64039111441329L149.76,87.49331908840709L149.92000000000002,106.20621164347395L149.94,116.95419096720417L150.01999999999998,121.39006191105167L150.22,119.08814689597995L150.42000000000002,112.67627288693693L150.44,108.30286500169342L150.46,105.18491807328166L150.62,99.38823157313567L151.02,85.80805333190222L151.5,65.74549147179758L151.64,50.20755132839106L151.70000000000002,39.3827326199513L151.9,81.77530491620907L152.07999999999998,102.74358462615773L152.14,113.82561369887173L152.33999999999997,115.54905632153657L152.44,114.07166473367715L153.16,95.24836475817503L153.34,79.48628057365501L153.38,69.0271861501826L153.46,60.762660615890795L153.58,52.767486636461555L153.64,46.479270106876925L153.78,39.281949303709496L153.94,84.79200897584141L154,110.63718728654653L154.16,122.15445534474692L154.24,127.05318042527264L154.78,116.68014704097087L154.86,108.46141605661377L155.08,98.00678589698909L155.3,86.23853882334971L155.54,73.2253737171869L156.36,98.66677012061162L156.66,106.55981430218468L156.94000000000003,104.3615659250608L157.1,99.07836510842189L157.38,88.92550230073023L157.4,82.33214561871938L157.92000000000002,65.46512874492954L158.20000000000002,48.41591227299941L158.70000000000002,79.25734812063557L159.27999999999997,83.43956811717301L159.34,84.49422524530381L159.46,82.18293312895311L159.82,71.88860212997604L159.85999999999999,64.73492433137103L160.22,51.58166384361431L160.3,41.708721678564416L160.8,76.89157715590166L160.94,94.53928822062433L161.2,98.67640567977044L161.32000000000002,98.18751748012788L161.84,85.16231882141007L162.14,69.94663813529395L162.3,56.8780787145097L162.32000000000002,48.535677795112065L162.76,85.94966415183939L162.84,106.46692001616874L163.12,111.80223967246165L163.36,109.14807163550824L163.38000000000002,107.08110984328411L163.52,102.43697682719443L163.8,92.79697698173332L163.92,84.05317951586291L164.1,74.30235956498649L164.28,64.04424109706483L164.32,56.88677284834307L164.34,52.09023571421416L164.72,39.7415777566535L164.78,84.09557299473103L164.95999999999998,106.25244077356388L165.22,113.18890460085709L165.70000000000002,105.54889617848299L166.01999999999998,93.09198357297521L166.24,80.19936999404554L166.6,63.544837198250235L166.79999999999998,48.70356149863764L166.82,39.28528462053674L166.94,83.83529703981881L167.07999999999998,107.15827704387826L167.16,119.17709652417852L167.18,125.89752655871285L167.20000000000002,129.4476440276756L167.64,120.70216800840225L167.66,114.95026514423407L167.74,109.54290950971752L167.78,105.3151330430701L167.96,98.36548386230038L168.04000000000002,92.22691701008857L168.62,74.29844616959481L168.64,63.03520223951732L168.82,51.92624230725207L168.88,43.79043106143456L169.02,35.4485825951941L169.22,78.5876762213417L169.24,103.98414059201725L169.28,118.25432166396686L169.38,124.3861121308671L169.58,123.09330005846817L169.94,113.4227016333882L170.06,104.72249591492876L170.08,99.0120207260406L170.24,91.71416608145768L170.62,77.98114190147878L170.96,61.4273657398456L171.94,80.51606765354278L172.2,85.60585833301107L172.26,87.15587899720248L172.88,73.01017502201941L172.9,64.02900543638873L173.23999999999998,50.25551576183324L173.44,89.89630878367872L173.5,112.22257829999239L173.54,124.66378821127799L173.76,126.83328685092044L173.88,125.21423968867725L174.01999999999998,120.84263186659177L174.38,109.42908618375715L174.4,102.05611372197302L174.48000000000002,95.70813402094424L174.54,90.38750505449362L174.57999999999998,86.21453135300867L174.85999999999999,76.84749706701353L174.94,69.30160852666646L175.16,59.377604438916535L175.22,51.95506992246449L175.62,90.42020542597218L175.78,109.60158322465884L175.98000000000002,116.2726819253552L176.22,114.43187622878082L176.68,102.190936088831L176.78,92.40771116501735L177.12,78.1888403383333L178,100.92270215221873L178.02,114.08221426821926L178.10000000000002,120.061921309955L178.66,109.92974874951467L179.52,82.90646516767754L179.67999999999998,62.82742955633567L179.84,46.85884549421809L179.86,89.330205551434L180.45999999999998,100.26444619869893L180.54,104.84437699656313L180.76,102.28643910483892L181,94.94294158790335L181.06,89.03869958815868L181.1,84.52515917346813L181.18,79.91390377231004L181.34,73.25334838317768L182.54,92.60438485998475L182.66,101.34206096156376L182.68,106.07942648579242L183.01999999999998,100.64435618444422L183.16,93.96866328748943L183.62,78.80794930712908L183.70000000000002,67.78495773531911L183.98000000000002,54.40419612556646L184.32,90.51446383826305L184.44,109.3212492258094L184.7,114.3404063551471L185.1,107.72359555462471L185.28,99.34069525595191L185.6,86.59293707544614L185.64,77.9691614314656L185.82000000000002,68.42980818700437L186,58.314874821056776L186.16,48.32469126633197L186.56,84.9645336766286L186.60000000000002,105.95273677498759L186.66,117.10344361935454L186.7,122.81346768528459L186.82000000000002,123.35465229085827L187.06,117.90383234131183L187.08,114.13644543343293L187.22,108.49888916761184L187.28,103.67999912556711L187.38000000000002,98.404325549559L187.52,91.84535893650624L187.56,86.95036949601834L188.58,111.50994973309278L188.8,120.90335481706921L188.86,125.09911813926496L188.95999999999998,125.22794809710064L189.28,117.60131973716663L189.36,111.14181068995622L189.38,106.78796348103103L189.42000000000002,103.20626785098841L189.62,96.24320947361386L189.70000000000002,90.12194993547041L189.78,84.5424677151885L189.96,76.8674575822381L189.98,71.77748262225954L190.07999999999998,66.2852655824703L190.16,61.05640456432593L190.18,57.419004717762235L190.48000000000002,47.96068154159485L191.1,79.37462765054285L191.34,92.43076479019551L191.48000000000002,96.8758242224246L191.57999999999998,97.16088294491308L191.85999999999999,90.64290183726037L192.04,82.42905877813749L192.34,70.2754073046429L192.55999999999997,57.692256231744054L192.7,46.687879259879765L192.72,39.59682501686535L192.9,83.07005545119995L193.66,90.96415010014705L193.72,94.2260200080049L193.76000000000002,95.24334309204252L193.82000000000002,94.42272587475678L193.83999999999997,93.4487444441249L193.92,90.92363120423535L194.56,73.98523119649954L194.84,57.112332858524724L195.5,82.95367058100024L195.58,96.58096867346994L195.94,96.10170206996739L196.04,93.41871521984501L196.34,84.61984381289658L196.4,77.92329157419628L196.45999999999998,72.45525704087194L196.88,59.14011219978357L197.1,45.83317968966179L197.38,82.94767700325022L197.58,100.44753042883814L197.64000000000001,109.47140920782373L197.72,112.96570488341818L198.06,106.94538668330613L198.1,102.35617160959306L198.16,98.12153568059958L198.57999999999998,85.62043442919308L198.62,77.15244333980752L198.72,69.63226645961366L198.94,59.88937943957028L199.1,50.180896576502576L199.18,42.469496474547384L199.51999999999998,81.37570089172713L199.64,101.85805869421597L199.84,109.34725823085249L199.88,112.89813989944899L200,112.17857572026836L200.1,109.38828651289018L200.20000000000002,105.35256520200494L200.26000000000002,101.46975357432795L200.55999999999997,91.99880162376343L200.57999999999998,85.81560545342472L201.12,69.22600002335692L201.28,55.419930287451635L201.48,94.0200744627542L201.7,111.87962737622023L202.11999999999998,112.6269158625811L202.46,104.94827220635074L202.48,99.8614188902167L203.12,81.53352014923418L203.14,70.02739207000926L203.26,60.237614994609714L204.3,81.18390019793772L204.34,92.81188404779908L204.54,94.99822473206487L204.67999999999998,92.93448396033267L205.22,78.76385287619959L205.64000000000001,60.33245807988642L205.84,95.98633209687392L206.16,109.73698037791601L206.20000000000002,117.06231111086419L206.23999999999998,120.49337257960445L206.34,120.17186858356996L206.98000000000002,104.66186483503782L207.07999999999998,93.00547746222061L207.29999999999998,80.8003676622282L207.32,72.99246327311816L207.4,66.36833183756882L208.26000000000002,93.38250353776264L208.32,108.18456102565239L208.72,107.56350279377683L208.84,104.3192938637661L208.85999999999999,101.90899361969194L209.38,88.07259822259643L209.52,76.47329649866202L209.66,66.19991692914512L210.32000000000002,95.74414065227873L210.76,102.94315981454433L210.78,106.79134644211202L210.96,104.88298240953804L211.10000000000002,100.41019836499366L211.16,96.32189239139203L211.3,90.5510600767623L211.36,85.64748786897405L211.74,73.68492800784276L211.8,65.07777744272649L212.02,54.67222147865671L212.24,43.20049135073572L212.44,82.951561444556L212.48,105.86201099189635L212.5,119.14328577808053L212.56,125.67474483110612L213.04,118.19832694423658L213.14000000000001,111.35917657018778L213.16000000000003,106.78235670708663L213.23999999999998,102.13248757568427L213.62,90.2949411131189L213.82,78.472446568913L213.98,67.53449170436865L214.22,55.22044144189202L215.01999999999998,80.16947900901542L215.20000000000002,90.83624261374257L215.22,96.75367567892263L215.34,97.50659202844733L215.38,97.03005039936008L215.56,92.48977477086603L216.26000000000002,73.18519041590504L216.82,99.49197856432167L216.88,113.86405138826747L216.94,121.05472390750475L217.12,121.12590683799245L217.68,107.97038593222254L218.16,88.69948663745852L218.35999999999999,72.3768000228397L219.46,87.56612252672466L219.58,93.84292504598271L219.66,95.73190616691254L219.72,95.46054630431419L219.94,90.12395353128642L220.3,78.42312364871978L220.4,69.05240862933604L221.02,99.77524597512766L221.12,115.86029212446462L221.14000000000001,125.0492086080121L221.18,129.65018319703384L221.42000000000002,126.76346807251718L221.45999999999998,124.09372897176551L221.7,116.85398611352807L221.9,107.85165673973141L222.16,96.28345433029719L222.26,87.00469235729288L222.28,80.93741277765699L222.57999999999998,70.21948516659418L222.70000000000002,60.91514689422735L222.9,50.60935275242184L223.38,84.07610996688278L223.72,96.17566799835883L223.88,99.63128728990073L224.16,95.12278148852377L224.78,77.81558533191634L224.92,64.09282027467061L224.98000000000002,54.451266416104446L225.14,44.87347684185019L225.46,82.54357358069605L225.54000000000002,103.2753938228968L225.64,113.3483969219933L225.68,118.43926213594335L225.72,120.54629847622748L225.78,120.42908644250733L226.48,103.85589366237939L226.6,91.15266800081304L226.61999999999998,83.06652749319616L226.76,74.89608186050103L226.94,65.76752548348813L227.34,50.824783909884516L227.58,87.10429812913385L227.89999999999998,101.2503676632876L227.94,108.81625243391007L227.95999999999998,112.87622481646582L228,114.37691008519201L228.12,112.46462284147978L228.2,109.41726273483579L228.3,105.2498168694171L228.42,99.98668012816069L228.52,94.47334297272974L228.67999999999998,87.43918706618992L229.1,73.33967903658895L229.38,58.19707662768255L229.6,94.7729065153465L229.8,111.99204670054905L229.88,120.43630203562891L229.9,125.02594111721069L230.46,114.60194912670661L230.64000000000001,104.11807084321148L230.79999999999998,94.10975438743729L231.1,81.08219228089987L231.12,72.80450928130035L231.35999999999999,62.25715911695728L231.98000000000002,92.0758549346926L232.16,105.73524338073743L232.29999999999998,110.67046777323412L232.42000000000002,110.79100603828944L232.48000000000002,109.45405223951012L232.5,108.18322484956545L232.6,105.0857053524476L232.78,99.02834342631232L232.94,91.65139804797488L233.07999999999998,83.93781649805577L233.1,78.84492648737515L233.14,74.84488567758133L233.34,67.7031341409238L233.4,62.019864827002195L233.44,57.697971923545055L233.94,93.93698311954046L234.04000000000002,113.36867440948468L234.16,122.21379643442779L234.24,125.6400406454874L234.98,110.3770078833862L235.10000000000002,98.38887813497962L235.14,90.27537177031068L235.16,84.94261088770726L235.18,81.27222489850978L235.3,76.29314115655377L235.62,65.68151981763017L235.74,56.548515666619764L235.76,50.57926532445104L236,41.44974715039979" style="fill: none;" fill="none"></path></g></g></g></g><g opacity="0.2"><g><g><g><path stroke="rgb(255, 112, 67)" stroke-width="2px" d="M21.900000000000002,-367.59219205729164L23.12,17.097444661458326L23.18,8.699721028645826L23.36,-15.532310709635397L23.680000000000003,-58.545949869791684L24.6,118.86551517740887L24.7,106.10942069498698L25.12,54.22058463541666L25.220000000000002,42.154674723307295L25.36,25.10083919270835L25.48,10.665688151041678L26.18,-70.96495540364583L26.38,-93.79099283854168L26.8,118.2811484781901L26.96,100.37893391927084L27.36,56.465748697916666L28.44,-58.37884309895833L28.459999999999997,-60.40809814453124L28.86,131.64418739827474L28.919999999999998,125.50020878092448L29.220000000000002,94.99239506022136L29.28,88.78863224283855L29.3,86.76018115234375L29.5,66.51031998697917L29.88,28.128128417968753L30.3,-13.601905924479183L30.740000000000002,-56.82589160156249L31.28,107.97991634114584L31.48,88.63231005859376L31.6,77.09326595052083L31.740000000000002,63.82307478841146L31.76,61.90278824869792L32.42,-0.4423636067708401L32.96,-51.12005582682292L33,150.4782676010132L33.24,128.40986887613934L33.44,110.15137727864582L34.3,31.665038248697925L34.46,17.249602213541664L34.62,2.801732747395846L35.059999999999995,-36.836787109374995L35.14,152.4504769185384L35.32,136.46870733642578L35.4,129.38735874430338L35.44,125.71179563395182L35.620000000000005,109.9169736735026L35.72,101.28635294596354L35.76,97.85929524739583L35.86,88.95879549153646L35.9,85.36506559244792L35.98,78.31292374674479L36.06,71.33580322265625L36.18,60.67675675455729L36.2,58.91915885416665L36.66,18.839897786458323L36.739999999999995,11.90622705078124L37.4,143.84684934488934L37.54,131.86379388427736L37.66,121.58840962727865L38.16,78.56145450846354L38.2,75.25077473958333L38.36,61.704703857421876L38.64,37.58943391927082L38.86,18.98398681640623L38.919999999999995,13.780427408854166L39.1,-1.2159856770833244L39.44,-29.68312239583335L39.46,152.55336913553873L39.58,142.40813008626301L39.6,140.76818666585285L39.699999999999996,132.38577077229817L40.06,102.33444962565103L40.120000000000005,97.26821443684895L40.3,82.36576269531251L41.28,1.0226743164062384L41.34,-3.759366373697901L41.58,-23.660600748697902L41.68,147.85953852335612L41.88,131.77208506266277L42,121.8742373860677L42.1,113.82200439453125L42.3,97.21421545410156L43.14,28.88775732421874L43.22,22.479395182291654L43.239999999999995,20.861301595052083L43.26,19.24497526041668L43.620000000000005,-10.234406087239591L43.88,144.51991727701824L44.13999999999999,123.59934029134115L44.900000000000006,62.71195817057291L45.12,44.94775227864582L45.18,40.20222998046876L45.239999999999995,35.435732421875L45.64,3.7922343749999925L45.76,-5.916776204427094L45.9,-17.13910546874999L46.339999999999996,120.82501082356771L46.4,116.19420784505209L46.62,98.94632218424479L46.68,94.20153503417968L46.74,89.40843090820313L46.76,87.80799536132811L47.72,12.086095703125011L47.839999999999996,2.7467016601562477L47.86,1.112731770833335L48.3,137.01376171875L48.54,118.35480452473959L48.74,102.79006038411458L48.82,96.63409305826823L49.34,55.96855680338541L49.559999999999995,38.6767578125L49.72,26.279987792968768L49.839999999999996,16.980023763020824L50.48,135.81172031656902L50.56,129.59957029215494L51.06,90.89067057291666L51.379999999999995,66.40170638020834L51.4,64.82693221028646L51.699999999999996,41.928900960286455L51.78,35.52799894205731L52.1,10.864315755208338L52.120000000000005,9.275208007812495L52.56,142.16203925577798L52.76,127.1466888631185L52.82,122.65184301757813L52.919999999999995,114.93291459147136L52.98,110.4457334798177L53.379999999999995,79.700890625L53.660000000000004,58.33595825195313L53.839999999999996,44.57897591145834L53.92,38.44781168619792L53.96,35.374211751302084L54,32.318675455729164L54.06,27.740303385416667L54.199999999999996,17.12813981119791L54.38,3.32753385416666L54.66,146.6604359029134L54.7,143.597338083903L54.76,139.035904296875L54.86,131.63954654947918L54.919999999999995,127.00692018636067L54.94,125.47649572753906L55.34,95.2621219889323L55.52,81.59920239257812L55.64,72.53943261718752L55.800000000000004,60.5170811360677L55.980000000000004,47.090451904296884L56.120000000000005,36.56835302734376L56.54,4.665807617187511L56.62,-1.2456668294270798L56.82,146.73049135335287L56.900000000000006,140.64761603800457L57.08,127.13066408284504L57.34,107.73097998046875L57.4,103.22807466634114L57.52,94.43227376302083L57.559999999999995,91.5065146484375L58.36,31.463991536458337L58.7,6.155224934895841L58.900000000000006,152.73477010091145L58.96,148.25591146341958L59,145.31575313313803L59.36,118.4339434000651L59.64,97.61415051269532L59.68000000000001,94.67713602701822L60.04,68.00250406901041L60.120000000000005,62.02603238932292L60.28,50.02136791992187L60.62,25.067058593750005L60.74,16.159772298177074L61.220000000000006,140.85568377685547L61.480000000000004,121.74649182128907L61.54,117.36671838378906L61.559999999999995,115.8343184407552L61.64,109.76576493326823L61.72,103.78815974934896L61.800000000000004,97.93726440429688L61.94,87.6191962890625L62.24,65.39941341145833L62.92,15.57052392578126L63,9.698827148437488L63.14,-0.6131497395833492L63.32,145.427728322347L63.76,113.1522880859375L63.800000000000004,110.30368693033854L63.84,107.32554036458333L64,95.57494380696615L64.16,83.88645458984375L64.24,78.05779475911459L64.64,49.022565999348956L64.74,41.47820808919272L64.76,40.03452205403647L64.8,37.167994873046865L64.86,32.772765218098954L64.96000000000001,25.34225748697918L65.1,14.922565104166665L65.16,10.560449707031239L65.26,3.2871043294270805L65.64,133.91215372721354L65.83999999999999,119.35760087076824L65.96000000000001,110.48575740559896L66.08000000000001,101.81143701171875L66.16,95.9121377766927L66.39999999999999,78.3273369954427L66.42,76.88271663411457L66.92,40.70912727864584L67.10000000000001,27.54867236328124L67.8,133.8394410603841L67.82,132.37831970214845L67.86,129.3902685546875L68.74,65.14646451822917L68.9,53.959255777994784L69.04,43.941649576822925L69.08,41.034098958333345L69.12,38.03747591145833L69.22,30.799359700520824L69.72,151.50919581095377L69.74,150.0456929168701L69.94,135.60998372395832L69.97999999999999,132.7231258951823L70.08000000000001,125.51554187011719L70.36,105.28505167643229L70.48,96.57003015136719L70.66,83.60797469075521L70.96000000000001,61.77453930664062L71.03999999999999,56.1584423014323L71.08,53.30588655598959L71.58,17.353855631510413L72.02000000000001,141.37210993448895L72.14,132.6509057413737L72.48,108.48897924804687L72.6,99.92488399251302L72.62,98.49129809570313L72.9,78.39326131184896L73.12,62.63427148437499L73.58,29.639216308593745L73.72,19.637102539062482L73.82000000000001,12.388744954427096L74.08000000000001,148.68220094807944L74.22000000000001,138.7045426228841L74.52,117.40104943847656L74.75999999999999,100.18956628417969L74.82000000000001,95.849349609375L75.10000000000001,76.02023942057292L75.8,25.962997721354185L75.82,24.572633463541678L75.84,23.147213867187503L76.2,151.35895557403563L76.5,130.14865712483723L77.46,61.529419921875004L77.64,48.791374593098965L77.82000000000001,36.08403165690106L77.94,27.507489583333324L78.36,151.36631203460695L78.4,148.42005002848308L78.42,147.01025097147624L79.36,81.0538818359375L79.52,69.5282587076823L79.98,37.12461751302084L80.24000000000001,18.880269368489593L80.55999999999999,148.6760495147705L80.62,144.56650955200195L80.78,133.06673158772787L80.84,128.73908666992187L81.32,95.20756168619792L81.4,89.50056705729166L81.44000000000001,86.6856885579427L82,47.14464282226561L82.46000000000001,14.999672363281263L82.75999999999999,145.84669303385417L83.12,120.67293294270833L83.24000000000001,112.23708662923177L83.56,89.85088142903645L83.92,64.61734619140626L83.94,63.253063395182295L84.08,53.56423860677083L84.14,49.25716878255207L84.62,15.61841357421875L84.82,152.8286054878235L84.88,148.6794645131429L84.9,147.30450622558595L84.94,144.4789590250651L84.96,143.04133162434897L85.46,108.24752473958333L86.11999999999999,62.079078938802084L86.28,50.89282625325521L86.56,31.42863199869791L86.58,29.961783365885424L86.92,6.449052408854186L87.5,116.96582727050782L87.53999999999999,114.13676005045573L87.74000000000001,100.08353112792969L88.08,76.36058764648438L88.17999999999999,69.37607218424479L88.62,38.866998209635426L88.78,27.835314941406267L89,12.59135611979167L89.04,9.851651041666656L89.18,150.08936587524414L89.30000000000001,141.65529134114584L89.44,131.9212676188151L89.56,123.6019766845703L89.62,119.50138208007812L89.96,95.95704699707031L90.2,79.60416251627605L90.25999999999999,75.4426592610677L90.72000000000001,43.48393839518229L90.75999999999999,40.77597867838543L90.88,32.56669921875002L90.96000000000001,27.06088167317708L91.28,5.265022135416672L91.62,130.92836499023437L92.02,103.76075284830729L92.38000000000001,78.88054500325521L92.41999999999999,76.1550721028646L92.46,73.39745548502604L92.52000000000001,69.24309366861979L92.58,65.11316194661458L92.92,41.878164876302094L93.14,26.86900439453126L93.42,7.801275878906239L94.06,111.74046329752605L94.54,79.1547081705729L94.61999999999999,73.7721709798177L94.66,71.01198315429687L94.78,62.921696289062496L94.84,58.87960571289062L95.2,34.604833984375006L95.46000000000001,16.839860351562493L95.62,152.86557203038532L95.88000000000001,135.04116015625L95.98,128.35813509114584L96.3,106.61098364257813L96.4,99.81229044596354L96.44,97.23887007649739L96.64,83.73233422851564L96.72,78.2628612467448L97.30000000000001,39.301474365234384L97.4,32.442412109375L97.54,23.049174804687482L98.42,109.73240441894531L98.58000000000001,98.87008044433594L98.72000000000001,89.57904321289062L98.8,84.18064420572917L99.02,69.13718888346354L99.14,61.08538321940105L99.25999999999999,53.0664745279948L99.7,23.485946940104185L99.92,8.972674641927085L100.02,147.65514878845215L100.2,135.70470918782553L100.22,134.35919439697267L100.46,118.06183532714843L100.67999999999999,103.40562561035156L100.74,99.39740979003906L101.88,23.07232291666668L101.97999999999999,16.380128417968763L102,15.065915364583333L102.2,146.26694063313803L103.66,48.852547607421855L103.88000000000001,34.30261930338543L103.89999999999999,32.97212434895832L103.94,30.28036686197916L103.98,27.58739257812502L104.03999999999999,23.546772298177103L104.06,22.19298437500001L104.56,132.98905395507813L104.66,126.38809206136068L104.72,122.4228642985026L104.88000000000001,111.77359928385417L105.28,85.35320182291667L105.34,81.37316064453124L105.36,80.0851739095052L105.66000000000001,60.122686848958324L105.97999999999999,38.78792814127604L106.1,30.8127589518229L106.18,25.491083333333336L106.36,13.697859049479149L106.4,11.009853352864582L106.58000000000001,142.30760220336913L106.66,136.93959143066405L106.88,122.48057523600261L107.39999999999999,88.1194374186198L107.58,76.17287499999999L107.88000000000001,56.23098657226562L108.02,46.87397794596356L108.13999999999999,39.15437955729166L108.22,33.896947916666676L108.24000000000001,32.60563671874999L108.62,150.3957967936198L108.67999999999999,146.4116606953939L109.4,98.97722013346355L109.52,91.0771591796875L109.82,71.18381225585938L109.86,68.6046229654948L110.2,46.311948160807304L110.22,44.986008951822924L110.6,19.959843424479175L110.61999999999999,18.66415755208334L110.68,14.745738444010414L110.86,145.23553416951498L111.08,130.95929191080728L111.58,98.05955973307292L111.64,94.01926538085937L111.86,79.61514265950521L111.92,75.52314168294271L111.96000000000001,72.85859554036458L112,70.23092993164063L112.58,32.31499609375001L113,146.57153096516927L113.14,137.2179264729818L113.3,126.95321091715495L113.38,121.76383841959635L113.52000000000001,112.60636275227864L113.54,111.28524003092447L113.55999999999999,110.01223510742187L113.76,96.95280330403646L114.28,63.025942464192696L114.38,56.37653865559895L114.7,35.213594563802076L114.92,20.841659016927082L115,15.704255696614581L115.02,14.429298828125013L115.18,145.03514112345377L115.3,137.2887215983073L115.36000000000001,133.3354463297526L115.53999999999999,121.51162829589845L115.62,116.24052579752603L115.75999999999999,107.27466666666668L115.78,105.96152193196615L115.89999999999999,98.07629431152344L116.02,90.23034098307292L116.06,87.70523396809897L116.12,83.80739900716146L116.82,38.49946036783854L117.06,22.713353352864573L117.44,138.79846775309244L117.9,108.72275272623698L118.3,82.76409708658854L118.78,51.72599894205729L119.10000000000001,30.813193522135435L119.25999999999999,20.461047851562483L119.44,149.07335949707033L119.5,145.0939058939616L119.53999999999999,142.44850981648761L119.56,141.120123433431L120.44,84.17884073893228L120.56,76.53330037434897L120.62,72.5644276529948L120.76,63.499211263020825L121.02000000000001,46.6668907063802L121.06,44.11287752278645L121.08,42.81070206705729L121.22,33.790072591145844L121.58,150.41878601582846L122.14,114.01906392415364L122.54,88.27971419270833L122.58000000000001,85.65942903645833L122.7,77.95391796874999L123.22000000000001,44.45931697591146L123.32000000000001,37.92890576171877L123.66,16.206256835937495L124.02,132.54832541910807L124.17999999999999,122.21956506347657L124.8,82.19105094401043L125.34,47.38827742513021L125.80000000000001,17.882133789062493L126.38,119.49500838216146L126.6,105.35285913085937L126.92,84.99782470703126L127.2,66.85630314127604L127.22000000000001,65.66447233072917L127.61999999999999,40.02428792317707L128.42,127.33786901855468L128.79999999999998,102.95289388020834L128.86,99.10726529947917L128.96,92.59873470052084L129.7,45.34538411458334L129.84,36.60957202148438L129.92000000000002,31.384624511718755L130.04,23.716414062500007L130.16,16.011062337239565L130.32,144.04407274373372L130.36,141.51289260864257L130.84,110.9199366048177L131,100.65457462565104L131.34,78.78282462565103L131.48,69.89862849934896L131.72,54.550669759114584L131.76,52.006470621744796L131.88,44.44599739583333L132.12,29.20350162760417L132.22,22.84313053385415L132.42000000000002,147.8345421295166L132.62,135.19654439290366L133.18,99.15979036458333L133.22000000000003,96.6527469889323L133.29999999999998,91.62479744466147L133.6,72.59318896484375L134.42000000000002,20.600385579427098L134.48000000000002,16.77373323567707L134.84,131.39570552571615L135.20000000000002,108.44463859049479L135.54000000000002,86.85407006835936L135.6,83.06078548177084L135.7,76.73057356770833L135.8,70.31995890299478L136.16,47.321686767578115L136.18,46.05817358398437L136.52,24.565289225260415L136.57999999999998,20.861967936197914L136.72,149.1413199564616L137.26,114.76455843098958L137.3,112.2851971842448L137.44,103.37700553385417L137.8,80.580634765625L137.98,69.38172884114583L138.16,58.05342960611979L138.36,45.423621256510415L138.58,31.323060384114598L138.67999999999998,25.05704899088542L139.06,137.87073437499998L139.16,131.53816672770182L139.2,129.0554611002604L139.28,124.02078839111329L139.45999999999998,112.61602107747396L139.82,89.61238199869791L140.22,64.63118725585937L140.32,58.29084261067709L140.5,46.91193766276041L140.62,39.15472721354166L140.72,32.85308829752603L140.78,29.094888020833338L141.22000000000003,137.8059019165039L141.57999999999998,115.12964095052084L141.66,110.17839668782551L141.76,103.93933951822918L142.07999999999998,83.86726106770834L142.12,81.328095703125L142.44,61.03038834635417L142.48000000000002,58.45466837565104L142.6,50.920798095703134L142.64,48.425937174479145L142.68,45.8762841796875L142.92000000000002,30.702044921875L142.96,28.17028173828126L143,25.648658528645825L143.46,132.8515142618815L143.64,121.4905516357422L143.70000000000002,117.76035579427084L144.02,97.65326546223957L144.24,83.82734578450521L144.28,81.35306176757814L144.4,73.87161515299479L144.66,57.35071492513022L144.76000000000002,51.13079695638021L145.02,34.90800472005208L145.8,121.65485180664062L146.26,92.81340519205729L146.34,87.77960343424479L146.36,86.4969763997396L146.5,77.83325227864583L146.84,56.588536539713544L147.06,42.7651808268229L147.28,28.88262939453125L147.42,20.063633300781248L147.54,147.98244677734374L148.01999999999998,117.97136865234376L149.12,49.236490478515606L149.20000000000002,44.218883707682295L149.46,28.039432617187515L149.76,144.2727110493978L149.92000000000002,134.27555047607422L149.94,133.0761599527995L150.01999999999998,128.04386832682292L150.22,115.6352743733724L150.42000000000002,103.0584618733724L150.44,101.74275317382812L150.46,100.50799768066406L150.62,90.69320182291666L151.02,65.43778597005209L151.5,35.65164868164064L151.64,26.90064111328124L151.70000000000002,23.145504557291673L151.9,145.3641633605957L152.07999999999998,134.19600419108073L152.14,130.4486573079427L152.33999999999997,118.13422025553385L152.44,111.85557735188802L153.16,67.01341479492187L153.34,55.843154296875L153.38,53.33854451497396L153.46,48.36587231445313L153.58,40.77472566731771L153.64,37.046945312500014L153.78,28.485968098958324L153.94,153.0570984840393L154,149.40495475260417L154.16,139.43035743204751L154.24,134.4012680460612L154.78,101.12059696451823L154.86,96.13331958007812L155.08,82.32484065755207L155.3,68.58616821289063L155.54,53.70562605794271L156.36,136.8288647257487L156.66,118.39938057454427L156.94000000000003,101.064193359375L157.1,91.15356388346355L157.38,73.69620808919271L157.4,72.44211059570313L157.92000000000002,40.16460343424481L158.20000000000002,22.84208756510415L158.70000000000002,125.51950189208983L159.27999999999997,89.71289811197916L159.34,86.0762109375L159.46,78.71599495442707L159.82,56.447105631510425L159.85999999999999,54.00440763346354L160.22,31.851773111979156L160.3,26.899308430989578L160.8,129.66586037190757L160.94,121.01085481770833L161.2,104.88208186848958L161.32000000000002,97.45418518066406L161.84,65.62452083333334L162.14,47.12311710611979L162.3,37.27523958333333L162.32000000000002,36.02207641601561L162.76,142.07064368693034L162.84,137.24280381266277L163.12,119.80521915690105L163.36,105.16681958007813L163.38000000000002,103.98066715494792L163.52,95.47077730305989L163.8,78.33697721354166L163.92,70.93748331705729L164.1,59.67612963867188L164.28,48.65706339518229L164.32,46.15057047526042L164.34,44.895430013020814L164.72,21.2185908203125L164.78,150.62656585184732L164.95999999999998,139.48774244181317L165.22,123.59360034179687L165.70000000000002,94.08888354492187L166.01999999999998,74.40661466471354L166.24,60.86044962565106L166.6,38.563038004557285L166.79999999999998,26.441647949218748L166.82,25.15786930338541L166.94,150.66031566874187L167.07999999999998,142.14274704996745L167.16,137.2053257446289L167.18,135.97817161051432L167.20000000000002,134.7728202311198L167.64,107.5839539794922L167.66,106.32241084798177L167.74,101.43187605794272L167.78,98.97346834309896L167.96,87.94101009114583L168.04000000000002,83.01906673177083L168.62,47.40573990885417L168.64,46.14033634440105L168.82,35.262802408854185L168.88,31.586714192708314L169.02,22.93580989583333L169.22,143.29631666056315L169.24,142.0788371480306L169.28,139.65959327189128L169.38,133.58379783121745L169.58,121.15408194986979L169.94,98.91680399576823L170.06,91.67218733723959L170.08,90.44630794270833L170.24,80.76738411458332L170.62,57.38160563151041L170.96,36.59670149739583L171.94,109.14912052408854L172.2,93.24054435221353L172.26,89.48090999348959L172.88,51.79161905924478L172.9,50.55725105794272L173.23999999999998,29.59528125L173.44,149.35749831644694L173.5,145.7119825744629L173.54,143.32560307820637L173.76,130.0875348103841L173.88,122.7856689453125L174.01999999999998,114.28522013346355L174.38,92.30876765950521L174.4,90.99665502929687L174.48000000000002,86.18616446940105L174.54,82.40656160481771L174.57999999999998,79.95507080078124L174.85999999999999,62.79694563802083L174.94,57.98277571614584L175.16,44.49159830729167L175.22,40.82126814778644L175.62,148.11790868123373L175.78,138.3736499226888L175.98000000000002,126.27932997639974L176.22,111.67066768391928L176.68,83.82952587890625L176.78,77.73287377929687L177.12,56.8605340983073L178,135.02349487304687L178.02,133.82148244222006L178.10000000000002,129.0314818725586L178.66,94.73148990885417L179.52,42.37153979492186L179.67999999999998,32.70887613932291L179.84,22.905969401041688L179.86,153.0372456372579L180.45999999999998,116.66580716959635L180.54,111.71427319335938L180.76,98.44953226725261L181,83.9276953125L181.06,80.18233658854167L181.1,77.7548485514323L181.18,72.99702067057291L181.34,63.262515299479176L182.54,121.63093957519531L182.66,114.44857511393229L182.68,113.18547477213541L183.01999999999998,92.49175073242188L183.16,83.9551239420573L183.62,56.066878336588545L183.70000000000002,51.25047037760416L183.98000000000002,34.33305371093749L184.32,144.67986540730794L184.44,137.53142730712892L184.7,121.86914204915365L185.1,97.79837935384114L185.28,86.76634480794272L185.6,67.4712998046875L185.64,65.03349796549479L185.82000000000002,54.120778320312496L186,43.142474772135415L186.16,33.339415934244784L186.56,139.92429729207356L186.60000000000002,137.43504142252604L186.66,133.82950388590496L186.7,131.37850378417968L186.82000000000002,124.16642919921875L187.06,109.72760241699218L187.08,108.48536507161458L187.22,100.04255476888021L187.28,96.4516640625L187.38000000000002,90.49081518554688L187.52,82.00690901692708L187.56,79.60788533528647L188.58,148.34932008870442L188.8,134.99346244303385L188.86,131.3927631225586L188.95999999999998,125.42119303385417L189.28,106.16137719726562L189.36,101.45254711914063L189.38,100.25719266764322L189.42000000000002,97.83372440592449L189.62,85.79862190755208L189.70000000000002,80.94006062825521L189.78,76.17324438476561L189.96,65.35494238281251L189.98,64.14252018229168L190.07999999999998,58.04694002278646L190.16,53.213113037109366L190.18,51.96290494791667L190.48000000000002,33.77319677734374L191.1,126.49554681396484L191.34,112.01497049967448L191.48000000000002,103.54341337076823L191.57999999999998,97.58847102864583L191.85999999999999,80.86593017578124L192.04,70.10829418945312L192.34,52.04493009440104L192.55999999999997,38.817529622395824L192.7,30.181313802083338L192.72,28.960243652343763L192.9,148.2799011027018L193.66,102.80529207356771L193.72,99.11882486979167L193.76000000000002,96.76932771809895L193.82000000000002,93.19180004882813L193.83999999999997,91.98777229817708L193.92,87.13596134440104L194.56,48.577631184895836L194.84,31.802985351562512L195.5,121.71567716471354L195.58,117.02191581217448L195.94,95.38280216471354L196.04,89.39423494466146L196.34,71.42153670247396L196.4,67.87846321614585L196.45999999999998,64.25320524088542L196.88,39.167394938151034L197.1,25.872780924479173L197.38,138.61942297363282L197.58,126.69731056722006L197.64000000000001,123.00722737630208L197.72,118.2071483968099L198.06,97.91490938313802L198.1,95.47234899902344L198.16,91.76958178710937L198.57999999999998,66.86878255208332L198.62,64.45045670572917L198.72,58.35200113932291L198.94,45.275048909505216L199.1,35.61817228190105L199.18,30.90239632161459L199.51999999999998,139.73500751749674L199.64,132.58159539794923L199.84,120.5810575358073L199.88,118.22446240234375L200,111.0992294514974L200.1,105.2028527018229L200.20000000000002,99.29898323567708L200.26000000000002,95.6455361328125L200.55999999999997,77.79237369791667L200.57999999999998,76.54081119791667L201.12,44.3415918782552L201.28,34.710825683593754L201.48,151.920290725708L201.7,138.66895674641927L202.11999999999998,113.7478485921224L202.46,93.43030672200521L202.48,92.23113891601562L203.12,54.04167203776042L203.14,52.76819995117188L203.26,45.552949381510416L204.3,112.60332800292969L204.34,110.25385982259114L204.54,98.27773575846354L204.67999999999998,89.83887280273437L205.22,57.507906250000005L205.64000000000001,32.685365885416644L205.84,149.46714312235514L206.16,130.36295279947916L206.20000000000002,128.05030721028646L206.23999999999998,125.63996478271486L206.34,119.68961258951822L206.98000000000002,81.39685921223958L207.07999999999998,75.52089640299481L207.29999999999998,62.49270296223959L207.32,61.28060668945312L207.4,56.43213468424479L208.26000000000002,133.9037610880534L208.32,130.38764725748698L208.72,106.63191544596354L208.84,99.45298046875L208.85999999999999,98.29354325358072L209.38,67.31800512695311L209.52,59.074343912760426L209.66,50.789847574869796L210.32000000000002,140.06047623697916L210.76,113.74168855794271L210.78,112.56362638346354L210.96,102.02043636067708L211.10000000000002,93.70102229817708L211.16,90.18943343098958L211.3,81.89481160481772L211.36,78.29212955729167L211.74,55.741088216145826L211.8,52.16705159505209L212.02,39.06388753255209L212.24,25.992896158854165L212.44,142.57816658528645L212.48,140.22768531290689L212.5,139.06519795735676L212.56,135.47193341064454L213.04,106.98370011393229L213.14000000000001,101.10045100911458L213.16000000000003,99.9171269124349L213.23999999999998,95.15768387858073L213.62,72.53862141927084L213.82,60.73870475260418L213.98,51.127559407552084L214.22,36.74936604817708L215.01999999999998,117.59303535970052L215.20000000000002,106.83638802083333L215.22,105.62982527669271L215.34,98.63596655273437L215.38,96.31523795572917L215.56,85.67936132812501L216.26000000000002,44.22831388346356L216.82,138.95216078694662L216.88,135.4221606241862L216.94,131.8407326863607L217.12,121.23268123372395L217.68,88.23710457356772L218.16,59.79313769531251L218.35999999999999,47.89277010091146L219.46,110.35010628255208L219.58,103.25812882486979L219.66,98.56537784830729L219.72,95.05350651041667L219.94,82.1190643717448L220.3,60.871878824869796L220.4,54.99633610026042L221.02,145.85950199381512L221.12,139.98786134847006L221.14000000000001,138.83258333333333L221.18,136.5516450805664L221.42000000000002,122.43339538574219L221.45999999999998,120.08912032063802L221.7,105.99437182617187L221.9,94.34816267903646L222.16,78.93115071614584L222.26,73.08654939778646L222.28,71.83649340820313L222.57999999999998,54.14259375L222.70000000000002,46.95863948567708L222.9,35.15066153971355L223.38,134.27624578857422L223.72,114.32500504557291L223.88,104.81471622721354L224.16,88.36002278645834L224.78,51.854791097005204L224.92,43.50867268880208L224.98000000000002,39.988935628255206L225.14,30.506792480468732L225.46,139.04871868896484L225.54000000000002,134.3731241861979L225.64,128.457901570638L225.68,126.07555995686849L225.72,123.70685298665364L225.78,120.2532683919271L226.48,78.99610449218748L226.6,72.09782950846355L226.61999999999998,70.93731673177084L226.76,62.64041341145834L226.94,52.07469091796875L227.34,28.41067154947916L227.58,141.5235694580078L227.89999999999998,122.46947196451822L227.94,120.16507958984374L227.95999999999998,118.96618339029948L228,116.62793798828125L228.12,109.59619197591145L228.2,104.8462225748698L228.3,98.99864807128905L228.42,92.09197501627604L228.52,86.20333723958333L228.67999999999998,76.8879532063802L229.1,52.190416992187494L229.38,35.483173014322915L229.6,149.63665134684246L229.8,137.82075697835288L229.88,133.1026850382487L229.9,131.91039973958334L230.46,98.96596114095053L230.64000000000001,88.39225341796875L230.79999999999998,79.09727970377604L231.1,61.54084912109374L231.12,60.38798478190104L231.35999999999999,46.43613387044269L231.98000000000002,136.80389866129556L232.16,126.22432604980469L232.29999999999998,118.07330436197917L232.42000000000002,110.9718134358724L232.48000000000002,107.44862154134114L232.5,106.27698376464843L232.6,100.43942610677084L232.78,89.94230053710938L232.94,80.58597998046874L233.07999999999998,72.36744417317709L233.1,71.20559147135417L233.14,68.84482446289061L233.34,56.990506835937495L233.4,53.4949608561198L233.44,51.215132568359365L233.94,148.29549991353352L234.04000000000002,142.51621134440103L234.16,135.48147947184245L234.24,130.77940696207682L234.98,87.48245874023436L235.10000000000002,80.4066835123698L235.14,78.1051122233073L235.16,76.94346956380208L235.18,75.76664591471354L235.3,68.8245155436198L235.62,49.764087809244785L235.74,42.84900944010417L235.76,41.62538981119792L236,27.75546988932291" style="fill: none;" fill="none"></path></g></g></g></g></g></g><g transform="translate(70, 178)" clip-path="url(#clip_1)"><clipPath id="clip_1"><rect width="260" height="22"></rect></clipPath><g><g><line x1="0" y1="0" x2="0" y2="5" style="visibility: inherit;" fill="rgb(0, 0, 0)" stroke="rgb(204, 204, 204)" stroke-width="1px"></line><line x1="20" y1="0" x2="20" y2="5" style="visibility: inherit;" fill="rgb(0, 0, 0)" stroke="rgb(204, 204, 204)" stroke-width="1px"></line><line x1="40" y1="0" x2="40" y2="5" style="visibility: inherit;" fill="rgb(0, 0, 0)" stroke="rgb(204, 204, 204)" stroke-width="1px"></line><line x1="60" y1="0" x2="60" y2="5" style="visibility: inherit;" fill="rgb(0, 0, 0)" stroke="rgb(204, 204, 204)" stroke-width="1px"></line><line x1="80" y1="0" x2="80" y2="5" style="visibility: inherit;" fill="rgb(0, 0, 0)" stroke="rgb(204, 204, 204)" stroke-width="1px"></line><line x1="100" y1="0" x2="100" y2="5" style="visibility: inherit;" fill="rgb(0, 0, 0)" stroke="rgb(204, 204, 204)" stroke-width="1px"></line><line x1="120" y1="0" x2="120" y2="5" style="visibility: inherit;" fill="rgb(0, 0, 0)" stroke="rgb(204, 204, 204)" stroke-width="1px"></line><line x1="140" y1="0" x2="140" y2="5" style="visibility: inherit;" fill="rgb(0, 0, 0)" stroke="rgb(204, 204, 204)" stroke-width="1px"></line><line x1="160" y1="0" x2="160" y2="5" style="visibility: inherit;" fill="rgb(0, 0, 0)" stroke="rgb(204, 204, 204)" stroke-width="1px"></line><line x1="180" y1="0" x2="180" y2="5" style="visibility: inherit;" fill="rgb(0, 0, 0)" stroke="rgb(204, 204, 204)" stroke-width="1px"></line><line x1="200" y1="0" x2="200" y2="5" style="visibility: inherit;" fill="rgb(0, 0, 0)" stroke="rgb(204, 204, 204)" stroke-width="1px"></line><line x1="220" y1="0" x2="220" y2="5" style="visibility: inherit;" fill="rgb(0, 0, 0)" stroke="rgb(204, 204, 204)" stroke-width="1px"></line><line x1="240" y1="0" x2="240" y2="5" style="visibility: inherit;" fill="rgb(0, 0, 0)" stroke="rgb(204, 204, 204)" stroke-width="1px"></line><line x1="260" y1="0" x2="260" y2="5" style="visibility: inherit;" fill="rgb(0, 0, 0)" stroke="rgb(204, 204, 204)" stroke-width="1px"></line></g><g transform="translate(0, 8)"><text x="0" y="0" dx="0em" dy="0.95em" style="text-anchor: middle; visibility: hidden; font-family: &quot;Helvetica Neue&quot;, sans-serif; font-size: 12px; font-weight: 200;" fill="rgb(50, 49, 63)" stroke="none" stroke-width="1px">-1k</text><text x="20" y="0" dx="0em" dy="0.95em" style="text-anchor: middle; visibility: inherit; font-family: &quot;Helvetica Neue&quot;, sans-serif; font-size: 12px; font-weight: 200;" fill="rgb(50, 49, 63)" stroke="none" stroke-width="1px">0</text><text x="40" y="0" dx="0em" dy="0.95em" style="text-anchor: middle; visibility: hidden; font-family: &quot;Helvetica Neue&quot;, sans-serif; font-size: 12px; font-weight: 200;" fill="rgb(50, 49, 63)" stroke="none" stroke-width="1px">1k</text><text x="60" y="0" dx="0em" dy="0.95em" style="text-anchor: middle; visibility: inherit; font-family: &quot;Helvetica Neue&quot;, sans-serif; font-size: 12px; font-weight: 200;" fill="rgb(50, 49, 63)" stroke="none" stroke-width="1px">2k</text><text x="80" y="0" dx="0em" dy="0.95em" style="text-anchor: middle; visibility: hidden; font-family: &quot;Helvetica Neue&quot;, sans-serif; font-size: 12px; font-weight: 200;" fill="rgb(50, 49, 63)" stroke="none" stroke-width="1px">3k</text><text x="100" y="0" dx="0em" dy="0.95em" style="text-anchor: middle; visibility: inherit; font-family: &quot;Helvetica Neue&quot;, sans-serif; font-size: 12px; font-weight: 200;" fill="rgb(50, 49, 63)" stroke="none" stroke-width="1px">4k</text><text x="120" y="0" dx="0em" dy="0.95em" style="text-anchor: middle; visibility: hidden; font-family: &quot;Helvetica Neue&quot;, sans-serif; font-size: 12px; font-weight: 200;" fill="rgb(50, 49, 63)" stroke="none" stroke-width="1px">5k</text><text x="140" y="0" dx="0em" dy="0.95em" style="text-anchor: middle; visibility: inherit; font-family: &quot;Helvetica Neue&quot;, sans-serif; font-size: 12px; font-weight: 200;" fill="rgb(50, 49, 63)" stroke="none" stroke-width="1px">6k</text><text x="160" y="0" dx="0em" dy="0.95em" style="text-anchor: middle; visibility: hidden; font-family: &quot;Helvetica Neue&quot;, sans-serif; font-size: 12px; font-weight: 200;" fill="rgb(50, 49, 63)" stroke="none" stroke-width="1px">7k</text><text x="180" y="0" dx="0em" dy="0.95em" style="text-anchor: middle; visibility: inherit; font-family: &quot;Helvetica Neue&quot;, sans-serif; font-size: 12px; font-weight: 200;" fill="rgb(50, 49, 63)" stroke="none" stroke-width="1px">8k</text><text x="200" y="0" dx="0em" dy="0.95em" style="text-anchor: middle; visibility: hidden; font-family: &quot;Helvetica Neue&quot;, sans-serif; font-size: 12px; font-weight: 200;" fill="rgb(50, 49, 63)" stroke="none" stroke-width="1px">9k</text><text x="220" y="0" dx="0em" dy="0.95em" style="text-anchor: middle; visibility: inherit; font-family: &quot;Helvetica Neue&quot;, sans-serif; font-size: 12px; font-weight: 200;" fill="rgb(50, 49, 63)" stroke="none" stroke-width="1px">10k</text><text x="240" y="0" dx="0em" dy="0.95em" style="text-anchor: middle; visibility: hidden; font-family: &quot;Helvetica Neue&quot;, sans-serif; font-size: 12px; font-weight: 200;" fill="rgb(50, 49, 63)" stroke="none" stroke-width="1px">11k</text><text x="260" y="0" dx="0em" dy="0.95em" style="text-anchor: middle; visibility: hidden; font-family: &quot;Helvetica Neue&quot;, sans-serif; font-size: 12px; font-weight: 200;" fill="rgb(50, 49, 63)" stroke="none" stroke-width="1px">12k</text></g><line x1="0" y1="0" x2="260" y2="0" fill="rgb(0, 0, 0)" stroke="rgb(204, 204, 204)" stroke-width="1px"></line></g></g></g></g></svg>