<svg viewBox="0 0 330 200" xmlns="http://www.w3.org/2000/svg"><g><g><g><g><g><line x1="50" y1="178" x2="45" y2="178" style="visibility: inherit;" fill="rgb(0, 0, 0)" stroke="rgb(204, 204, 204)" stroke-width="1px"></line><line x1="50" y1="158.22222222222223" x2="45" y2="158.22222222222223" style="visibility: inherit;" fill="rgb(0, 0, 0)" stroke="rgb(204, 204, 204)" stroke-width="1px"></line><line x1="50" y1="138.44444444444446" x2="45" y2="138.44444444444446" style="visibility: inherit;" fill="rgb(0, 0, 0)" stroke="rgb(204, 204, 204)" stroke-width="1px"></line><line x1="50" y1="118.66666666666667" x2="45" y2="118.66666666666667" style="visibility: inherit;" fill="rgb(0, 0, 0)" stroke="rgb(204, 204, 204)" stroke-width="1px"></line><line x1="50" y1="98.8888888888889" x2="45" y2="98.8888888888889" style="visibility: inherit;" fill="rgb(0, 0, 0)" stroke="rgb(204, 204, 204)" stroke-width="1px"></line><line x1="50" y1="79.1111111111111" x2="45" y2="79.1111111111111" style="visibility: inherit;" fill="rgb(0, 0, 0)" stroke="rgb(204, 204, 204)" stroke-width="1px"></line><line x1="50" y1="59.33333333333334" x2="45" y2="59.33333333333334" style="visibility: inherit;" fill="rgb(0, 0, 0)" stroke="rgb(204, 204, 204)" stroke-width="1px"></line><line x1="50" y1="39.55555555555554" x2="45" y2="39.55555555555554" style="visibility: inherit;" fill="rgb(0, 0, 0)" stroke="rgb(204, 204, 204)" stroke-width="1px"></line><line x1="50" y1="19.7777777777778" x2="45" y2="19.7777777777778" style="visibility: inherit;" fill="rgb(0, 0, 0)" stroke="rgb(204, 204, 204)" stroke-width="1px"></line><line x1="50" y1="0" x2="45" y2="0" style="visibility: inherit;" fill="rgb(0, 0, 0)" stroke="rgb(204, 204, 204)" stroke-width="1px"></line></g><g transform="translate(40, 0)"><text x="0" y="178" dx="0em" dy="0.3em" style="text-anchor: end; visibility: hidden; font-family: &quot;Helvetica Neue&quot;, sans-serif; font-size: 12px; font-weight: 200;" fill="rgb(50, 49, 63)" stroke="none" stroke-width="1px">-100</text><text x="0" y="158.22222222222223" dx="0em" dy="0.3em" style="text-anchor: end; visibility: inherit; font-family: &quot;Helvetica Neue&quot;, sans-serif; font-size: 12px; font-weight: 200;" fill="rgb(50, 49, 63)" stroke="none" stroke-width="1px">0</text><text x="0" y="138.44444444444446" dx="0em" dy="0.3em" style="text-anchor: end; visibility: hidden; font-family: &quot;Helvetica Neue&quot;, sans-serif; font-size: 12px; font-weight: 200;" fill="rgb(50, 49, 63)" stroke="none" stroke-width="1px">100</text><text x="0" y="118.66666666666667" dx="0em" dy="0.3em" style="text-anchor: end; visibility: inherit; font-family: &quot;Helvetica Neue&quot;, sans-serif; font-size: 12px; font-weight: 200;" fill="rgb(50, 49, 63)" stroke="none" stroke-width="1px">200</text><text x="0" y="98.8888888888889" dx="0em" dy="0.3em" style="text-anchor: end; visibility: hidden; font-family: &quot;Helvetica Neue&quot;, sans-serif; font-size: 12px; font-weight: 200;" fill="rgb(50, 49, 63)" stroke="none" stroke-width="1px">300</text><text x="0" y="79.1111111111111" dx="0em" dy="0.3em" style="text-anchor: end; visibility: inherit; font-family: &quot;Helvetica Neue&quot;, sans-serif; font-size: 12px; font-weight: 200;" fill="rgb(50, 49, 63)" stroke="none" stroke-width="1px">400</text><text x="0" y="59.33333333333334" dx="0em" dy="0.3em" style="text-anchor: end; visibility: hidden; font-family: &quot;Helvetica Neue&quot;, sans-serif; font-size: 12px; font-weight: 200;" fill="rgb(50, 49, 63)" stroke="none" stroke-width="1px">500</text><text x="0" y="39.55555555555554" dx="0em" dy="0.3em" style="text-anchor: end; visibility: inherit; font-family: &quot;Helvetica Neue&quot;, sans-serif; font-size: 12px; font-weight: 200;" fill="rgb(50, 49, 63)" stroke="none" stroke-width="1px">600</text><text x="0" y="19.7777777777778" dx="0em" dy="0.3em" style="text-anchor: end; visibility: hidden; font-family: &quot;Helvetica Neue&quot;, sans-serif; font-size: 12px; font-weight: 200;" fill="rgb(50, 49, 63)" stroke="none" stroke-width="1px">700</text><text x="0" y="0" dx="0em" dy="0.3em" style="text-anchor: end; visibility: hidden; font-family: &quot;Helvetica Neue&quot;, sans-serif; font-size: 12px; font-weight: 200;" fill="rgb(50, 49, 63)" stroke="none" stroke-width="1px">800</text></g><line x1="50" y1="0" x2="50" y2="178" fill="rgb(0, 0, 0)" stroke="rgb(204, 204, 204)" stroke-width="1px"></line></g></g><g transform="translate(50, 0)" clip-path="url(#clip_0)"><clipPath id="clip_0"><rect width="280" height="178"></rect></clipPath><g><g><g><line x1="0" y1="0" x2="0" y2="178" fill="rgb(0, 0, 0)" stroke="rgb(60, 60, 60)" stroke-width="1px" opacity="0.25"></line><line x1="21.53846153846154" y1="0" x2="21.53846153846154" y2="178" fill="rgb(0, 0, 0)" stroke="rgb(60, 60, 60)" stroke-width="1px" opacity="0.25"></line><line x1="43.07692307692308" y1="0" x2="43.07692307692308" y2="178" fill="rgb(0, 0, 0)" stroke="rgb(60, 60, 60)" stroke-width="1px" opacity="0.25"></line><line x1="64.61538461538461" y1="0" x2="64.61538461538461" y2="178" fill="rgb(0, 0, 0)" stroke="rgb(60, 60, 60)" stroke-width="1px" opacity="0.25"></line><line x1="86.15384615384616" y1="0" x2="86.15384615384616" y2="178" fill="rgb(0, 0, 0)" stroke="rgb(60, 60, 60)" stroke-width="1px" opacity="0.25"></line><line x1="107.6923076923077" y1="0" x2="107.6923076923077" y2="178" fill="rgb(0, 0, 0)" stroke="rgb(60, 60, 60)" stroke-width="1px" opacity="0.25"></line><line x1="129.23076923076923" y1="0" x2="129.23076923076923" y2="178" fill="rgb(0, 0, 0)" stroke="rgb(60, 60, 60)" stroke-width="1px" opacity="0.25"></line><line x1="150.76923076923077" y1="0" x2="150.76923076923077" y2="178" fill="rgb(0, 0, 0)" stroke="rgb(60, 60, 60)" stroke-width="1px" opacity="0.25"></line><line x1="172.30769230769232" y1="0" x2="172.30769230769232" y2="178" fill="rgb(0, 0, 0)" stroke="rgb(60, 60, 60)" stroke-width="1px" opacity="0.25"></line><line x1="193.84615384615384" y1="0" x2="193.84615384615384" y2="178" fill="rgb(0, 0, 0)" stroke="rgb(60, 60, 60)" stroke-width="1px" opacity="0.25"></line><line x1="215.3846153846154" y1="0" x2="215.3846153846154" y2="178" fill="rgb(0, 0, 0)" stroke="rgb(60, 60, 60)" stroke-width="1px" opacity="0.25"></line><line x1="236.92307692307693" y1="0" x2="236.92307692307693" y2="178" fill="rgb(0, 0, 0)" stroke="rgb(60, 60, 60)" stroke-width="1px" opacity="0.25"></line><line x1="258.46153846153845" y1="0" x2="258.46153846153845" y2="178" fill="rgb(0, 0, 0)" stroke="rgb(60, 60, 60)" stroke-width="1px" opacity="0.25"></line><line x1="280" y1="0" x2="280" y2="178" fill="rgb(0, 0, 0)" stroke="rgb(60, 60, 60)" stroke-width="1px" opacity="0.25"></line></g><g><line x1="0" y1="178" x2="280" y2="178" fill="rgb(0, 0, 0)" stroke="rgb(60, 60, 60)" stroke-width="1px" opacity="0.25"></line><line x1="0" y1="158.22222222222223" x2="280" y2="158.22222222222223" fill="rgb(0, 0, 0)" stroke="rgb(60, 60, 60)" stroke-width="1px" opacity="0.25"></line><line x1="0" y1="138.44444444444446" x2="280" y2="138.44444444444446" fill="rgb(0, 0, 0)" stroke="rgb(60, 60, 60)" stroke-width="1px" opacity="0.25"></line><line x1="0" y1="118.66666666666667" x2="280" y2="118.66666666666667" fill="rgb(0, 0, 0)" stroke="rgb(60, 60, 60)" stroke-width="1px" opacity="0.25"></line><line x1="0" y1="98.8888888888889" x2="280" y2="98.8888888888889" fill="rgb(0, 0, 0)" stroke="rgb(60, 60, 60)" stroke-width="1px" opacity="0.25"></line><line x1="0" y1="79.1111111111111" x2="280" y2="79.1111111111111" fill="rgb(0, 0, 0)" stroke="rgb(60, 60, 60)" stroke-width="1px" opacity="0.25"></line><line x1="0" y1="59.33333333333334" x2="280" y2="59.33333333333334" fill="rgb(0, 0, 0)" stroke="rgb(60, 60, 60)" stroke-width="1px" opacity="0.25"></line><line x1="0" y1="39.55555555555554" x2="280" y2="39.55555555555554" fill="rgb(0, 0, 0)" stroke="rgb(60, 60, 60)" stroke-width="1px" opacity="0.25"></line><line x1="0" y1="19.7777777777778" x2="280" y2="19.7777777777778" fill="rgb(0, 0, 0)" stroke="rgb(60, 60, 60)" stroke-width="1px" opacity="0.25"></line><line x1="0" y1="0" x2="280" y2="0" fill="rgb(0, 0, 0)" stroke="rgb(60, 60, 60)" stroke-width="1px" opacity="0.25"></line></g></g></g><g><g><line x1="0" y1="158.22222222222223" x2="280" y2="158.22222222222223" fill="rgb(0, 0, 0)" stroke="rgb(153, 153, 153)" stroke-width="1.5px"></line></g></g><g><g><line x1="21.53846153846154" y1="0" x2="21.53846153846154" y2="178" fill="rgb(0, 0, 0)" stroke="rgb(153, 153, 153)" stroke-width="1.5px"></line></g></g><g><g><g><g><g><path stroke="rgb(255, 112, 67)" stroke-width="2px" d="M21.947692307692307,116.12564954969619L22.076923076923077,110.75194243537055L22.464615384615385,96.26100143744021L22.529230769230768,88.04767399856468L22.766153846153845,77.61805463562789L23.08923076923077,63.753246323844664L23.153846153846153,54.26096992283499L23.584615384615386,38.20948146068662L24.89846153846154,61.740920185368836L24.963076923076922,74.15979826220037L25.156923076923075,76.91763506760813L25.501538461538463,70.36284711776757L26.49230769230769,98.40224631831724L26.6,112.65545187520132L27.052307692307693,110.46388882418736L27.16,106.59801379327806L27.31076923076923,100.72024308036205L27.44,94.15603789007949L28.193846153846152,72.50334150034789L28.236923076923077,58.494863821819735L28.40923076923077,46.04962303853546L28.861538461538462,82.82880622293227L29.033846153846156,100.87100903641324L29.46461538461538,101.64256222988793L30.627692307692307,75.12082223317105L30.64923076923077,58.71244446262148L31.080000000000002,93.04255994671094L31.144615384615385,112.14356844301695L31.46769230769231,116.21419797201872L31.532307692307693,117.18443246341658L31.553846153846152,117.2660384900681L31.76923076923077,112.32699279101972L32.17846153846154,99.88832927660472L32.63076923076923,81.97490064430183L33.104615384615386,60.33668540305972L33.68615384615385,87.61351675864073L33.901538461538465,98.98808401609419L34.03076923076923,102.82602376375127L34.181538461538466,101.6589174783068L34.20307692307692,100.45667671150547L34.91384615384615,83.29254119651353L35.215384615384615,65.98176331634846L35.36615384615385,52.06899993457665L35.387692307692305,43.21704237457706L35.43076923076923,36.90297612938505L35.495384615384616,31.610599587891244L35.53846153846153,81.26316573824212L35.79692307692308,105.06280159734249L36.01230769230769,114.334814530579L36.93846153846154,98.25645694195876L37.110769230769236,84.58366751363326L37.28307692307692,72.33701241135613L37.75692307692307,53.85749113818764L37.84307692307692,95.10090915829082L38.036923076923074,115.25854457267813L38.12307692307692,125.33735150896442L38.16615384615384,130.35869604128473L38.36,128.8197282041977L38.46769230769231,125.3852276153352L38.51076923076923,122.31917781540322L38.61846153846154,117.947989965609L38.66153846153846,114.2959069350945L38.747692307692304,110.061078150857L38.83384615384615,105.47669607128674L38.963076923076926,99.66162425084495L38.98461538461539,95.66459502034202L39.48,81.56835306797775L39.566153846153846,71.07163054738389L40.276923076923076,102.87845156451434L40.42769230769231,118.38577971963309L40.55692307692308,124.61161171198819L41.09538461538462,115.5303383379568L41.13846153846154,109.06031717920638L41.31076923076923,101.07433109528425L41.612307692307695,89.0656467800004L41.849230769230765,76.18702901852107L41.91384615384615,66.90957222882098L42.10769230769231,56.72075722618146L42.28,46.51718621504915L42.473846153846154,35.74191578718924L42.495384615384616,84.22128643520418L42.62461538461538,110.20332541947212L42.646153846153844,125.27756307191439L42.753846153846155,131.75037257350888L43.14153846153847,126.3263045716661L43.206153846153846,121.52609837613768L43.4,113.98492920797428L44.45538461538462,84.1513162487429L44.52,64.72180380089503L44.56307692307692,52.0255698564919L44.64923076923077,42.330216425613884L44.778461538461535,33.43018188444819L44.886153846153846,81.29605791539116L45.10153846153847,104.86250852174989L45.23076923076923,115.88699924011156L45.33846153846154,119.92871873623274L45.55384615384615,117.10613887520319L46.45846153846154,93.588044951641L46.54461538461538,77.41788784338044L46.566153846153846,67.19761676635811L46.58769230769231,60.55380069132531L46.97538461538462,47.20427840741672L47.25538461538462,88.48413978818374L47.535384615384615,106.49806591772361L48.353846153846156,97.50917868908904L48.590769230769226,86.37819037317564L48.65538461538461,78.15319341227344L48.72,71.65709795925642L49.15076923076923,57.365093410970516L49.279999999999994,45.65624761559272L49.43076923076923,34.93937156197717L49.90461538461538,73.25342736698231L49.96923076923076,94.68231474809737L50.206153846153846,101.83592510374125L50.27076923076923,104.55466672945394L50.33538461538461,104.61289392330603L50.35692307692308,104.12908365758605L51.39076923076923,78.7992641051419L51.519999999999996,60.459844270376834L51.541538461538465,48.9265139298476L52.01538461538462,86.88176417252447L52.27384615384615,103.37132757361016L52.489230769230765,108.03420191254718L52.575384615384614,108.75835736985903L53.135384615384616,95.5716630764293L53.372307692307686,81.8775870928194L53.54461538461538,69.48027089718468L53.673846153846156,58.88839756435247L54.363076923076925,92.35918315802337L54.449230769230766,110.35282591450803L54.987692307692306,108.00615493998086L55.332307692307694,98.17192815279061L55.353846153846156,91.735576542282L55.676923076923075,79.99562386590739L55.76307692307692,70.83744837553404L56.107692307692304,56.944935333914174L56.12923076923077,48.075258509376255L56.60307692307693,87.95136931867914L56.81846153846154,106.63481593528302L56.88307692307692,116.27393033265419L56.99076923076923,119.42169501871143L57.05538461538461,119.7522140462746L57.48615384615385,109.42851470706164L57.78769230769231,95.83305568296095L57.98153846153846,82.94847370925575L58.06769230769231,73.10757904434683L58.11076923076923,66.14086307330949L58.15384615384616,60.89363503148569L58.21846153846154,56.17786103191226L58.36923076923077,49.65574162999803L58.56307692307693,41.01961294674882L58.864615384615384,85.2680559591029L58.90769230769231,110.7689979261833L58.972307692307695,124.47402220948602L59.08,130.07613537837173L59.144615384615385,131.84619993768928L59.16615384615385,132.37825965581018L59.596923076923076,122.18174797556077L59.79076923076923,111.33183139167326L59.92,101.66529064815501L60.09230769230769,91.66693654167078L60.286153846153844,80.9195215441431L60.43692307692308,70.79077141172891L60.88923076923077,53.60408860658595L60.97538461538461,41.20500188356962L61.190769230769234,85.35974210711117L61.27692307692308,109.74381539094857L61.470769230769235,119.634204802603L61.75076923076923,118.71272117800277L61.815384615384616,116.56329331064282L61.94461538461538,112.07998298508359L61.987692307692306,108.33878086092864L62.84923076923077,84.99401471881411L63.215384615384615,62.02125485993432L63.430769230769236,99.97249258279341L63.495384615384616,121.15638040685378L63.53846153846154,132.81378846614462L63.926153846153845,130.28393291041593L64.22769230769231,121.35965705527734L64.27076923076923,114.94918466827924L64.65846153846154,101.60688805248665L64.74461538461539,91.48016958821941L64.91692307692307,81.16675444932923L65.28307692307692,66.00355608756628L65.41230769230769,53.71803485696687L65.92923076923077,90.77717457222049L66.20923076923077,106.18903354378803L66.27384615384615,113.84877101060441L66.2953846153846,117.9071526210111L66.38153846153845,118.21499853603981L66.4676923076923,116.28592228514385L66.55384615384615,113.02560165667659L66.70461538461538,107.35390553610665L67.0276923076923,96.04297567300948L67.75999999999999,71.28124970502095L67.84615384615384,54.29055597535633L67.99692307692308,40.37237432957144L68.19076923076923,84.31707188913826L68.66461538461539,99.0493452656444L68.70769230769231,106.8230897711488L68.75076923076924,110.42164935422574L68.92307692307693,108.34746910472295L69.09538461538462,102.87486704226086L69.18153846153847,97.47925787184089L69.6123076923077,83.68864928690662L69.72,72.75872635599814L69.74153846153847,65.6838850106475L69.78461538461538,60.36718012748226L69.84923076923077,55.59575583039559L69.95692307692308,50.08316188582417L70.1076923076923,43.05043500041813L70.1723076923077,37.242164320563376L70.28,31.09714391568872L70.68923076923078,74.54983789699354L70.90461538461538,95.33043941354335L71.03384615384616,104.61668697440639L71.16307692307693,107.02335973238688L71.24923076923076,106.34201518839048L71.50769230769231,99.58059203404122L71.52923076923076,94.99746625015563L72.06769230769231,79.00682968498921L72.26153846153846,64.62675183660117L73.0153846153846,94.65669312398761L73.03692307692307,112.14272391611348L73.08,121.56604724571844L74.0276923076923,103.80639473197968L74.2,88.94112099174858L74.35076923076923,76.33230993771407L74.39384615384614,67.71899181115276L74.43692307692308,61.491088771587485L74.54461538461538,55.08603694350805L75.08307692307692,95.30328647952713L75.10461538461539,118.90846854095521L75.32000000000001,127.79462095340342L75.36307692307692,132.07186314821394L75.47076923076924,131.99185029723998L75.77230769230769,124.52449003402975L75.90153846153846,116.84738672875119L76.09538461538462,107.4498566791778L76.41846153846154,93.8151652282098L76.50461538461538,83.51427977386166L76.54769230769232,76.28048043484651L77.08615384615385,58.70641700439748L77.56,93.76331833550525L77.68923076923078,111.60613832660697L78.05538461538461,113.3323655182081L78.18461538461538,111.19542469558199L78.20615384615385,109.38848154260961L78.50769230769231,100.87055105664216L78.74461538461539,89.8956019827266L79.24,71.09567466619848L79.39076923076922,56.09069261438921L79.49846153846154,44.417437812557125L79.77846153846154,87.81420225391342L79.92923076923077,110.13301292949649L80.2523076923077,115.54172313584459L80.51076923076923,112.40494984287828L80.57538461538462,108.9184015734787L80.87692307692308,99.41692806973826L81.63076923076923,75.15920355408252L81.65230769230769,60.08576431994952L81.67384615384616,50.506194269053054L82.06153846153846,92.53522775205819L82.38461538461539,109.80774458851789L83.41846153846153,94.65440858036769L83.6123076923077,80.78514414453137L83.80615384615385,67.69433323151051L83.93538461538462,56.64907693543408L84.3876923076923,96.19903961710492L84.43076923076923,118.84654595925491L84.4523076923077,131.908797187505L85.46461538461539,114.8505650421037L85.63692307692307,100.37751499639937L86.13230769230769,79.43227635895073L86.41230769230769,59.95917836962391L86.75692307692307,97.13318840639079L86.82153846153847,117.86320820306841L86.99384615384616,126.01467404700381L87.05846153846153,129.30340688588456L87.5753846153846,118.53057619533283L87.66153846153847,109.93882076060248L87.7046153846154,103.73438159481634L88.3076923076923,85.13397650463287L88.80307692307693,61.74293549045332L89.12615384615384,97.1251254062783L89.51384615384616,108.76415911963504L89.64307692307693,112.54339465526627L89.9876923076923,106.27430073630212L90.3753846153846,92.90333833566147L90.39692307692307,84.35616934254271L90.5476923076923,75.52802563438846L90.6123076923077,68.60777545007753L91.12923076923077,51.66364742065416L91.34461538461538,93.7559910748697L91.40923076923077,117.39806403579098L91.43076923076923,131.05326662717664L91.47384615384615,138.17579705651974L91.49538461538461,141.91346688137278L92.03384615384614,130.79247879690092L92.74461538461539,106.53002845652597L92.91692307692308,87.6864636884989L93.21846153846154,68.88643018792575L93.24000000000001,57.0699716652728L93.60615384615384,40.91057067277478L94.23076923076924,73.41262001868225L94.27384615384615,91.84236582088816L94.48923076923077,97.5305176641909L94.85538461538461,91.8492210260319L94.96307692307693,85.73308448193858L95.43692307692308,70.32414707588188L95.60923076923078,56.81441858407081L95.84615384615385,42.83228792344596L95.88923076923078,33.37646775189745L96.04,81.71022564388205L96.16923076923078,107.47401873119144L96.32,119.19426229258856L96.44923076923078,123.00192024990208L96.51384615384615,123.67833446873466L96.88,114.90470841778594L97.13846153846154,103.19399364333648L97.20307692307692,94.56668259008175L97.69846153846154,76.97491667210461L97.74153846153845,65.34002232314124L97.87076923076923,55.11802169466597L97.95692307692308,46.82657614613987L98.30153846153846,33.23369666424642L98.66769230769232,74.02767443300966L99.09846153846154,87.71215561737957L99.48615384615385,86.17451358527148L99.52923076923076,84.1686242481681L99.57230769230769,81.87354900636613L99.63692307692308,78.8759452946617L99.70153846153846,75.4304605687241L100.06769230769231,64.08737264114765L100.30461538461539,51.266279704480255L100.60615384615386,35.932627251941625L101.29538461538462,67.93889981036637L101.8123076923077,74.0222178701608L101.89846153846153,75.50023835556004L101.94153846153846,75.30504541133948L102.07076923076923,71.89997307471168L102.13538461538462,68.22037650433222L102.52307692307693,56.17103748029032L102.80307692307693,41.783684391386004L102.97538461538463,87.81475233667825L103.25538461538463,108.25464723262762L103.36307692307693,117.78029989556615L103.7076923076923,114.75482510606798L103.81538461538462,110.20855191042898L103.85846153846154,106.38316719768969L104.07384615384616,98.62261594903916L104.16,91.75382738192349L104.78461538461539,71.6934374339284L104.8923076923077,56.91030866261397L105.04307692307692,44.21368731345382L105.99076923076923,71.60543764848894L106.16307692307693,83.5904975066281L106.31384615384616,86.95777821317824L106.4,86.75612344374896L106.63692307692307,80.57098675613653L106.76615384615384,73.56593903176352L106.89538461538461,66.06152077582892L107.36923076923077,49.48618302756336L107.60615384615384,33.49888858172895L107.71384615384615,80.63931402807926L107.9076923076923,103.92402646616397L107.92923076923077,117.34864008895403L108.1876923076923,118.7944563108594L108.42461538461538,113.61729631798265L108.48923076923077,108.85618795789028L109.71692307692308,74.50446928515083L109.82461538461538,51.12015037534398L109.84615384615384,36.55008827208141L110.06153846153848,81.87134261914619L111.63384615384615,68.72010629848424L111.87076923076924,54.731526995236365L111.89230769230768,45.783930465805014L111.93538461538462,39.289695410559375L111.97846153846154,34.28925404104049L112.04307692307692,29.629495566985412L112.06461538461538,26.288288540278046L112.60307692307691,70.16107073294505L112.71076923076922,93.72621867945887L112.77538461538461,106.19516682236716L112.94769230769231,109.24055422210952L113.37846153846155,100.01182781321363L113.44307692307692,92.81276612152192L113.46461538461539,87.94166382330377L113.78769230769231,76.6872465849979L114.13230769230769,61.08416381471403L114.26153846153845,48.37086444551244L114.34769230769231,38.52043913171721L114.54153846153845,27.619172875731692L114.58461538461539,19.948877965890404L114.77846153846154,70.28076228910999L114.86461538461539,98.25610998170167L115.10153846153845,108.93518863984566L115.66153846153846,100.83135048859491L115.85538461538462,90.98772261954582L116.17846153846155,76.73456076356776L116.32923076923076,64.27577031230734L116.45846153846153,53.46196272991912L116.54461538461538,44.76522565227441L116.56615384615385,38.99498456671185L116.97538461538461,85.04079243510903L117.03999999999999,110.99770150815743L117.81538461538462,106.57710270285455L117.94461538461539,100.60133798347488L118.2676923076923,88.63932392181236L118.31076923076922,80.35554495530096L118.67692307692309,65.93646114201738L118.69846153846153,56.72395643781461L119.1076923076923,40.634816082740855L119.12923076923076,30.42601378158895L119.19384615384615,22.63550724898809L119.3876923076923,72.98611967057342L119.6246153846154,97.09515192522817L120.16307692307693,97.63811844463343L120.22769230769231,96.2696173504172L120.46461538461539,89.33570582149164L120.52923076923076,83.49123718647138L120.57230769230769,78.87260163262935L120.61538461538463,75.00225436607937L121.24,56.535684054109424L121.6923076923077,93.89154891784433L121.84307692307692,112.36089892807205L122.0153846153846,119.00855544299775L122.10153846153847,120.75415814101565L122.2523076923077,117.88931380008248L122.27384615384616,115.60746843412934L122.2953846153846,113.69035115053836L122.51076923076923,106.96179139236295L123.07076923076923,88.40824226163305L123.17846153846153,74.47500774847289L123.52307692307693,57.19876582529902L123.76,40.69634223172454L123.84615384615384,28.58241335769793L123.86769230769231,20.751649620521533L124.04,71.8524818377426L124.16923076923077,99.17208548393899L124.23384615384616,113.88588900602095L124.42769230769231,117.65097490480613L124.51384615384616,117.64314835162935L124.66461538461537,113.72831429038298L124.68615384615384,110.81385318468986L124.81538461538462,105.69953567926011L124.94461538461537,99.26877848220883L124.9876923076923,94.29521191354407L125.05230769230769,89.64527705047018L125.80615384615385,67.33716031665362L126.06461538461538,47.20705888530469L126.47384615384615,84.94078596323575L126.96923076923078,94.6506686536793L127.4,89.27503905028048L127.91692307692308,72.62023149223427L128.26153846153846,53.637651644906555L128.43384615384616,37.784999027308515L128.6276923076923,83.72877278437286L128.69230769230768,109.61162013967211L128.73538461538462,124.01862188442176L128.75692307692307,132.09269323834621L129.70461538461538,112.26664157777334L129.83384615384614,97.03464770708067L129.89846153846153,86.2119284083196L130.04923076923077,75.7833109349657L130.32923076923078,62.20283638736831L130.3723076923077,52.93378033719529L130.39384615384614,46.804870307351905L130.54461538461538,39.191978282501424L130.9323076923077,85.11232109425673L131.53538461538463,96.95573736955316L131.96615384615384,92.84706405801663L132.00923076923078,89.25226697213635L132.13846153846154,83.72531284712731L132.69846153846154,65.78276149299859L132.80615384615385,52.207134868889455L133.1723076923077,34.53494433279198L133.56,74.48452691597294L133.7323076923077,93.94460996197526L134.4,88.18351513625633L134.98153846153846,69.53439841552117L135.47692307692307,45.417422469451566L136.10153846153847,75.31122967253465L136.33846153846153,87.06331891246177L136.68307692307692,85.16279581796319L136.98461538461538,76.09540280544803L137.00615384615386,70.09889082606395L137.43692307692308,55.23056192619393L138.29846153846154,84.55974214432314L138.7076923076923,91.43610974514422L138.7723076923077,93.87667629087994L138.88,92.51083601541339L139.67692307692306,70.8639895107237L139.8276923076923,53.97418379975022L139.91384615384615,41.57097902985015L140.04307692307694,30.729204985184396L140.17230769230767,20.823531291891896L140.3446153846154,71.26672150747564L140.38769230769233,100.40330961753878L140.9046153846154,104.32993465018907L141.07692307692307,102.14827977340337L141.44307692307692,91.273271629233L141.59384615384616,80.7872718154304L141.85230769230768,67.73873852328603L141.89538461538461,58.7811263604994L142.0246153846154,50.04108722037951L142.28307692307692,38.02014251234925L142.39076923076922,27.983090769996323L142.60615384615386,77.24053989358418L142.82153846153847,101.1502349468927L143.4246153846154,99.62201811114778L143.46769230769232,97.5879960500654L143.55384615384614,94.11897840260869L143.87692307692308,83.59846825901315L144.76,54.129774043515525L144.82461538461538,34.76629237749819L145.2123076923077,73.9588149637168L145.6,87.27340003508773L145.96615384615387,85.65108781836167L146.0307692307692,82.99824315868193L146.13846153846154,78.59602770944527L146.24615384615387,73.12499626433903L146.63384615384615,59.594173702613816L146.6553846153846,50.91146304318286L147.02153846153848,36.053810768618064L147.08615384615382,25.471068145198615L147.2369230769231,76.315588671543L147.81846153846155,91.4808918856515L147.86153846153846,99.46127013030583L148.0123076923077,100.26856261529286L148.4,90.56800543484412L148.59384615384616,79.65485472032488L148.78769230769228,68.01916234391366L149.00307692307695,55.37827496711209L149.24,41.54173879754154L149.34769230769228,30.41882805500063L149.75692307692307,74.14327208663535L149.86461538461538,97.5269188455142L149.9076923076923,110.42429073873213L149.99384615384616,115.90023097807L150.1876923076923,114.0595940583047L150.57538461538462,102.70730637530399L151.00615384615384,84.54660374163204L151.11384615384617,70.80187554793062L151.3076923076923,57.45093788301185L151.43692307692308,46.02873758874807L151.54461538461538,36.33362693909956L151.60923076923075,28.817598255473627L152.08307692307693,73.19419879839052L152.47076923076924,89.53693328728085L152.55692307692308,97.07693562069748L152.66461538461536,98.77208346443238L153.00923076923075,90.69908145886777L153.0523076923077,84.71353125921821L153.3969230769231,72.04749180240591L153.44,63.31884479932549L153.56923076923076,54.69824182968209L153.6123076923077,48.387416886003706L153.65538461538463,43.45486343455363L153.91384615384615,33.67670104684328L153.9569230769231,26.66910482949487L154,21.319797153339294L154.4953846153846,66.40040323503743L154.68923076923076,88.3372868900242L154.75384615384615,99.80905928136696L155.09846153846155,97.56879703257886L155.3353846153846,89.95250809150912L155.37846153846155,84.24516243411556L155.5076923076923,77.37924063538252L155.7876923076923,65.89550732610797L155.89538461538461,56.18043476675854L156.17538461538462,42.98513954929123L157.01538461538462,74.2639412192666L157.51076923076923,79.95129439193322L157.59692307692308,81.08528070417034L157.61846153846156,81.1936524177279L157.76923076923077,77.26680671213849L158.13538461538462,65.24390721521712L158.3723076923077,51.7675554293907L158.60923076923078,37.41071609183581L158.76,24.825349631229955L158.88923076923078,75.33069943327901L159.40615384615384,91.92830736884326L160.59076923076924,70.61613280455248L160.6769230769231,55.54361593490164L160.9569230769231,39.11510966510764L161.28,82.18669236902443L161.4523076923077,103.45774350979357L161.47384615384615,115.65727971183318L161.56,120.69538114632735L161.77538461538464,118.01393809263581L161.99076923076925,110.69597358691829L162.0123076923077,105.72718498222909L162.03384615384616,102.17389657418988L162.20615384615385,95.4726677784983L162.6369230769231,80.02006833202954L163.15384615384616,57.065482948002455L163.30461538461537,39.30347764857578L163.36923076923077,26.932213271003093L163.58461538461538,75.42948382604588L163.77846153846153,99.37452307964446L163.84307692307692,112.03119437079016L164.05846153846153,113.91245049562946L164.16615384615383,112.17931240621014L164.94153846153844,90.59612840509762L165.13538461538462,72.5345943607669L165.17846153846153,60.557255205869865L165.26461538461538,51.076151463365676L165.39384615384617,41.95161215623119L165.45846153846153,34.75820644304429L165.60923076923078,26.443275970861293L165.78153846153845,78.59093871899478L165.84615384615384,108.17349280360824L166.01846153846154,121.32116586581294L166.10461538461539,126.93046652116962L166.68615384615384,114.90335217832677L166.7723076923077,105.38111829484328L167.00923076923078,93.3309798961768L167.24615384615385,79.80687016426859L167.5046153846154,64.84201657555766L168.3876923076923,94.17019258422349L168.71076923076924,103.18273022881101L169.0123076923077,100.53625619284216L169.1846153846154,94.3726312656185L169.48615384615385,82.68094583836415L169.5076923076923,75.09758421308794L170.0676923076923,55.64193106170694L170.36923076923077,35.95524609362141L170.90769230769232,71.5935510714289L171.53230769230768,76.33619338699796L171.59692307692308,77.46673979521962L171.72615384615386,74.73959842899808L172.11384615384614,62.76916639246829L172.15692307692308,54.44958837714765L172.54461538461538,39.1490418717747L172.63076923076923,27.67036332835994L173.16923076923078,68.45420732264529L173.32,88.8811906533528L173.6,93.66134685186412L173.72923076923078,93.08258336610979L174.28923076923078,77.84373779093325L174.61230769230767,60.07809673271966L174.7846153846154,44.832802646836655L174.80615384615385,35.11322466535893L175.28,78.64480494352959L175.36615384615385,102.49524719002184L175.66769230769233,108.77154538161292L175.92615384615385,105.61646734941047L175.9476923076923,103.14927347605253L176.09846153846155,97.63511134040583L176.4,86.29063399716884L176.52923076923076,76.04770355910861L176.72307692307692,64.69003489588184L176.91692307692307,52.708228511313834L176.96,44.366147556007064L176.98153846153846,38.78606868768409L177.39076923076922,24.459809561134733L177.45538461538462,76.26694221454544L177.64923076923077,102.15585284229063L177.92923076923074,110.2303478463249L178.44615384615386,101.29585717242168L178.79076923076923,86.75422996100508L179.02769230769232,71.67512586722805L179.41538461538462,52.25049131894794L179.63076923076923,34.851888541368766L179.6523076923077,23.834463474213635L179.78153846153847,75.88181594768734L179.9323076923077,103.09331130255339L180.01846153846154,117.11396861340052L180.04,124.95221956729162L180.06153846153848,129.0907942783524L180.5353846153846,118.90443517161214L180.55692307692308,112.20995024684748L180.64307692307693,105.89945956868141L180.68615384615387,100.955945462346L180.88,92.82790218409163L180.96615384615387,85.65331707542893L181.5907692307692,64.65804574655942L181.6123076923077,51.48527525609539L181.80615384615382,38.42421940712947L181.8707692307692,28.866117690284597L182.02153846153848,19.06862297962215L182.2369230769231,69.56796369120211L182.25846153846155,99.28486183966703L182.30153846153848,115.95331219792999L182.40923076923076,123.09537631615383L182.6246153846154,121.62672640004386L183.0123076923077,110.34906822934923L183.14153846153846,100.13288557194113L183.16307692307694,93.42608591673239L183.3353846153846,84.80809092178423L183.7446153846154,68.65658816852192L184.11076923076922,49.13599576135621L185.16615384615383,71.44216893576336L185.44615384615383,77.32121292829831L185.51076923076923,79.11230398310745L186.17846153846153,62.32751905436102L186.20000000000002,51.67799358322422L186.56615384615384,35.41396683135815L186.78153846153847,82.23344442139248L186.84615384615384,108.58517195204338L186.88923076923075,123.2417102675802L187.12615384615384,125.68975749735367L187.25538461538463,123.68925048094258L187.40615384615384,118.45506786669054L187.79384615384615,104.93087489427649L187.81538461538463,96.22546419980372L187.90153846153848,88.71135382370169L187.96615384615384,82.47203267182518L188.00923076923075,77.57244673525656L188.31076923076924,66.55451833412269L188.3969230769231,57.63567627825138L188.63384615384615,45.926274202280695L188.69846153846154,37.1603575118198L189.12923076923076,82.68768731932062L189.30153846153848,105.38839259721304L189.5169230769231,113.22161997673061L189.7753846153846,110.95413886971893L190.27076923076922,96.28504302777753L190.37846153846155,84.59382572986095L190.74461538461537,67.70328702862838L191.6923076923077,94.65054980642398L191.71384615384616,110.25021427648677L191.8,117.29942011048843L192.40307692307692,105.35914118847187L193.32923076923078,73.24761763409006L193.50153846153844,49.37027462776305L193.67384615384617,30.42461334436615L193.69538461538463,80.96009456632225L194.34153846153845,93.85885307225863L194.4276923076923,99.27381851653226L194.6646153846154,96.14711532866936L194.9230769230769,87.3171330752398L194.9876923076923,80.27646607018728L195.03076923076924,74.88845798412626L195.1169230769231,69.34511520931258L195.28923076923078,61.39542144763615L196.58153846153846,84.48009433993587L196.71076923076924,94.8714660956065L196.7323076923077,100.52046060354445L197.09846153846152,94.0319147627343L197.24923076923076,86.06658578797914L197.74461538461537,67.96288078051319L197.83076923076925,54.78998465320373L198.1323076923077,38.754847345741666L198.49846153846153,81.92108721332608L198.6276923076923,104.36038032821266L198.90769230769232,110.2843882175439L199.33846153846153,102.25299632028329L199.5323076923077,92.20006113852415L199.87692307692305,76.90487370568393L199.92,66.57131170170896L200.11384615384617,55.16056539559136L200.30769230769232,43.05180912667774L200.48,31.122152858819135L200.91076923076923,75.03320503858794L200.95384615384617,100.19809782784026L201.01846153846154,113.55924838583176L201.06153846153845,120.42462917744089L201.19076923076923,121.05048210987167L201.44923076923078,114.45464226614001L201.47076923076924,109.91258334688018L201.62153846153845,103.09022391763331L201.68615384615384,97.26236088595324L201.79384615384618,90.83738275878548L201.9446153846154,82.9332556101324L201.9876923076923,77.05030747849264L203.08615384615385,106.61905168815895L203.3230769230769,117.96298683293661L203.3876923076923,123.03818939793905L203.4953846153846,123.17413067977905L203.84,113.9570109870775L203.92615384615385,106.10295168230726L203.9476923076923,100.80836812309964L203.99076923076925,96.465479939615L204.20615384615385,88.03367530643392L204.2923076923077,80.6610995252232L204.37846153846152,73.90406116370163L204.5723076923077,64.61230258363764L204.59384615384613,58.45170739653675L204.70153846153846,51.82366652776581L204.7876923076923,45.533778746954624L204.80923076923077,41.173659012495705L205.1323076923077,29.83374266227173L205.79999999999998,67.80871697865643L206.05846153846153,83.60111275555325L206.20923076923077,89.00247768479896L206.31692307692308,89.32354908375264L206.61846153846153,81.35367464339394L206.81230769230768,71.34254609463011L207.1353846153846,56.60938806259405L207.3723076923077,41.3543711188064L207.52307692307693,28.10892540565888L207.54461538461538,19.570087068482138L207.73846153846154,72.11200356216133L208.55692307692308,81.59192419675861L208.62153846153845,85.51644577782079L208.6646153846154,86.71460536816818L208.72923076923078,85.70980212064049L208.7507692307692,84.52086589152493L208.83692307692309,81.48672968573962L209.52615384615385,60.99859694772849L209.82769230769233,40.524515916032925L210.53846153846155,71.87162802021437L210.6246153846154,88.36080356722844L211.01230769230767,87.76366928768951L211.12,84.49694964661543L211.44307692307692,73.79563501149357L211.5076923076923,65.63677743701767L211.57230769230767,58.98592437236685L212.0246153846154,42.75346543071177L212.26153846153846,26.60507746806249L212.56307692307692,71.65307147812482L212.77846153846153,92.8610991260242L212.84307692307692,103.83057999427773L212.92923076923074,108.05940706503452L213.29538461538462,100.6310608514339L213.33846153846153,95.0030527163725L213.40307692307692,89.88025537656829L213.85538461538462,74.57827296335415L213.89846153846153,64.21561720683195L214.00615384615386,55.07506037401237L214.24307692307693,43.21131134376506L214.41538461538462,31.40900235530418L214.50153846153847,22.012834735665166L214.8676923076923,69.45978882018598L214.99692307692308,94.43783957357861L215.2123076923077,103.57814573362198L215.2553846153846,107.88996736910114L215.3846153846154,106.97599894902146L215.4923076923077,103.54077455387468L215.6,98.57101977247238L215.6646153846154,93.83734154555809L215.9876923076923,82.21765785702235L216.00923076923075,74.66119847397903L216.5907692307692,54.38017747197422L216.76307692307694,37.549011702368546L216.97846153846154,84.64039315372501L217.2153846153846,106.46575115780576L217.6676923076923,107.32878280731366L218.03384615384616,97.92327803942293L218.0553846153846,91.69303485750793L218.7446153846154,69.26701351433115L218.76615384615383,55.22167913724451L218.89538461538461,43.26343055092309L220.01538461538462,68.82606815043235L220.05846153846156,82.98292317107538L220.27384615384616,85.60822447013656L220.42461538461538,83.0646588845559L221.00615384615384,65.726067900178L221.45846153846153,43.0686678668429L221.67384615384614,86.78301488500917L222.01846153846154,103.60752424947339L222.06153846153848,112.55319095484896L222.10461538461539,116.74244188953264L222.2123076923077,116.3260336965451L222.90153846153848,97.36214617821351L223.00923076923075,83.06022981847326L223.24615384615385,68.06729924091033L223.2676923076923,58.49187721164691L223.35384615384615,50.392073755373545L224.28,83.58091994631224L224.34461538461537,101.7525972016198L224.7753846153846,100.90612239432258L224.90461538461537,96.90271567292167L224.92615384615385,93.91236483669572L225.48615384615383,76.87532781043757L225.6369230769231,62.56601526265145L225.7876923076923,49.858489691445016L226.49846153846156,86.16256086266432L226.9723076923077,95.04566565442585L226.99384615384616,99.77927995363642L227.18769230769232,97.36623463884851L227.33846153846156,91.80873636165113L227.40307692307692,86.72510154463825L227.55384615384617,79.57690570759891L227.61846153846156,73.51138026809232L228.0276923076923,58.755420825785976L228.09230769230768,48.125543836617396L228.32923076923078,35.31045797514756L228.56615384615384,21.15186647345658L228.78153846153845,70.13439345720761L228.82461538461538,98.35720364024255L228.84615384615384,114.70616513390681L228.91076923076923,122.7624540038467L229.4276923076923,113.49234319766391L229.53538461538463,105.00056542380669L229.55692307692308,99.31264586778228L229.6430769230769,93.54492139653742L230.0523076923077,78.91814014803529L230.2676923076923,64.24782283665104L230.44,50.73359137994201L230.69846153846152,35.56133901850342L231.56,66.39542302644492L231.75384615384615,79.60205014833222L231.77538461538464,86.92439279516253L231.90461538461537,87.82546339519648L231.9476923076923,87.20184360243907L232.14153846153846,81.53512921918914L232.89538461538461,57.6178772819475L233.49846153846153,90.21214588414247L233.56307692307692,107.99915121863651L233.6276923076923,116.91788614405084L233.82153846153847,116.97201918914317L234.42461538461538,100.56121183900675L234.94153846153844,76.60530132215405L235.15692307692305,56.347392924368805L236.34153846153845,75.37407214785047L236.47076923076924,83.26433589396198L236.55692307692306,85.65778979592581L236.62153846153845,85.32167233133153L236.85846153846154,78.68383445348641L237.24615384615385,64.12566520117171L237.35384615384618,52.465646733550244L238.02153846153846,90.65280945736649L238.1292307692308,110.6334278619199L238.15076923076924,122.03477468725828L238.19384615384618,127.70406390903466L238.4523076923077,123.988510434722L238.4953846153846,120.59303426647557L238.75384615384613,111.5338914420468L238.9692307692308,100.22146756922113L239.2492307692308,85.76242280498755L239.35692307692307,74.17305714436405L239.37846153846152,66.63502276318093L239.70153846153846,53.30138079115508L239.83076923076925,41.743088403078474L240.04615384615386,28.92365431137833L240.56307692307692,70.66349172690946L240.92923076923077,85.74374350077241L241.10153846153847,90.07716398783325L241.40307692307692,84.45638207868085L242.07076923076926,62.79660268470852L242.22153846153847,45.659139941988286L242.28615384615387,33.622731686547155L242.45846153846153,21.708860040574137L242.80307692307693,68.66724193444648L242.88923076923078,94.47065972229983L242.99692307692308,106.96969422747712L243.04,113.28915392526666L243.08307692307693,115.90043416831104L243.14769230769232,115.6976730443894L243.90153846153845,94.9628471805833L244.0307692307692,79.03267798065899L244.0523076923077,68.89228121330859L244.20307692307694,58.684714485363614L244.39692307692306,47.260927486791076L244.82769230769233,28.615000285477436L245.08615384615385,73.9876821306506L245.43076923076922,91.7507383880909L245.47384615384615,101.23731461488579L245.4953846153846,106.34365754063286L245.53846153846155,108.22094027904552L245.66769230769233,105.81387061816517L245.75384615384615,102.02595249785222L245.86153846153846,96.82052560027383L245.99076923076922,90.18642419262957L246.09846153846155,83.25972631462287L246.27076923076922,74.40296051750636L246.72307692307692,56.654598630382296L247.0246153846154,37.734515797152966L247.26153846153846,83.58933870158552L247.47692307692307,105.19362450187579L247.56307692307692,115.78767792920708L247.5846153846154,121.55627396672563L248.18769230769232,108.49543044991385L248.38153846153847,95.35027375931465L248.55384615384614,82.73786013775025L248.87692307692308,66.355918502355L248.89846153846153,55.94157079542342L249.15692307692308,42.634366956420735L249.82461538461538,80.05628068275003L250.01846153846154,97.20000697573074L250.16923076923075,103.3600000486112L250.29846153846154,103.5278221320313L250.36307692307693,101.85607449124136L250.3846153846154,100.26341297816495L250.4923076923077,96.37347177778439L250.68615384615387,88.68442746771228L250.85846153846154,79.36081397845723L251.00923076923075,69.62612271867157L251.0307692307692,63.206750020091846L251.07384615384615,58.1874745997287L251.28923076923076,49.222397466000416L251.35384615384615,42.07226470572871L251.3969230769231,36.584934181510135L251.9353846153846,82.28751781752696L252.04307692307694,106.76516768650143L252.1723076923077,117.90068561352845L252.25846153846155,122.21877766043478L253.0553846153846,102.99625051010635L253.1846153846154,87.9209354731645L253.2276923076923,77.6833362133692L253.24923076923076,70.95619508739651L253.27076923076922,66.33526365617053L253.4,60.02282057434469L253.7446153846154,46.78451753991931L253.87384615384616,35.31177215589602L253.89538461538461,27.81945126011746L254.15384615384616,16.23979971657394" style="fill: none;" fill="none"></path></g></g></g></g><g opacity="0.2"><g><g><g><path stroke="rgb(255, 112, 67)" stroke-width="2px" d="M21.947692307692307,116.12564954969619L22.076923076923077,107.52771816677517L22.464615384615385,82.34969807942709L22.529230769230768,78.38880093044706L22.766153846153845,64.0011435953776L23.08923076923077,44.573225097656234L23.153846153846153,40.68686279296875L23.584615384615386,14.806257188585079L24.89846153846154,96.44522155761719L24.963076923076922,92.60038486056857L25.156923076923075,81.02937689887153L25.501538461538463,60.56633605957032L26.49230769230769,140.36979161580405L26.6,134.00733669704863L27.052307692307693,107.17912034776475L27.16,100.80192776150174L27.31076923076923,91.90607428656683L27.44,84.31139675564235L28.193846153846152,40.027595486111125L28.236923076923077,37.483427734375L28.40923076923077,27.382444390190983L28.861538461538462,137.99637076483833L29.033846153846156,127.93395704481335L29.46461538461538,102.79988288031684L30.627692307692307,35.33840074327259L30.64923076923077,34.099947781032995L31.080000000000002,144.5376453314887L31.144615384615385,140.7950518629286L31.46769230769231,122.32013851589628L31.532307692307693,118.63978366427952L31.553846153846152,117.38844750298394L31.76923076923077,104.9184252251519L32.17846153846154,81.23033548990885L32.63076923076923,55.10475897894966L33.104615384615386,27.87936347113714L33.68615384615385,128.52876308865018L33.901538461538465,116.04993472629124L34.03076923076923,108.58293334960938L34.181538461538466,99.90825805664063L34.20307692307692,98.65331556532118L34.91384615384615,57.54633795844184L35.215384615384615,40.015596516927076L35.36615384615385,31.199854871961804L35.387692307692305,29.939106038411467L35.43076923076923,27.431876763237852L35.495384615384616,23.672034776475698L35.53846153846153,155.7420149591234L35.79692307692308,140.76225538465712L36.01230769230769,128.24283393012152L36.93846153846154,74.13892055935331L37.110769230769236,64.07448337131078L37.28307692307692,53.967029758029526L37.75692307692307,26.13820922851562L37.84307692307692,156.96603618833754L38.036923076923074,145.49499769422744L38.12307692307692,140.45556191338432L38.16615384615384,137.8907128397624L38.36,126.51127644856771L38.46769230769231,120.2334767320421L38.51076923076923,117.72010311550565L38.61846153846154,111.39120819091798L38.66153846153846,108.81778238932291L38.747692307692304,103.70883497450087L38.83384615384615,98.60012295193143L38.963076923076926,90.93901652018229L38.98461538461539,89.66905117458768L39.48,60.42399013943141L39.566153846153846,55.32654676649305L40.276923076923076,150.58868309020997L40.42769230769231,141.6467719523112L40.55692307692308,133.95035970052083L41.09538461538462,101.90842827690972L41.13846153846154,99.35528544108072L41.31076923076923,89.09535196940104L41.612307692307695,71.05262030707465L41.849230769230765,56.869102376302095L41.91384615384615,52.99338704427083L42.10769230769231,41.43753472222224L42.28,31.211829698350698L42.473846153846154,19.57901014539931L42.495384615384616,156.94034240722655L42.62461538461538,149.17638389587404L42.646153846153844,147.8889195505778L42.753846153846155,141.4595868259006L43.14153846153847,118.19020256890191L43.206153846153846,114.32578908284505L43.4,102.67317545572917L44.45538461538462,39.40089680989584L44.52,35.57753512912328L44.56307692307692,32.98121893988716L44.64923076923077,27.78718627929689L44.778461538461535,20.08013007269966L44.886153846153846,153.09487196180555L45.10153846153847,140.212184431288L45.23076923076923,132.42373531765406L45.33846153846154,125.9912979804145L45.55384615384615,112.87226908365885L46.45846153846154,58.31090406629775L46.54461538461538,53.16265218098957L46.566153846153846,51.86721015082466L46.58769230769231,50.58807657877604L46.97538461538462,27.17999498155382L47.25538461538462,150.4039318593343L47.535384615384615,133.5189551120334L48.353846153846156,84.02584784613715L48.590769230769226,69.68170789930556L48.65538461538461,65.81569797092013L48.72,61.91295477973091L49.15076923076923,35.92708658854167L49.279999999999994,28.092978922526044L49.43076923076923,18.86405748155383L49.90461538461538,130.72451107449L49.96923076923076,126.82564581976996L50.206153846153846,112.56634063720703L50.27076923076923,108.632779168023L50.33538461538461,104.7002347140842L50.35692307692308,103.40336825900607L51.39076923076923,40.80453477647569L51.519999999999996,32.95071451822918L51.541538461538465,31.62651841905381L52.01538461538462,143.81463953653972L52.27384615384615,128.1056726752387L52.489230769230765,115.02851342095269L52.575384615384614,109.84459055582683L53.135384615384616,75.79162163628472L53.372307692307686,61.33647311740451L53.54461538461538,50.88429660373265L53.673846153846156,43.000587565104155L54.363076923076925,142.56536154852972L54.449230769230766,137.34329004923504L54.987692307692306,104.4861484781901L55.332307692307694,83.42058797200521L55.353846153846156,82.08104912651909L55.676923076923075,62.38569485134549L55.76307692307692,57.10018513997396L56.107692307692304,36.10616577148437L56.12923076923077,34.77074327256946L56.60307692307693,147.76553553263346L56.81846153846154,134.6599858601888L56.88307692307692,130.73260192871095L56.99076923076923,124.14334204779732L57.05538461538461,120.24799258761936L57.48615384615385,93.94296569824219L57.78769230769231,75.4398671468099L57.98153846153846,63.621600748697915L58.06769230769231,58.346237046983504L58.11076923076923,55.690789116753464L58.15384615384616,53.02279296875L58.21846153846154,49.104200032552086L58.36923076923077,39.872562527126746L58.56307692307693,28.06541992187502L58.864615384615384,151.640720477634L58.90769230769231,149.02041087680394L58.972307692307695,145.0315586344401L59.08,138.4793051317003L59.144615384615385,134.50129677666558L59.16615384615385,133.17634923299153L59.596923076923076,106.88698045518663L59.79076923076923,95.05695651584202L59.92,87.1654795328776L60.09230769230769,76.66940538194444L60.286153846153844,64.79839904785156L60.43692307692308,55.59764621310765L60.88923076923077,27.824064398871514L60.97538461538461,22.60637179904515L61.190769230769234,151.5918524424235L61.27692307692308,146.31992531670465L61.470769230769235,134.46978892008462L61.75076923076923,117.33049574110242L61.815384615384616,113.33915150960287L61.94461538461538,105.3550174967448L61.987692307692306,102.72697767469619L62.84923076923077,49.976865505642365L63.215384615384615,27.562115071614585L63.430769230769236,156.89934916708205L63.495384615384616,152.93221214294434L63.53846153846154,150.29990055508082L63.926153846153845,126.48914957682291L64.22769230769231,107.97324327256945L64.27076923076923,105.33347608778212L64.65846153846154,81.59344312879774L64.74461538461539,76.29009189181859L64.91692307692307,65.69663174099394L65.28307692307692,43.258758544921875L65.41230769230769,35.28975301106772L65.92923076923077,146.36588414510092L66.20923076923077,129.30682200113932L66.27384615384615,125.33837721082898L66.2953846153846,123.99472503662109L66.38153846153845,118.6767674085829L66.4676923076923,113.3923079087999L66.55384615384615,108.1351207139757L66.70461538461538,98.84636135525174L67.0276923076923,79.07658087836371L67.75999999999999,34.13866075303821L67.84615384615384,28.804515380859357L67.99692307692308,19.495101860894096L68.19076923076923,150.2341182284885L68.66461538461539,121.14775533040364L68.70769230769231,118.4837065294054L68.75076923076924,115.81948872884115L68.92307692307693,105.23619873046876L69.09538461538462,94.66596394856771L69.18153846153847,89.38584411621095L69.6123076923077,63.00273640950522L69.72,56.36384195963541L69.74153846153847,55.07162299262153L69.78461538461538,52.39212280273438L69.84923076923077,48.438619384765644L69.95692307692308,41.81427096896701L70.1076923076923,32.50134467230902L70.1723076923077,28.529758300781253L70.28,21.879613308376747L70.68923076923078,139.72887886895074L70.90461538461538,126.50134168836806L71.03384615384616,118.54605831570095L71.16307692307693,110.63336886935764L71.24923076923076,105.31999837239583L71.50769230769231,89.43845730251736L71.52923076923076,88.12277757432726L72.06769230769231,55.02087483723959L72.26153846153846,43.056635064019076L73.0153846153846,139.70160505506726L73.03692307692307,138.3717701043023L73.08,135.70103224012587L74.0276923076923,77.16691596137153L74.2,66.64321038140191L74.35076923076923,57.419093356662316L74.39384615384614,54.799014621310775L74.43692307692308,52.14923421223959L74.54461538461538,45.47845920138889L75.08307692307692,155.62916078355576L75.10461538461539,154.31624163309732L75.32000000000001,141.12384957207576L75.36307692307692,138.4877264404297L75.47076923076924,131.87183102077907L75.77230769230769,113.32344963921442L75.90153846153846,105.33173177083333L76.09538461538462,93.35356160481771L76.41846153846154,73.36312805175781L76.50461538461538,68.0629515923394L76.54769230769232,65.42978142632379L77.08615384615385,32.34532185872396L77.56,146.34867033216688L77.68923076923078,138.37036831325955L78.05538461538461,115.9217063056098L78.18461538461538,107.99001346164279L78.20615384615385,106.67806681315103L78.50769230769231,88.09365532769097L78.74461538461539,73.43317837185329L79.24,42.89578369140625L79.39076923076922,33.58321953667536L79.49846153846154,26.90755560980901L79.77846153846154,152.90934891594782L79.92923076923077,143.6112289428711L80.2523076923077,123.65478844536676L80.51076923076923,107.69978990342882L80.57538461538462,103.68857916937934L80.87692307692308,85.1647178141276L81.63076923076923,38.77261678059895L81.65230769230769,37.47560546875002L81.67384615384616,36.13683919270832L82.06153846153846,155.5787779765659L82.38461538461539,135.71651984320746L83.41846153846153,71.92440456814235L83.6123076923077,59.98124749077691L83.80615384615385,48.05811686197916L83.93538461538462,40.081192491319456L84.3876923076923,155.52398363961115L84.43076923076923,152.81780547247993L84.4523076923077,151.5021740298801L85.46461538461539,89.26321682400174L85.63692307692307,78.66793992784288L86.13230769230769,48.01441840277778L86.41230769230769,30.749531385633674L86.75692307692307,152.89420346154105L86.82153846153847,148.95823789808486L86.99384615384616,138.2418728129069L87.05846153846153,134.23650614420572L87.5753846153846,102.3713301595052L87.66153846153847,97.05118760850695L87.7046153846154,94.42772284613716L88.3076923076923,57.23336886935763L88.80307692307693,26.656373969184017L89.12615384615384,150.19841028001574L89.51384615384616,126.22270968967014L89.64307692307693,118.2122479587131L89.9876923076923,96.8706598578559L90.3753846153846,72.84689473470053L90.39692307692307,71.53541585286459L90.5476923076923,62.28581007215712L90.6123076923077,58.227400173611116L91.12923076923077,26.2474553765191L91.34461538461538,156.89450655619302L91.40923076923077,152.86117347717285L91.43076923076923,151.5360705142551L91.47384615384615,148.8595927005344L91.49538461538461,147.51997161865233L92.03384615384614,114.11099667019315L92.74461538461539,70.13635294596354L92.91692307692308,59.42111653645834L93.21846153846154,40.686379937065965L93.24000000000001,39.3452838812934L93.60615384615384,16.671469184027785L94.23076923076924,122.1656940375434L94.27384615384615,119.48698452419706L94.48923076923077,106.06274542914497L94.85538461538461,83.32727606879341L94.96307692307693,76.5588796657986L95.43692307692308,47.21074096679689L95.60923076923078,36.54982584635417L95.84615384615385,21.859091932508676L95.88923076923078,19.192737494574658L96.04,154.210862481859L96.16923076923078,146.1197083621555L96.32,136.77462763468424L96.44923076923078,128.7134071858724L96.51384615384615,124.69295579698351L96.88,101.74426934136285L97.13846153846154,85.62792148166234L97.20307692307692,81.62571601019965L97.69846153846154,50.5872677951389L97.74153846153845,47.88768079969617L97.87076923076923,39.78502075195314L97.95692307692308,34.389407823350695L98.30153846153846,12.844377441406266L98.66769230769232,135.21864108615452L99.09846153846154,108.23887739393446L99.48615384615385,83.86805053710937L99.52923076923076,81.15979024251303L99.57230769230769,78.43093614366319L99.63692307692308,74.37953972710503L99.70153846153846,70.26223347981771L100.06769230769231,47.07274074978298L100.30461538461539,32.03464029947918L100.60615384615386,12.932148573133674L101.29538461538462,115.94830864800346L101.8123076923077,83.14719495985243L101.89846153846153,77.71726908365885L101.94153846153846,75.01225599500869L102.07076923076923,66.79236456976997L102.13538461538462,62.700981648763005L102.52307692307693,38.09702894422742L102.80307692307693,20.202654758029524L102.97538461538463,156.86135425461663L103.25538461538463,138.91448957655166L103.36307692307693,132.06877888997394L103.7076923076923,110.21661292182074L103.81538461538462,103.38914211697048L103.85846153846154,100.64509012858073L104.07384615384616,86.98178907606336L104.16,81.45064453125L104.78461538461539,41.602852511935765L104.8923076923077,34.73561550564236L105.04307692307692,25.168755289713545L105.99076923076923,112.69306315104167L106.16307692307693,101.56808729383681L106.31384615384616,92.00869927300347L106.4,86.45364128960503L106.63692307692307,71.29328172471787L106.76615384615384,63.058367445204L106.89538461538461,54.804893391927095L107.36923076923077,24.62317640516494L107.60615384615384,9.517946912977436L107.71384615384615,151.34995219760472L107.9076923076923,138.85109512329103L107.92923076923077,137.4855605231391L108.1876923076923,120.96318064371745L108.42461538461538,105.85155632866754L108.48923076923077,101.71452541775174L109.71692307692308,22.97689127604167L109.82461538461538,16.043672010633685L109.84615384615384,14.694995117187517L110.06153846153848,149.8532241397434L111.63384615384615,48.99325181749131L111.87076923076924,33.748658040364575L111.89230769230768,32.36253567165798L111.93538461538462,29.548342827690988L111.97846153846154,26.788591986762157L112.04307692307692,22.63985785590276L112.06461538461538,21.276478000217026L112.60307692307691,135.97024402194552L112.71076923076922,129.0739405992296L112.77538461538461,124.89858903672959L112.94769230769231,113.80863532172309L113.37846153846155,86.16873819986981L113.44307692307692,82.01417358398437L113.46461538461539,80.63501037597656L113.78769230769231,59.805620727539065L114.13230769230769,37.679539659288196L114.26153846153845,29.300915391710078L114.34769230769231,23.7448011610243L114.54153846153845,11.267273491753485L114.58461538461539,8.44343560112847L114.77846153846154,145.77858877393936L114.86461538461539,140.2191315205892L115.10153846153845,124.95380662706164L115.66153846153846,88.67559326171875L115.85538461538462,76.22228081597223L116.17846153846155,55.354817979600696L116.32923076923076,45.587584635416675L116.45846153846153,37.24125135633679L116.54461538461538,31.720120035807298L116.56615384615385,30.339622938368052L116.97538461538461,154.1095042377048L117.03999999999999,149.93306511773005L117.81538461538462,99.94620449490017L117.94461538461539,91.63769090440539L118.2676923076923,70.69630282931857L118.31076923076922,67.92987650553385L118.67692307692309,44.30783542209201L118.69846153846153,42.905199381510414L119.1076923076923,16.501105550130205L119.12923076923076,15.112810329861105L119.19384615384615,10.94974745008679L119.3876923076923,148.5120383029514L119.6246153846154,133.2587003072103L120.16307692307693,98.45256822374132L120.22769230769231,94.21686570909289L120.46461538461539,78.93483852810328L120.52923076923076,74.72453423394097L120.57230769230769,71.94464830186632L120.61538461538463,69.19673346625434L121.24,28.83582858615452L121.6923076923077,149.92534621344672L121.84307692307692,140.06492394341365L122.0153846153846,128.98004021538628L122.10153846153847,123.37256218804254L122.2523076923077,113.59204728868272L122.27384615384616,112.18470038519965L122.2953846153846,110.81467522515192L122.51076923076923,96.86895175509983L123.07076923076923,60.5779185655382L123.17846153846153,53.57515597873265L123.52307692307693,31.2844029405382L123.76,15.942706841362849L123.84615384615384,10.411520046657984L123.86769230769231,9.005504014756951L124.04,148.50373016357423L124.16923076923077,140.15149095323352L124.23384615384616,135.95659428914388L124.42769230769231,123.29860375298394L124.51384615384616,117.63140852186416L124.66461538461537,107.85606319851345L124.68615384615384,106.44216152615017L124.81538461538462,98.02805942111544L124.94461538461537,89.62264268663195L124.9876923076923,86.83486206054687L125.05230769230769,82.67037475585937L125.80615384615385,33.87498521592883L126.06461538461538,17.011906738281255L126.47384615384615,141.54137658013238L126.96923076923078,109.21549268934461L127.4,81.21159464518229L127.91692307692308,47.638020155164924L128.26153846153846,25.163781873914928L128.43384615384616,14.006020100911456L128.6276923076923,152.64443341996935L128.69230769230768,148.43589117262098L128.73538461538462,145.62912450154622L128.75692307692307,144.20380026923286L129.70461538461538,82.52756408691407L129.83384615384614,74.18665690104166L129.89846153846153,69.97784946017796L130.04923076923077,60.140384724934904L130.32923076923078,41.83212456597224L130.3723076923077,39.03019626193577L130.39384615384614,37.6115052625868L130.54461538461538,27.772640245225688L130.9323076923077,153.99283531188965L131.53538461538463,114.72086178249782L131.96615384615384,86.68405409071181L132.00923076923078,83.86007134331597L132.13846153846154,75.43488165961372L132.69846153846154,38.868934461805566L132.80615384615385,31.843694932725697L133.1723076923077,8.02665852864584L133.56,134.40890079074435L133.7323076923077,123.13473453097873L134.4,79.54187289767796L134.98153846153846,41.560723334418384L135.47692307692307,9.24195855034722L136.10153846153847,120.15194047715929L136.33846153846153,104.69145277235243L136.68307692307692,82.31201117621528L136.98461538461538,62.49431328667535L137.00615384615386,61.10412285698784L137.43692307692308,32.92806857638888L138.29846153846154,128.5535124715169L138.7076923076923,101.75066114637586L138.7723076923077,97.53752610948351L138.88,90.46207560221355L139.67692307692306,38.393719753689226L139.8276923076923,28.639475233289915L139.91384615384615,22.966171875000015L140.04307692307694,14.466543918185778L140.17230769230767,5.965020751953119L140.3446153846154,146.93150683085125L140.38769230769233,144.10819178263347L140.9046153846154,110.2198721991645L141.07692307692307,98.87579745822482L141.44307692307692,74.96075941297744L141.59384615384616,65.05827209472656L141.85230769230768,48.165938585069455L141.89538461538461,45.34470811631945L142.0246153846154,36.93102851019964L142.28307692307692,19.988725450303832L142.39076923076922,12.927513156467L142.60615384615386,151.12671357896593L142.82153846153847,137.01477752685548L143.4246153846154,97.32969285753038L143.46769230769232,94.53696295844183L143.55384615384614,88.91545193142362L143.87692307692308,67.81770304361979L144.76,9.926732720269115L144.82461538461538,5.721069878472235L145.2123076923077,132.7475988430447L145.6,107.2452776421441L145.96615384615387,83.21761949327257L146.0307692307692,79.01897616916231L146.13846153846154,71.99270453559028L146.24615384615387,64.9184490966797L146.63384615384615,39.29793986002605L146.6553846153846,37.887397054036455L147.02153846153848,13.767332356770822L147.08615384615382,9.596954210069441L147.2369230769231,152.58236946105956L147.81846153846155,114.22884670681424L147.86153846153846,111.43183749728732L148.0123076923077,101.47950134277345L148.4,76.017169664171L148.59384615384616,63.28512864854601L148.78769230769228,50.56562377929687L149.00307692307695,36.41694390190972L149.24,20.786934543185765L149.34769230769228,13.734461941189238L149.75692307692307,139.72993813408746L149.86461538461538,132.60238898383247L149.9076923076923,129.77034857855904L149.99384615384616,124.11414133707683L150.1876923076923,111.29863867865669L150.57538461538462,85.67887485080294L151.00615384615384,57.30554979112412L151.11384615384617,50.18478325737847L151.3076923076923,37.424531385633685L151.43692307692308,28.895437147352425L151.54461538461538,21.79096096462675L151.60923076923075,17.54355523003474L152.08307692307693,139.75909961276585L152.47076923076924,114.05103502061633L152.55692307692308,108.38693912082248L152.66461538461536,101.31480523003472L153.00923076923075,78.58957845052083L153.0523076923077,75.73520595974394L153.3969230769231,53.0484326171875L153.44,50.225874294704866L153.56923076923076,41.76733737521701L153.6123076923077,38.92117947048612L153.65538461538463,36.05603325737849L153.91384615384615,19.009457465277762L153.9569230769231,16.15771050347223L154,13.295835639105889L154.4953846153846,134.02131235758463L154.68923076923076,121.24261237250434L154.75384615384615,117.01671786838108L155.09846153846155,94.2084036593967L155.3353846153846,78.5280746799045L155.37846153846155,75.68414394802518L155.5076923076923,67.080357937283L155.7876923076923,48.66990736219617L155.89538461538461,41.60782592773438L156.17538461538462,23.192196723090262L157.01538461538462,121.1821437242296L157.51076923076923,88.48232415093315L157.59692307692308,82.78626017252604L157.61846153846156,81.35620998806422L157.76923076923077,71.37653815375434L158.13538461538462,47.20955796983506L158.3723076923077,31.55302775065104L158.60923076923078,15.875457085503484L158.76,5.947299940321187L158.88923076923078,151.08872413635254L159.40615384615384,116.82471927218967L160.59076923076924,38.64787095811633L160.6769230769231,32.934840630425356L160.9569230769231,14.472350260416675L161.28,146.79406642489963L161.4523076923077,135.36432022094726L161.47384615384615,133.95658401489257L161.56,128.25253329806858L161.77538461538464,113.99177351209852L161.99076923076925,99.71902682834201L162.0123076923077,98.27400207519531L162.03384615384616,96.84396396213107L162.20615384615385,85.42082458496094L162.6369230769231,56.84116916232638L163.15384615384616,22.633604871961808L163.30461538461537,12.660469699435765L163.36923076923077,8.375316704644092L163.58461538461538,148.17538965861002L163.77846153846153,135.2920819600423L163.84307692307692,131.01620130750868L164.05846153846153,116.73433468288846L164.16615384615383,109.57960527208117L164.94153846153844,58.22135240342881L165.13538461538462,45.442293294270826L165.17846153846153,42.59124647352431L165.26461538461538,36.85449584960938L165.39384615384617,28.26480319552951L165.45846153846153,23.9680978732639L165.60923076923078,13.970880262586803L165.78153846153845,156.812432841195L165.84615384615384,152.54732393052842L166.01846153846154,141.04267545912L166.10461538461539,135.34441750420464L166.68615384615384,96.86268066406251L166.7723076923077,91.09776746961805L167.00923076923078,75.25577229817709L167.24615384615385,59.52070556640625L167.5046153846154,42.39473619249134L168.3876923076923,138.16245659722222L168.71076923076924,116.70153669569227L169.0123076923077,96.56654513888888L169.1846153846154,85.12719387478298L169.48615384615385,65.14341769748263L169.5076923076923,63.722541775173625L170.0676923076923,26.458451334635413L170.36923076923077,6.425218641493046L170.90769230769232,125.0510085381402L171.53230769230768,83.45015686035157L171.59692307692308,79.1625594075521L171.72615384615386,70.64888637966581L172.11384615384614,44.8135183376736L172.15692307692308,41.97022135416668L172.54461538461538,16.198222113715275L172.63076923076923,10.452345513237844L173.16923076923078,129.62997331407334L173.32,119.52166564941406L173.6,100.83158114963108L173.72923076923078,92.2144381374783L174.28923076923078,54.9854694281684L174.61230769230767,33.42963514539929L174.7846153846154,21.964861518012157L174.80615384615385,20.53385769314235L175.28,143.9421753607856L175.36615384615385,138.27091055976018L175.66769230769233,118.18599266899957L175.92615384615385,100.88385030110678L175.9476923076923,99.44848266601562L176.09846153846155,89.36386813693576L176.4,69.27391798231338L176.52923076923076,60.68330790201823L176.72307692307692,47.653531901041674L176.91692307692307,34.735518934461794L176.96,31.853026123046874L176.98153846153846,30.415950385199636L177.39076923076922,2.9704208713107505L177.45538461538462,153.97764119466146L177.64923076923077,140.98921878390843L177.92923076923074,122.34209035237632L178.44615384615386,87.89412116156684L178.79076923076923,64.94178914388021L179.02769230769232,49.05646972656248L179.41538461538462,23.11353949652778L179.63076923076923,8.753984375000016L179.6523076923077,7.308325873480925L179.78153846153847,153.95284465789794L179.9323076923077,143.91055433485243L180.01846153846154,138.1449545796712L180.04,136.70959599812826L180.06153846153848,135.29865634494357L180.5353846153846,103.62489651150175L180.55692307692308,102.16822285970052L180.64307692307693,96.4337235514323L180.68615384615387,93.54067430284289L180.88,80.63583726671007L180.96615384615387,74.8914394124349L181.5907692307692,33.165138753255206L181.6123076923077,31.726119520399294L181.80615384615382,18.832635633680553L181.8707692307692,14.528965115017371L182.02153846153848,4.37238091362849L182.2369230769231,145.31697475857206L182.25846153846155,143.86020906236436L182.30153846153848,140.95598773532444L182.40923076923076,133.80847249348957L182.6246153846154,119.42375152587891L183.0123076923077,93.4325809733073L183.14153846153846,84.808611585829L183.16307692307694,83.36588643391927L183.3353846153846,71.88109842936197L183.7446153846154,44.42933403862847L184.11076923076922,19.855107150607637L185.16615384615383,104.90142869737413L185.44615384615383,86.13977891710068L185.51076923076923,81.79894056532119L186.17846153846153,37.15034166124133L186.20000000000002,35.70370537651911L186.56615384615384,11.017926703559027L186.78153846153847,152.46266080644395L186.84615384615384,148.11276324801975L186.88923076923075,145.2265177408854L187.12615384615384,129.3618283420139L187.25538461538463,120.68848995632595L187.40615384615384,110.6037939453125L187.79384615384615,84.64458543565537L187.81538461538463,83.16734815809463L187.90153846153848,77.44018825954862L187.96615384615384,73.11305094401041L188.00923076923075,70.22306783040365L188.31076923076924,50.02762573242188L188.3969230769231,44.25741319444444L188.63384615384615,28.362171088324658L188.69846153846154,24.011482476128464L189.12923076923076,150.97868203057183L189.30153846153848,139.43945051405166L189.5169230769231,124.97146104600695L189.7753846153846,107.55291720920138L190.27076923076922,74.28139926486544L190.37846153846155,67.0569997829861L190.74461538461537,42.36747897677952L191.6923076923077,135.0714439731174L191.71384615384616,133.64971098158094L191.8,127.87322886149089L192.40307692307692,87.44872280544706L193.32923076923078,25.08033230251735L193.50153846153844,13.554260118272566L193.67384615384617,2.0061214192708405L193.69538461538463,156.76331639925638L194.34153846153845,113.2069908311632L194.4276923076923,107.39626668294271L194.6646153846154,91.457060546875L194.9230769230769,74.0721596950955L194.9876923076923,69.7154655626085L195.03076923076924,66.80644585503472L195.1169230769231,61.030101047092L195.28923076923078,49.47088080512151L196.58153846153846,119.10710367838541L196.71076923076924,110.45852372911241L196.7323076923077,108.99395236545139L197.09846153846152,84.29909600151909L197.24923076923076,74.11859232584635L197.74461538461537,40.807323269314224L197.83076923076925,35.030640462239575L198.1323076923077,14.70214138454861L198.49846153846153,146.6704470147027L198.6276923076923,138.01932000054254L198.90769230769232,119.1704000515408L199.33846153846153,90.20590847439236L199.5323076923077,77.12065836588543L199.87692307692305,53.9620925564236L199.92,51.07096869574653L200.11384615384617,38.04444593641492L200.30769230769232,24.888674723307304L200.48,13.227668457031257L200.91076923076923,140.8997833082411L200.95384615384617,137.94543701171875L201.01846153846154,133.60097422281902L201.06153846153845,130.7227003648546L201.19076923076923,121.9892615085178L201.44923076923078,104.56088250054253L201.47076923076924,103.09949496799045L201.62153846153845,92.85668477376302L201.68615384615384,88.52056633843316L201.79384615384618,81.19991556803384L201.9446153846154,71.07706488715277L201.9876923076923,68.22588528103297L203.08615384615385,150.9721680026584L203.3230769230769,134.97888955010308L203.3876923076923,130.6509932454427L203.4953846153846,123.37804260253907L203.84,100.13133144802518L203.92615384615385,94.32186272515192L203.9476923076923,92.8664927842882L203.99076923076925,89.95114766438802L204.20615384615385,75.38596835666232L204.2923076923077,69.60223585340712L204.37846153846152,63.76850362141927L204.5723076923077,50.67466471354166L204.59384615384613,49.210814615885425L204.70153846153846,41.88160522460936L204.7876923076923,36.09894707573784L204.80923076923077,34.6334794108073L205.1323076923077,12.823868136935772L205.79999999999998,124.7711784532335L206.05846153846153,107.28970642089844L206.20923076923077,97.10452507866754L206.31692307692308,89.80515618218317L206.61846153846153,69.3988629828559L206.81230769230768,56.32585327148438L207.1353846153846,34.50965101453994L207.3723076923077,18.471845703124984L207.52307692307693,8.240756835937503L207.54461538461538,6.7618295627170255L207.73846153846154,150.92487830268013L208.55692307692308,95.81180514865451L208.62153846153845,91.40322814941406L208.6646153846154,88.51184475368925L208.72923076923078,84.20259724934897L208.7507692307692,82.73746154785157L208.83692307692309,76.93552537706162L209.52615384615385,30.26639784071179L209.82769230769233,9.813394368489583L210.53846153846155,118.89229617648655L210.6246153846154,113.09456688774956L211.01230769230767,86.86796786838107L211.12,79.59687018500435L211.44307692307692,57.74366305881075L211.5076923076923,53.39849107530381L211.57230769230767,49.009644775390626L212.0246153846154,18.40477701822917L212.26153846153846,2.38249552408854L212.56307692307692,139.22506249321833L212.77846153846153,124.67314059787327L212.84307692307692,120.28480129665799L212.92923076923074,114.4026476711697L213.29538461538462,89.488541531033L213.33846153846153,86.56104051378038L213.40307692307692,82.19605936686197L213.85538461538462,51.62529934353297L213.89846153846153,48.67163357204862L214.00615384615386,41.36422512478299L214.24307692307693,25.41568779839409L214.41538461538462,13.705538872612863L214.50153846153847,7.918583306206614L214.8676923076923,140.63021994696723L214.99692307692308,131.90491570366754L215.2123076923077,117.28860497368706L215.2553846153846,114.35769982231989L215.3846153846154,105.60504631890191L215.4923076923077,98.3879379611545L215.6,91.11638760036892L215.6646153846154,86.73682420518662L215.9876923076923,64.78813232421875L216.00923076923075,63.326509399414064L216.5907692307692,23.958645968967005L216.76307692307694,12.302263047960082L216.97846153846154,155.2774653307597L217.2153846153846,139.20378816392687L217.6676923076923,108.62333028157552L218.03384615384616,83.81502088758681L218.0553846153846,82.34767008463541L218.7446153846154,35.627981499565976L218.76615384615383,34.153677571614594L218.89538461538461,25.326057671440964L220.01538461538462,107.17002454969618L220.05846153846156,104.21820570203992L220.27384615384616,89.54617641872831L220.42461538461538,79.2493105061849L221.00615384615384,39.7181814236111L221.45846153846153,9.082567816840282L221.67384615384614,152.35453541225857L222.01846153846154,128.8442882961697L222.06153846153848,125.97169101291233L222.10461538461539,123.02631829155816L222.2123076923077,115.7014214070638L222.90153846153848,68.91631490071615L223.00923076923075,61.60735527886284L223.24615384615385,45.57790337456598L223.2676923076923,44.128744167751734L223.35384615384615,38.24236857096355L224.28,133.36418923272026L224.34461538461537,129.01011308458115L224.7753846153846,99.63641018337673L224.90461538461537,90.8976055908203L224.92615384615385,89.42683858235677L225.48615384615383,51.31977227105034L225.6369230769231,41.10204644097223L225.7876923076923,30.797201334635417L226.49846153846156,140.61866761949327L226.9723076923077,108.37032284206815L226.99384615384616,106.87970140245226L227.18769230769232,93.74666666666667L227.33846153846156,83.47248894585503L227.40307692307692,79.09964931911891L227.55384615384617,68.85461195203993L227.61846153846156,64.41309210883247L228.0276923076923,36.6214816623264L228.09230769230768,32.18072835286458L228.32923076923078,16.0878291829427L228.56615384615384,-0.08602077907985972L228.78153846153845,143.6081839328342L228.82461538461538,140.69141891479492L228.84615384615384,139.2296073744032L228.91076923076923,134.84688730875652L229.4276923076923,99.58717698838976L229.53538461538463,92.26289876302083L229.55692307692308,90.78076653374566L229.6430769230769,84.89333468967013L230.0523076923077,56.97796827528212L230.2676923076923,42.242346869574675L230.44,30.46224419487845L230.69846153846152,12.802960476345476L231.56,112.64654903835721L231.75384615384615,99.4119908311632L231.77538461538464,97.90790676540799L231.90461538461537,89.17706929524739L231.9476923076923,86.26641391330294L232.14153846153846,73.03505764431422L232.89538461538461,21.74199937608506L233.49846153846153,139.1035487874349L233.56307692307692,134.6796592203776L233.6276923076923,130.29598853217232L233.82153846153847,117.05321875678169L234.42461538461538,75.94500081380207L234.94153846153844,40.67143554687502L235.15692307692305,25.960530327690975L236.34153846153845,103.91409098307291L236.47076923076924,95.09973151312934L236.55692307692306,89.24797064887153L236.62153846153845,84.81749613444012L236.85846153846154,68.72707763671875L237.24615384615385,42.28841132269966L237.35384615384618,34.97561903211806L238.02153846153846,147.93355354309082L238.1292307692308,140.60435546875L238.15076923076924,139.13679492526583L238.19384615384618,136.20799774169922L238.4523076923077,118.41518022325303L238.4953846153846,115.49982001410591L238.75384615384613,97.94517720540365L238.9692307692308,83.25283175998263L239.2492307692308,64.07385565863716L239.35692307692307,56.78900865342882L239.37846153846152,55.32797119140625L239.70153846153846,33.30091783311633L239.83076923076925,24.405649820963532L240.04615384615386,9.69450317382811L240.56307692307692,133.27324785020616L240.92923076923077,108.36412116156684L241.10153846153847,96.57729471842448L241.40307692307692,76.02520921495226L242.07076923076926,30.306933593750017L242.22153846153847,19.952945827907996L242.28615384615387,15.56811930338543L242.45846153846153,3.8380525716145826L242.80307692307693,139.104814775255L242.88923076923078,133.17578640407987L242.99692307692308,125.71824598524306L243.04,122.76834347195096L243.08307692307693,119.8173545328776L243.14769230769232,115.39353135850695L243.90153846153845,63.860608384874126L244.0307692307692,55.13742418077257L244.0523076923077,53.68168606228299L244.20307692307694,43.37336439344617L244.39692307692306,30.125246988932304L244.82769230769233,0.6461094835069616L245.08615384615385,142.04670489841038L245.43076923076922,118.3953227742513L245.47384615384615,115.46717895507813L245.4953846153846,114.00317192925347L245.53846153846155,111.03686438666449L245.66769230769233,102.20326612684462L245.75384615384615,96.3440753173828L245.86153846153846,89.01238525390626L245.99076923076922,80.23527208116319L246.09846153846155,72.86967949761285L246.27076923076922,61.117811821831594L246.72307692307692,30.032055799696167L247.0246153846154,9.354391547309035L247.26153846153846,152.37157305823433L247.47692307692307,137.6000532023112L247.56307692307692,131.678758070204L247.5846153846154,130.20916802300349L248.18769230769232,88.90416517469619L248.38153846153847,75.6325387234158L248.55384615384614,63.819239705403646L248.87692307692308,41.783006049262156L248.89846153846153,40.32004923502603L249.15692307692308,22.673561197916655L249.82461538461538,136.18915127224392L250.01846153846154,122.91559641520183L250.16923076923075,112.59998965793186L250.29846153846154,103.77955525716146L250.36307692307693,99.34845303005643L250.3846153846154,97.87442070855035L250.4923076923077,90.53855997721354L250.68615384615387,77.15086100260416L250.85846153846154,65.37539374457465L251.00923076923075,55.024085828993066L251.0307692307692,53.577690972222214L251.07384615384615,50.658561469184036L251.28923076923076,35.774781765407994L251.35384615384615,31.347065565321174L251.3969230769231,28.353938395182297L251.9353846153846,150.8413932715522L252.04307692307694,143.48164248996312L252.1723076923077,134.60396250406902L252.25846153846155,128.69591573079427L253.0553846153846,74.16245978461372L253.1846153846154,65.30796291775172L253.2276923076923,62.32693732367622L253.24923076923076,60.865483398437505L253.27076923076922,59.40386650933159L253.4,50.55415595160591L253.7446153846154,26.92706298828125L253.87384615384616,18.10265407986111L253.89538461538461,16.580969916449675L254.15384615384616,-1.1296775987413241" style="fill: none;" fill="none"></path></g></g></g></g></g></g><g transform="translate(50, 178)" clip-path="url(#clip_1)"><clipPath id="clip_1"><rect width="280" height="22"></rect></clipPath><g><g><line x1="0" y1="0" x2="0" y2="5" style="visibility: inherit;" fill="rgb(0, 0, 0)" stroke="rgb(204, 204, 204)" stroke-width="1px"></line><line x1="21.53846153846154" y1="0" x2="21.53846153846154" y2="5" style="visibility: inherit;" fill="rgb(0, 0, 0)" stroke="rgb(204, 204, 204)" stroke-width="1px"></line><line x1="43.07692307692308" y1="0" x2="43.07692307692308" y2="5" style="visibility: inherit;" fill="rgb(0, 0, 0)" stroke="rgb(204, 204, 204)" stroke-width="1px"></line><line x1="64.61538461538461" y1="0" x2="64.61538461538461" y2="5" style="visibility: inherit;" fill="rgb(0, 0, 0)" stroke="rgb(204, 204, 204)" stroke-width="1px"></line><line x1="86.15384615384616" y1="0" x2="86.15384615384616" y2="5" style="visibility: inherit;" fill="rgb(0, 0, 0)" stroke="rgb(204, 204, 204)" stroke-width="1px"></line><line x1="107.6923076923077" y1="0" x2="107.6923076923077" y2="5" style="visibility: inherit;" fill="rgb(0, 0, 0)" stroke="rgb(204, 204, 204)" stroke-width="1px"></line><line x1="129.23076923076923" y1="0" x2="129.23076923076923" y2="5" style="visibility: inherit;" fill="rgb(0, 0, 0)" stroke="rgb(204, 204, 204)" stroke-width="1px"></line><line x1="150.76923076923077" y1="0" x2="150.76923076923077" y2="5" style="visibility: inherit;" fill="rgb(0, 0, 0)" stroke="rgb(204, 204, 204)" stroke-width="1px"></line><line x1="172.30769230769232" y1="0" x2="172.30769230769232" y2="5" style="visibility: inherit;" fill="rgb(0, 0, 0)" stroke="rgb(204, 204, 204)" stroke-width="1px"></line><line x1="193.84615384615384" y1="0" x2="193.84615384615384" y2="5" style="visibility: inherit;" fill="rgb(0, 0, 0)" stroke="rgb(204, 204, 204)" stroke-width="1px"></line><line x1="215.3846153846154" y1="0" x2="215.3846153846154" y2="5" style="visibility: inherit;" fill="rgb(0, 0, 0)" stroke="rgb(204, 204, 204)" stroke-width="1px"></line><line x1="236.92307692307693" y1="0" x2="236.92307692307693" y2="5" style="visibility: inherit;" fill="rgb(0, 0, 0)" stroke="rgb(204, 204, 204)" stroke-width="1px"></line><line x1="258.46153846153845" y1="0" x2="258.46153846153845" y2="5" style="visibility: inherit;" fill="rgb(0, 0, 0)" stroke="rgb(204, 204, 204)" stroke-width="1px"></line><line x1="280" y1="0" x2="280" y2="5" style="visibility: inherit;" fill="rgb(0, 0, 0)" stroke="rgb(204, 204, 204)" stroke-width="1px"></line></g><g transform="translate(0, 8)"><text x="0" y="0" dx="0em" dy="0.95em" style="text-anchor: middle; visibility: hidden; font-family: &quot;Helvetica Neue&quot;, sans-serif; font-size: 12px; font-weight: 200;" fill="rgb(50, 49, 63)" stroke="none" stroke-width="1px">-1k</text><text x="21.53846153846154" y="0" dx="0em" dy="0.95em" style="text-anchor: middle; visibility: inherit; font-family: &quot;Helvetica Neue&quot;, sans-serif; font-size: 12px; font-weight: 200;" fill="rgb(50, 49, 63)" stroke="none" stroke-width="1px">0</text><text x="43.07692307692308" y="0" dx="0em" dy="0.95em" style="text-anchor: middle; visibility: hidden; font-family: &quot;Helvetica Neue&quot;, sans-serif; font-size: 12px; font-weight: 200;" fill="rgb(50, 49, 63)" stroke="none" stroke-width="1px">1k</text><text x="64.61538461538461" y="0" dx="0em" dy="0.95em" style="text-anchor: middle; visibility: inherit; font-family: &quot;Helvetica Neue&quot;, sans-serif; font-size: 12px; font-weight: 200;" fill="rgb(50, 49, 63)" stroke="none" stroke-width="1px">2k</text><text x="86.15384615384616" y="0" dx="0em" dy="0.95em" style="text-anchor: middle; visibility: hidden; font-family: &quot;Helvetica Neue&quot;, sans-serif; font-size: 12px; font-weight: 200;" fill="rgb(50, 49, 63)" stroke="none" stroke-width="1px">3k</text><text x="107.6923076923077" y="0" dx="0em" dy="0.95em" style="text-anchor: middle; visibility: inherit; font-family: &quot;Helvetica Neue&quot;, sans-serif; font-size: 12px; font-weight: 200;" fill="rgb(50, 49, 63)" stroke="none" stroke-width="1px">4k</text><text x="129.23076923076923" y="0" dx="0em" dy="0.95em" style="text-anchor: middle; visibility: hidden; font-family: &quot;Helvetica Neue&quot;, sans-serif; font-size: 12px; font-weight: 200;" fill="rgb(50, 49, 63)" stroke="none" stroke-width="1px">5k</text><text x="150.76923076923077" y="0" dx="0em" dy="0.95em" style="text-anchor: middle; visibility: inherit; font-family: &quot;Helvetica Neue&quot;, sans-serif; font-size: 12px; font-weight: 200;" fill="rgb(50, 49, 63)" stroke="none" stroke-width="1px">6k</text><text x="172.30769230769232" y="0" dx="0em" dy="0.95em" style="text-anchor: middle; visibility: hidden; font-family: &quot;Helvetica Neue&quot;, sans-serif; font-size: 12px; font-weight: 200;" fill="rgb(50, 49, 63)" stroke="none" stroke-width="1px">7k</text><text x="193.84615384615384" y="0" dx="0em" dy="0.95em" style="text-anchor: middle; visibility: inherit; font-family: &quot;Helvetica Neue&quot;, sans-serif; font-size: 12px; font-weight: 200;" fill="rgb(50, 49, 63)" stroke="none" stroke-width="1px">8k</text><text x="215.3846153846154" y="0" dx="0em" dy="0.95em" style="text-anchor: middle; visibility: hidden; font-family: &quot;Helvetica Neue&quot;, sans-serif; font-size: 12px; font-weight: 200;" fill="rgb(50, 49, 63)" stroke="none" stroke-width="1px">9k</text><text x="236.92307692307693" y="0" dx="0em" dy="0.95em" style="text-anchor: middle; visibility: inherit; font-family: &quot;Helvetica Neue&quot;, sans-serif; font-size: 12px; font-weight: 200;" fill="rgb(50, 49, 63)" stroke="none" stroke-width="1px">10k</text><text x="258.46153846153845" y="0" dx="0em" dy="0.95em" style="text-anchor: middle; visibility: hidden; font-family: &quot;Helvetica Neue&quot;, sans-serif; font-size: 12px; font-weight: 200;" fill="rgb(50, 49, 63)" stroke="none" stroke-width="1px">11k</text><text x="280" y="0" dx="0em" dy="0.95em" style="text-anchor: middle; visibility: hidden; font-family: &quot;Helvetica Neue&quot;, sans-serif; font-size: 12px; font-weight: 200;" fill="rgb(50, 49, 63)" stroke="none" stroke-width="1px">12k</text></g><line x1="0" y1="0" x2="280" y2="0" fill="rgb(0, 0, 0)" stroke="rgb(204, 204, 204)" stroke-width="1px"></line></g></g></g></g></svg>