<svg viewBox="0 0 330 200" xmlns="http://www.w3.org/2000/svg"><g><g><g><g><g><line x1="70" y1="178" x2="65" y2="178" style="visibility: inherit;" fill="rgb(0, 0, 0)" stroke="rgb(204, 204, 204)" stroke-width="1px"></line><line x1="70" y1="155.75" x2="65" y2="155.75" style="visibility: inherit;" fill="rgb(0, 0, 0)" stroke="rgb(204, 204, 204)" stroke-width="1px"></line><line x1="70" y1="133.5" x2="65" y2="133.5" style="visibility: inherit;" fill="rgb(0, 0, 0)" stroke="rgb(204, 204, 204)" stroke-width="1px"></line><line x1="70" y1="111.25" x2="65" y2="111.25" style="visibility: inherit;" fill="rgb(0, 0, 0)" stroke="rgb(204, 204, 204)" stroke-width="1px"></line><line x1="70" y1="89" x2="65" y2="89" style="visibility: inherit;" fill="rgb(0, 0, 0)" stroke="rgb(204, 204, 204)" stroke-width="1px"></line><line x1="70" y1="66.75" x2="65" y2="66.75" style="visibility: inherit;" fill="rgb(0, 0, 0)" stroke="rgb(204, 204, 204)" stroke-width="1px"></line><line x1="70" y1="44.5" x2="65" y2="44.5" style="visibility: inherit;" fill="rgb(0, 0, 0)" stroke="rgb(204, 204, 204)" stroke-width="1px"></line><line x1="70" y1="22.25" x2="65" y2="22.25" style="visibility: inherit;" fill="rgb(0, 0, 0)" stroke="rgb(204, 204, 204)" stroke-width="1px"></line><line x1="70" y1="0" x2="65" y2="0" style="visibility: inherit;" fill="rgb(0, 0, 0)" stroke="rgb(204, 204, 204)" stroke-width="1px"></line></g><g transform="translate(60, 0)"><text x="0" y="178" dx="0em" dy="0.3em" style="text-anchor: end; visibility: hidden; font-family: &quot;Helvetica Neue&quot;, sans-serif; font-size: 12px; font-weight: 200;" fill="rgb(50, 49, 63)" stroke="none" stroke-width="1px">-500</text><text x="0" y="155.75" dx="0em" dy="0.3em" style="text-anchor: end; visibility: inherit; font-family: &quot;Helvetica Neue&quot;, sans-serif; font-size: 12px; font-weight: 200;" fill="rgb(50, 49, 63)" stroke="none" stroke-width="1px">0</text><text x="0" y="133.5" dx="0em" dy="0.3em" style="text-anchor: end; visibility: hidden; font-family: &quot;Helvetica Neue&quot;, sans-serif; font-size: 12px; font-weight: 200;" fill="rgb(50, 49, 63)" stroke="none" stroke-width="1px">500</text><text x="0" y="111.25" dx="0em" dy="0.3em" style="text-anchor: end; visibility: inherit; font-family: &quot;Helvetica Neue&quot;, sans-serif; font-size: 12px; font-weight: 200;" fill="rgb(50, 49, 63)" stroke="none" stroke-width="1px">1e+3</text><text x="0" y="89" dx="0em" dy="0.3em" style="text-anchor: end; visibility: hidden; font-family: &quot;Helvetica Neue&quot;, sans-serif; font-size: 12px; font-weight: 200;" fill="rgb(50, 49, 63)" stroke="none" stroke-width="1px">1.5e+3</text><text x="0" y="66.75" dx="0em" dy="0.3em" style="text-anchor: end; visibility: inherit; font-family: &quot;Helvetica Neue&quot;, sans-serif; font-size: 12px; font-weight: 200;" fill="rgb(50, 49, 63)" stroke="none" stroke-width="1px">2e+3</text><text x="0" y="44.5" dx="0em" dy="0.3em" style="text-anchor: end; visibility: hidden; font-family: &quot;Helvetica Neue&quot;, sans-serif; font-size: 12px; font-weight: 200;" fill="rgb(50, 49, 63)" stroke="none" stroke-width="1px">2.5e+3</text><text x="0" y="22.25" dx="0em" dy="0.3em" style="text-anchor: end; visibility: inherit; font-family: &quot;Helvetica Neue&quot;, sans-serif; font-size: 12px; font-weight: 200;" fill="rgb(50, 49, 63)" stroke="none" stroke-width="1px">3e+3</text><text x="0" y="0" dx="0em" dy="0.3em" style="text-anchor: end; visibility: hidden; font-family: &quot;Helvetica Neue&quot;, sans-serif; font-size: 12px; font-weight: 200;" fill="rgb(50, 49, 63)" stroke="none" stroke-width="1px">3.5e+3</text></g><line x1="70" y1="0" x2="70" y2="178" fill="rgb(0, 0, 0)" stroke="rgb(204, 204, 204)" stroke-width="1px"></line></g></g><g transform="translate(70, 0)" clip-path="url(#clip_0)"><clipPath id="clip_0"><rect width="260" height="178"></rect></clipPath><g><g><g><line x1="0" y1="0" x2="0" y2="178" fill="rgb(0, 0, 0)" stroke="rgb(60, 60, 60)" stroke-width="1px" opacity="0.25"></line><line x1="20" y1="0" x2="20" y2="178" fill="rgb(0, 0, 0)" stroke="rgb(60, 60, 60)" stroke-width="1px" opacity="0.25"></line><line x1="40" y1="0" x2="40" y2="178" fill="rgb(0, 0, 0)" stroke="rgb(60, 60, 60)" stroke-width="1px" opacity="0.25"></line><line x1="60" y1="0" x2="60" y2="178" fill="rgb(0, 0, 0)" stroke="rgb(60, 60, 60)" stroke-width="1px" opacity="0.25"></line><line x1="80" y1="0" x2="80" y2="178" fill="rgb(0, 0, 0)" stroke="rgb(60, 60, 60)" stroke-width="1px" opacity="0.25"></line><line x1="100" y1="0" x2="100" y2="178" fill="rgb(0, 0, 0)" stroke="rgb(60, 60, 60)" stroke-width="1px" opacity="0.25"></line><line x1="120" y1="0" x2="120" y2="178" fill="rgb(0, 0, 0)" stroke="rgb(60, 60, 60)" stroke-width="1px" opacity="0.25"></line><line x1="140" y1="0" x2="140" y2="178" fill="rgb(0, 0, 0)" stroke="rgb(60, 60, 60)" stroke-width="1px" opacity="0.25"></line><line x1="160" y1="0" x2="160" y2="178" fill="rgb(0, 0, 0)" stroke="rgb(60, 60, 60)" stroke-width="1px" opacity="0.25"></line><line x1="180" y1="0" x2="180" y2="178" fill="rgb(0, 0, 0)" stroke="rgb(60, 60, 60)" stroke-width="1px" opacity="0.25"></line><line x1="200" y1="0" x2="200" y2="178" fill="rgb(0, 0, 0)" stroke="rgb(60, 60, 60)" stroke-width="1px" opacity="0.25"></line><line x1="220" y1="0" x2="220" y2="178" fill="rgb(0, 0, 0)" stroke="rgb(60, 60, 60)" stroke-width="1px" opacity="0.25"></line><line x1="240" y1="0" x2="240" y2="178" fill="rgb(0, 0, 0)" stroke="rgb(60, 60, 60)" stroke-width="1px" opacity="0.25"></line><line x1="260" y1="0" x2="260" y2="178" fill="rgb(0, 0, 0)" stroke="rgb(60, 60, 60)" stroke-width="1px" opacity="0.25"></line></g><g><line x1="0" y1="178" x2="260" y2="178" fill="rgb(0, 0, 0)" stroke="rgb(60, 60, 60)" stroke-width="1px" opacity="0.25"></line><line x1="0" y1="155.75" x2="260" y2="155.75" fill="rgb(0, 0, 0)" stroke="rgb(60, 60, 60)" stroke-width="1px" opacity="0.25"></line><line x1="0" y1="133.5" x2="260" y2="133.5" fill="rgb(0, 0, 0)" stroke="rgb(60, 60, 60)" stroke-width="1px" opacity="0.25"></line><line x1="0" y1="111.25" x2="260" y2="111.25" fill="rgb(0, 0, 0)" stroke="rgb(60, 60, 60)" stroke-width="1px" opacity="0.25"></line><line x1="0" y1="89" x2="260" y2="89" fill="rgb(0, 0, 0)" stroke="rgb(60, 60, 60)" stroke-width="1px" opacity="0.25"></line><line x1="0" y1="66.75" x2="260" y2="66.75" fill="rgb(0, 0, 0)" stroke="rgb(60, 60, 60)" stroke-width="1px" opacity="0.25"></line><line x1="0" y1="44.5" x2="260" y2="44.5" fill="rgb(0, 0, 0)" stroke="rgb(60, 60, 60)" stroke-width="1px" opacity="0.25"></line><line x1="0" y1="22.25" x2="260" y2="22.25" fill="rgb(0, 0, 0)" stroke="rgb(60, 60, 60)" stroke-width="1px" opacity="0.25"></line><line x1="0" y1="0" x2="260" y2="0" fill="rgb(0, 0, 0)" stroke="rgb(60, 60, 60)" stroke-width="1px" opacity="0.25"></line></g></g></g><g><g><line x1="0" y1="155.75" x2="260" y2="155.75" fill="rgb(0, 0, 0)" stroke="rgb(153, 153, 153)" stroke-width="1.5px"></line></g></g><g><g><line x1="20" y1="0" x2="20" y2="178" fill="rgb(0, 0, 0)" stroke="rgb(153, 153, 153)" stroke-width="1.5px"></line></g></g><g><g><g><g><g><path stroke="rgb(255, 112, 67)" stroke-width="2px" d="M23.680000000000003,-27.565369391516185L24.6,33.61361857534936L24.7,65.86693269644432L25.12,67.21308823870041L25.220000000000002,63.825474262038156L25.36,55.875736832632086L25.48,46.09217846228387L26.18,11.74621114505507L26.220000000000002,-10.450415325549073L26.38,-30.16355732514623L26.8,31.58669696358905L26.96,62.359996970805824L27.36,65.38772822727096L28.44,26.679328938049736L28.459999999999997,2.7341191143333674L28.86,55.92217020537447L28.919999999999998,85.65493836290283L29.220000000000002,92.67949631887659L29.28,94.70186952748243L29.3,95.19413667436405L29.5,88.29223626488988L29.88,70.50450799937866L30.3,44.96155733927591L30.740000000000002,14.218305847723542L31.28,54.27254695887997L31.48,71.37771678216252L31.6,77.5070727922523L31.740000000000002,76.42290824813125L31.76,75.08337873615065L32.42,51.87648801409293L32.7,28.49207946712434L32.84,9.698035272504313L32.86,-2.2414803522377156L32.96,-17.86849801567081L33,50.219162870696664L33.24,83.10306137061723L33.44,96.22910614627764L34.3,75.68947638291307L34.46,58.13527108356894L34.62,42.358714066111105L35.059999999999995,18.496630050953115L35.14,72.74006438011602L35.32,99.4592006214946L35.4,112.91272870420066L35.44,119.65133993248287L35.620000000000005,117.93191094191135L35.72,113.74606616963865L35.76,109.98023728479082L35.86,104.48099002712432L35.9,99.87171410904796L35.98,94.53070019394434L36.06,88.77317160562437L36.18,81.43144039013241L36.2,76.38482595282943L36.66,58.70102564982264L36.739999999999995,45.551872714112335L37.4,85.81815970634827L37.54,105.57824319319373L37.66,113.65900117714672L38.16,102.71559560374897L38.2,94.92656493060875L38.36,85.26593287926369L38.64,70.61112681740198L38.86,54.96008917637869L38.919999999999995,43.65958656246784L39.1,31.340334359355694L39.26,19.020968633191558L39.44,6.049753201399312L39.46,65.3004934781516L39.58,97.1086094596937L39.6,115.58562436722247L39.699999999999996,123.57846893796044L40.06,117.26453502488565L40.120000000000005,111.60850663504856L40.3,102.69541858063852L41.28,67.2501341561956L41.34,44.204249829654856L41.379999999999995,29.11902929232417L41.46,17.67186747773826L41.58,7.0921530550023135L41.68,64.17169186657073L41.88,92.43373737336042L42,105.72065009003187L42.1,110.69820846222225L42.3,107.52169338788022L43.14,80.20732731202501L43.22,61.43285146534002L43.239999999999995,49.56615135771963L43.26,41.8461113712724L43.620000000000005,26.263545631357175L43.88,74.43045636135825L44.13999999999999,95.53478159269386L44.900000000000006,85.47678162651475L45.12,72.8217483704401L45.18,63.45713300663907L45.239999999999995,56.05716437429594L45.64,39.78540673004633L45.76,26.4045803661528L45.9,14.178778493129187L46.339999999999996,58.299976068045495L46.4,83.03255557490934L46.62,91.41440038596122L46.68,94.66605168177205L46.74,94.82518086257886L46.76,94.32381081246918L47.72,65.67252550115339L47.839999999999996,44.9730901053795L47.86,31.944061338618326L48.3,74.9938830128878L48.54,93.81228224913893L48.74,99.25695394420993L48.82,100.21041316242439L49.34,85.51806088573588L49.559999999999995,70.21414536933214L49.72,56.372072426677434L49.839999999999996,44.567303465772085L50.48,82.09478112121128L50.56,102.27763545739474L51.06,99.81753635256185L51.379999999999995,89.0988855566543L51.4,82.07470433203946L51.699999999999996,69.21820433750493L51.78,59.108340034143566L52.1,43.75385475290801L52.120000000000005,33.94424214861982L52.56,78.09405512803909L52.76,98.89983819156954L52.82,109.68138945058627L52.919999999999995,113.24160856048847L52.98,113.68100478473058L53.379999999999995,102.35373751439303L53.660000000000004,87.48261748422175L53.839999999999996,73.36920950420492L53.92,62.587029999397956L53.96,54.956654718388776L54,49.22164683493949L54.06,44.05445929236993L54.199999999999996,36.93964705979698L54.38,27.46793618509693L54.66,75.90655712121439L54.7,103.81497260891028L54.76,118.83259513150828L54.86,125.03455864140497L54.919999999999995,127.00792862966719L54.94,127.61357773444094L55.34,116.54661202152394L55.52,104.74285510353936L55.64,94.23243654845174L55.800000000000004,83.37483275426636L55.980000000000004,71.7638927677942L56.120000000000005,60.81262755520777L56.54,42.171486787030915L56.62,28.74376765815603L56.82,76.68867478861921L56.900000000000006,103.15628282727309L57.08,113.91524965241855L57.34,113.00818840229097L57.4,110.75385989196053L57.52,106.0439485523638L57.559999999999995,102.10375043024642L58.36,76.97936778744473L58.7,52.29477633652934L58.900000000000006,93.09823828269153L58.96,115.87961543360419L59,128.42948618215956L59.36,125.75189819122934L59.64,116.23297487665167L59.68000000000001,109.40293912520974L60.04,95.16592512063366L60.120000000000005,84.35347360265362L60.28,73.31119085104531L60.62,57.18012144422093L60.74,44.11207906770443L61.220000000000006,83.67688201093516L61.480000000000004,100.1476904614439L61.54,108.35908428419056L61.559999999999995,112.70527162764324L61.64,113.01380179494531L61.72,110.9300369851703L61.800000000000004,107.45136237664906L61.94,101.43274774825507L62.24,89.3763633218046L62.92,63.14945246573902L63,45.17172709467778L63.14,30.453651588837943L63.32,77.20157995476758L63.76,92.94993183516524L63.800000000000004,101.30459931106009L63.84,105.18417622481965L64,103.03424567629804L64.16,97.28642162452883L64.24,91.61391791612354L64.64,77.1253657399085L64.74,65.5714276470701L64.76,58.08965927378895L64.8,52.499483992007725L64.86,47.470996791689004L64.96000000000001,41.628562967591535L65.1,34.15903050516428L65.16,28.0112336351298L65.26,21.54203993693727L65.64,67.45446904272876L65.83999999999999,89.44508243882086L65.96000000000001,99.26192220499173L66.08000000000001,101.83758762475286L66.16,101.13499376137516L66.39999999999999,94.00865851268446L66.42,89.18106170917318L66.92,72.45325177159765L67.10000000000001,57.391651014130474L67.8,88.93996710994313L67.82,107.31093589340728L67.86,117.19673554727484L68.74,98.5870031203571L68.9,83.11786808315176L69.04,70.00093466825044L69.08,61.02270289079401L69.12,54.498293414163896L69.22,47.8118452867796L69.72,89.92649038587392L69.74,114.63806392146577L69.94,123.94697979575054L69.97999999999999,128.4290210256437L70.08000000000001,128.36054023989794L70.36,120.58095065761063L70.48,112.57943638577731L70.66,102.81187369670076L70.96000000000001,88.60216699145795L71.03999999999999,77.91449907182789L71.08,70.40914519504986L71.58,52.1427216873424L72.02000000000001,88.64864645845036L72.14,107.21779274567568L72.48,109.09032271771791L72.6,106.93075976832606L72.62,105.08687021646439L72.9,96.27852950292551L73.12,84.9463857437475L73.58,65.50021469820162L73.72,49.993748252514706L73.82000000000001,37.91455461557135L74.08000000000001,82.89523452410356L74.22000000000001,106.05351383457932L74.52,111.76135382076713L74.75999999999999,108.58666326902276L74.82000000000001,105.01877442625741L75.10000000000001,95.2621616284107L75.8,70.21573506298392L75.82,54.65403556904033L75.84,44.768901028924176L76.2,88.05111735838234L76.5,105.86975433836926L77.46,90.23387499071687L77.64,75.9560501897426L77.82000000000001,62.50406795564244L77.94,51.14199497260421L78.36,91.87224910453422L78.4,115.18296703169025L78.42,128.62805110524462L79.36,111.3066836416624L79.52,96.50260293402087L79.98,75.14024467056878L80.24000000000001,55.2956886968725L80.55999999999999,93.32070635014254L80.62,114.54861795071054L80.78,122.87095839249663L80.84,126.20558713266595L81.32,115.27903941338863L81.4,106.5322006499863L81.44000000000001,100.20352309995272L82,81.1965099048935L82.46000000000001,57.39687913629548L82.75999999999999,93.48999224923335L83.12,105.43591910442282L83.24000000000001,109.35178003931385L83.56,103.06469292593205L83.92,89.56023850946549L83.94,80.93024955099179L84.08,72.01314367590757L84.14,65.00550285593516L84.62,47.83109351043612L84.82,90.44774334266609L84.88,114.40999090458646L84.9,128.25559282461222L84.94,135.47440667743336L84.96,139.25384093944342L85.46,128.07655250067776L86.11999999999999,103.56192803360979L86.28,84.53290301157212L86.56,65.59010342803701L86.58,53.66367152947848L86.92,37.41335086690583L87.5,70.31267225110054L87.53999999999999,88.96246051618766L87.74000000000001,94.72818219350165L88.08,89.02453936981192L88.17999999999999,82.89784444708246L88.62,67.4277739045776L88.78,53.87674315134031L89,39.85076991424168L89.04,30.37330037627939L89.18,78.90976771356061L89.30000000000001,104.77322198677895L89.44,116.53002982903027L89.56,120.36281700630488L89.62,121.070470306322L89.96,112.36638052363695L90.2,100.78759054562748L90.25999999999999,92.23166763304054L90.72000000000001,74.71703837279308L90.75999999999999,63.15290681273835L90.88,53.02240463451801L90.96000000000001,44.806756159617066L91.28,31.399552133270248L91.62,72.06791847478637L92.02,85.89047671963743L92.38000000000001,84.52657516752465L92.41999999999999,82.64684839641322L92.46,80.44612993628544L92.52000000000001,77.51476409458377L92.58,74.146409140344L92.92,63.067842701003286L93.14,50.56452456591447L93.42,35.6229897883768L94.06,67.1112806406042L94.54,73.27642946834689L94.61999999999999,74.87206373569565L94.66,74.75793514083145L94.78,71.5225833257098L94.84,68.00052060089463L95.2,56.39049624725553L95.46000000000001,42.4844980413221L95.62,87.24789229136125L95.88000000000001,107.14338721197495L95.98,116.45966295462637L96.3,113.55858830011958L96.4,109.16386399081394L96.44,105.50803807222273L96.64,98.03288358552115L96.72,91.40914653314861L97.30000000000001,72.16018586910792L97.4,57.935038376933505L97.54,45.72096453006637L98.42,72.27467572731717L98.58000000000001,83.94695851256219L98.72000000000001,87.30267100597482L98.8,87.1966230381552L99.02,81.25552421351811L99.14,74.53418093436086L99.25999999999999,67.3528913242884L99.7,51.4536058394949L99.92,36.20058220486882L100.02,81.41838972514299L100.2,103.83904501672642L100.22,116.76488618361984L100.46,118.14416829464457L100.67999999999999,113.21482927268517L100.74,108.68242778822048L101.88,75.97907376277603L101.97999999999999,53.7254121775875L102,39.85757147647436L102.2,83.0614150446981L103.66,70.68200488619387L103.88000000000001,57.517365773513205L103.89999999999999,49.09468606567043L103.94,42.980270379636636L103.98,38.25535002075074L104.03999999999999,33.83482890893481L104.06,30.65367459145463L104.56,72.30624276756811L104.66,94.69682820448617L104.72,106.5658289539417L104.88000000000001,109.49435487968924L105.28,100.83775882625103L105.34,94.07588019809438L105.36,89.50823068233319L105.66000000000001,78.90424978635302L105.97999999999999,64.15008688353056L106.1,52.15096111449334L106.18,42.854935946039774L106.36,32.61637172387387L106.4,25.412690417136815L106.58000000000001,72.83996783304576L106.66,99.18557955847004L106.88,109.28136235910546L107.39999999999999,101.76545420745546L107.58,92.55114029791076L107.88000000000001,79.16191376859021L108.02,67.44222643498225L108.13999999999999,57.34336017739561L108.22,49.20991019823424L108.24000000000001,43.81820319901868L108.62,87.05951637284137L108.67999999999999,111.43318389291869L109.4,107.32823423711841L109.52,101.74748102078668L109.82,90.54629791422983L109.86,82.80285506689725L110.2,69.3430037627946L110.22,60.74307071470801L110.6,45.69889604210607L110.61999999999999,36.158737820576135L110.68,28.884439323205044L110.86,76.04740729204315L111.08,98.68951538352665L111.58,99.27230720374881L111.64,98.02868239353835L111.86,91.58588824471674L111.92,86.11368353276755L111.96000000000001,81.78080821536365L112,78.14547155031192L112.58,60.957005244640285L113,95.81894352764354L113.14,113.04258694178144L113.3,119.29971905960011L113.38,120.9925141017757L113.52000000000001,118.380701271124L113.54,116.29061580661971L113.55999999999999,114.53136132967495L113.76,108.30286399018779L114.28,91.12151380426891L114.38,78.18763391732698L114.7,62.072252811333684L114.92,46.71069626687833L115,35.4547323597364L115.02,28.19212442560746L115.18,75.57115270712228L115.3,100.92294228955657L115.36000000000001,114.5704928944859L115.53999999999999,118.07265774841028L115.62,118.0825794268782L115.75999999999999,114.51899470202535L115.78,111.85964848137147L115.89999999999999,107.14120327339319L116.02,101.19986210075466L116.06,96.62662612275749L116.12,92.33853019025605L116.82,71.78170380751301L117.06,53.19410206966404L117.44,88.07472518833163L117.9,97.0710547296982L118.3,92.16090656828767L118.78,76.88176435112885L119.10000000000001,59.417758122396066L119.25999999999999,44.82950995156264L119.44,87.13771286180673L119.5,110.95002975871L119.53999999999999,124.19119214111468L119.56,131.60909420312584L120.44,113.42659114101612L120.56,99.4727439180081L120.62,89.53098055490642L120.76,79.96098579388135L121.02000000000001,67.52154772632879L121.06,59.039508469781666L121.08,53.43195117561902L121.22,46.4757279319339L121.58,88.65042780988054L122.14,99.50085369520568L122.54,95.76599134309997L122.58000000000001,92.48482993769592L122.7,87.44621324582067L123.22000000000001,71.08372931467989L123.32000000000001,58.674844034120426L123.66,42.56918273883164L124.02,79.18280806859194L124.17999999999999,97.03768073959266L124.8,91.81869174453685L125.34,74.8281644607846L125.80000000000001,52.873315082720765L126.38,80.16616647883168L126.6,90.90778728964276L126.92,89.2321007917544L127.2,81.00063852681045L127.22000000000001,75.57909478600816L127.61999999999999,62.09826942043304L128.42,88.81013875186919L128.79999999999998,95.10951037514495L128.86,97.35626262157135L128.96,96.11496587372406L129.7,76.5080284500157L129.84,61.24524036102504L129.92000000000002,50.00948703888062L130.04,40.20260648114089L130.16,31.241733371106392L130.32,76.96209739265896L130.36,103.38086334282194L130.84,107.00428775666973L131,105.07776735615028L131.34,95.20797723497923L131.48,85.72962100895627L131.72,73.91790800576439L131.76,65.81370754759925L131.88,57.92581739965331L132.12,47.09552295932326L132.22,38.05372803340643L132.42000000000002,82.56400368100579L132.62,104.208695775498L133.18,102.81282747506444L133.22000000000003,100.97184670476521L133.29999999999998,97.85293793008569L133.6,88.3733138078561L134.42000000000002,61.87751098979179L134.48000000000002,44.45352285364072L134.84,79.81810953737971L135.20000000000002,91.85633337379504L135.54000000000002,90.43960788560514L135.6,88.07370660148028L135.7,84.12273943940379L135.8,79.1922922964548L136.16,67.02869490912288L136.18,59.22453584195809L136.52,45.92336818486234L136.57999999999998,36.45633717068304L136.72,82.12861147294207L137.26,95.76713061667539L137.3,102.95470235682164L137.44,103.69907873831174L137.8,95.0151845720886L137.98,85.29929043075317L138.16,74.92650819399877L138.36,63.640516244524264L138.58,51.23205305726144L138.67999999999998,41.27244701990375L139.06,80.48038254910047L139.16,101.46389455631574L139.2,113.05430643593789L139.28,117.98909337084007L139.45999999999998,116.37513955521888L139.82,106.19989652610009L140.22,90.04679194398035L140.32,77.81196061560696L140.5,65.90896440647354L140.62,55.672387237634126L140.72,47.000546405080485L140.78,40.28771422000142L141.22000000000003,79.87271793629772L141.57999999999998,94.50711619879036L141.66,101.29261351810234L141.76,102.85570243703327L142.07999999999998,95.72666184307934L142.12,90.43059380994917L142.44,79.12183172542262L142.48000000000002,71.30982823447233L142.6,63.60119781958966L142.64,57.97140599644129L142.68,53.57076967208354L142.92000000000002,44.84392645168762L142.96,38.59163433780944L143,33.8262022823732L143.46,73.99309348856453L143.64,93.53485615417388L143.70000000000002,103.76052558215277L144.02,101.81105077409636L144.24,95.082359834575L144.28,90.04690684312781L144.4,84.00686195255636L144.66,73.76962439809631L144.76000000000002,65.12571697284217L145.02,53.41512930479905L145.8,81.23192578844585L146.26,86.32658674748156L146.34,87.36059540786395L146.36,87.4675101499918L146.5,84.03436966421384L146.84,73.42604406415329L147.06,61.50495427052323L147.28,48.77655034551705L147.42,37.600276105747724L147.54,82.33288480102189L148.01999999999998,97.08536702563266L149.12,78.28047465873897L149.20000000000002,64.97808665071214L149.46,50.48119329902103L149.76,88.56199534037452L149.92000000000002,107.38265103112901L149.94,118.18853157326724L150.01999999999998,122.64900798204629L150.22,120.3192469889348L150.42000000000002,113.86379916992338L150.44,109.46576509765715L150.46,106.32781457617243L150.62,100.47252404843782L151.02,86.8105554446877L151.5,66.59885230978136L151.64,50.94894707922819L151.70000000000002,40.046799204568146L151.9,82.75311346439128L152.07999999999998,103.86695684816603L152.14,115.02622941895821L152.33999999999997,116.74209412110149L152.44,115.24409442432105L153.16,96.27040389580357L153.34,80.38499502302902L153.38,69.8457725509268L153.46,61.51412876493107L153.58,53.46472833317739L153.64,47.130049402250194L153.78,39.861201467521965L153.94,85.72696940689565L154,111.76692722366619L154.16,123.36310449093799L154.24,128.29924081956278L154.78,117.813363754433L154.86,109.50681319894885L155.08,98.95455962347089L155.3,87.08544973892627L155.54,73.95848283163701L156.36,99.63837021045681L156.66,107.58597378643033L156.94000000000003,105.3418313421707L157.1,99.99261433264618L157.38,89.74733861911896L157.4,83.09606510994794L157.92000000000002,66.06828071635937L158.20000000000002,48.851864377081256L158.70000000000002,80.00156077712765L159.27999999999997,84.2053194740891L159.34,85.25068531238314L159.46,82.90360781828925L159.82,72.4895130308173L159.85999999999999,65.25234785755286L160.22,51.944780638359845L160.3,41.95737092207841L160.8,77.52087853469234L160.94,95.35273401778807L161.2,99.53110781789941L161.32000000000002,99.03421913409902L161.84,85.83658106542033L162.14,70.42755093417409L162.3,57.19594105855133L162.32000000000002,48.75223475231829L162.76,86.60733001154722L162.84,107.3616212369088L163.12,112.775278101032L163.36,110.07475980495514L163.38000000000002,107.96941838297309L163.52,103.24563235302604L163.8,93.46312465107343L163.92,84.60061912658156L164.1,74.73202606579267L164.28,64.34253136213185L164.32,57.09746339735723L164.34,52.24454366341436L164.72,39.75964240898611L164.78,84.6817429084654L164.95999999999998,107.12439816817495L165.22,114.14350740676434L165.70000000000002,106.40323986886331L166.01999999999998,93.78868825725549L166.24,80.72642794458767L166.6,63.864984549955736L166.79999999999998,48.81934370848907L166.82,39.276715258296576L166.94,84.39987990876214L167.07999999999998,108.01470195038422L167.16,120.18346466998639L167.18,126.9873940607809L167.20000000000002,130.5811615768494L167.64,121.73012382599245L167.66,115.90993706415017L167.74,110.43455908907603L167.78,106.15143718684406L167.96,99.11038960702831L168.04000000000002,92.89218496050606L168.62,74.72189652317863L168.64,63.31058957406343L168.82,52.04013167412556L168.88,43.787697949787855L169.02,35.32687819370082L169.22,79.0435496426609L169.24,104.7771996098153L169.28,119.23023650783254L169.38,125.43604377847882L169.58,124.13598821777089L169.94,114.34556641699066L170.06,105.52177163730376L170.08,99.72988568746038L170.24,92.31744496228092L170.62,78.38358655744669L170.96,61.57611985438987L171.94,80.91153502298549L172.2,86.05166442199443L172.26,87.61717738854823L172.88,73.2313218139883L172.9,64.09930080323673L173.23999999999998,50.10978043311391L173.44,90.37475726133319L173.5,113.04859768565733L173.54,125.677226131536L173.76,127.8551601296052L173.88,126.19076112903265L174.01999999999998,121.73436417253677L174.38,110.1312620337955L174.4,102.64281669293355L174.48000000000002,96.19115629993982L174.54,90.79683684637016L174.57999999999998,86.56469890957989L174.85999999999999,77.06039043949794L174.94,69.39423416604251L175.16,59.316616476188L175.22,51.77738375290028L175.62,90.86988437466498L175.78,110.36357641947673L175.98000000000002,117.12937688195947L176.22,115.2385889831796L176.68,102.75733654420462L176.78,92.78939404078059L177.12,78.32487084829647L178,101.43840133588219L178.02,114.81795938673439L178.10000000000002,120.88881160616172L178.66,110.6031195320564L179.52,83.11056356493697L179.67999999999998,62.678887650680934L179.84,46.43967433845543L179.86,89.6636767786714L180.45999999999998,100.76657739288645L180.54,105.41989239520453L180.76,102.79793165294303L181,95.30356087164863L181.06,89.29123102982511L181.1,84.69377331027788L181.18,79.9880781951511L181.34,73.20397860654379L182.54,92.91130836753955L182.66,101.80262387550421L182.68,106.62667246983378L183.01999999999998,101.09044625533775L183.16,94.29147661550735L183.62,78.84760965094502L183.70000000000002,67.61646671830138L183.98000000000002,53.972988868871454L184.32,90.76809317483848L184.44,109.92202289709059L184.7,115.01929290085201L185.1,108.24962239578464L185.28,99.70053613278328L185.6,86.69829995115435L185.64,77.90541654295824L185.82000000000002,68.1834846425718L186,57.872812855855585L186.16,47.696002654919596L186.56,85.0558711425123L186.60000000000002,106.45912444331988L186.66,117.82841378342357L186.7,123.65564216653851L186.82000000000002,124.20234732384888L187.06,118.6301690876687L187.08,114.78266497799184L187.22,109.01946541745917L187.28,104.09402998289737L187.38000000000002,98.69165548973842L187.52,91.99400183876493L187.56,86.9990952927121L188.58,112.07174832247784L188.8,121.66918737849647L188.86,125.9579312991682L188.95999999999998,126.0851399806728L189.28,118.29131643469275L189.36,111.6795221850344L189.38,107.22285654832532L189.42000000000002,103.55943399735457L189.62,96.43998466599086L189.70000000000002,90.19020967166483L189.78,84.4852649875692L189.96,76.63836153160402L189.98,71.43474411622803L190.07999999999998,65.82427186036182L190.16,60.48740335059209L190.18,56.778325555277135L190.48000000000002,47.133103585119414L191.1,79.23793225605212L191.34,92.5833235382016L191.48000000000002,97.1324259344444L191.57999999999998,97.41846146886976L191.85999999999999,90.73675251608748L192.04,82.32386764734778L192.34,69.89366712161178L192.55999999999997,57.02392527296708L192.7,45.790417419639624L192.72,38.55088712170564L192.9,82.97774165107515L193.66,91.03129616252009L193.72,94.36071514868392L193.76000000000002,95.39329451889786L193.82000000000002,94.55174939200278L193.83999999999997,93.5537544936001L193.92,90.97723675377725L194.56,73.66360938625074L194.84,56.40226455753168L195.5,82.8363682682104L195.58,96.7669069960825L195.94,96.27310249843075L196.04,93.52584975589438L196.34,84.51890162599756L196.4,77.66074522364542L196.45999999999998,72.06327564981225L196.88,58.424611630121746L197.1,44.81102693901056L197.38,82.78269840827939L197.58,100.67939541215513L197.64000000000001,109.91543757688292L197.72,113.48764454075865L198.06,107.30102827718956L198.1,102.59281476904812L198.16,98.26421037021794L198.57999999999998,85.44543901509951L198.62,76.76284744226284L198.72,69.06609015481081L198.94,59.089579581167726L199.1,49.152699018231885L199.18,41.25500754570473L199.51999999999998,81.11022671370212L199.64,102.09205706093613L199.84,109.76552621654214L199.88,113.39884716303077L200,112.65353184518175L200.1,109.78788824773405L200.20000000000002,105.64290226016386L200.26000000000002,101.66571691762176L200.55999999999997,91.94807416912775L200.57999999999998,85.61047316358604L201.12,68.60504068526099L201.28,54.46347470412536L201.48,94.00914390298058L201.7,112.31451389305788L202.11999999999998,113.06916318202613L202.46,105.19394397855162L202.48,99.97699836955285L203.12,81.18522114087233L203.14,69.39542365132029L203.26,59.36248202282343L204.3,80.82378982404559L204.34,92.7300703543883L204.54,94.96051936107047L204.67999999999998,92.8404130326579L205.22,78.31125602271975L205.64000000000001,59.38979448277249L205.84,95.96592788137492L206.16,110.06442878693042L206.20000000000002,117.57120108319342L206.23999999999998,121.08707873097075L206.34,120.7522592136801L206.98000000000002,104.85288326258306L207.07999999999998,92.89265976712016L207.29999999999998,80.36541587980332L207.32,72.35501959624138L207.4,65.56446424797919L208.26000000000002,93.29258404195159L208.32,108.48275505163579L208.72,107.82650349484867L208.84,104.49258019749514L208.85999999999999,102.01202602377052L209.38,87.80139774316856L209.52,75.88232599941676L209.66,65.31809799222819L210.32000000000002,95.64468161638183L210.76,103.0426443213916L210.78,106.99384709088184L210.96,105.01963916273223L211.10000000000002,100.41461364900653L211.16,96.2045661142086L211.3,90.26809713922827L211.36,85.22567598373226L211.74,72.9336654046925L211.8,64.08657810023736L212.02,53.399018832798646L212.24,41.60954045006983L212.44,82.44391079958292L212.48,105.97687964015014L212.5,119.61635156338696L212.56,126.32761054740718L213.04,118.63452174836618L213.14000000000001,111.59450924042595L213.16000000000003,106.88211206281026L213.23999999999998,102.09697360975646L213.62,89.9277893660492L213.82,77.76009735009826L213.98,66.51593038271521L214.22,53.86663557337913L215.01999999999998,79.51608163699623L215.20000000000002,90.48764456325243L215.22,96.57324701627178L215.34,97.34067386894276L215.38,96.84295241706879L215.56,92.16273395024128L216.26000000000002,72.30291121975414L216.82,99.36671435880561L216.88,114.14784613237322L216.94,121.54756672483408L217.12,121.61313490794731L217.68,108.0540623900809L218.16,88.21080794186105L218.35999999999999,71.41076352488224L219.46,87.08375818817154L219.58,93.56666885333262L219.66,95.52193202489018L219.72,95.24278636337161L219.94,89.74682811685109L220.3,77.69561645018878L220.4,68.04407641308201L221.02,99.67831619697031L221.12,116.23774011491071L221.14000000000001,125.69473047641712L221.18,130.4210518783796L221.42000000000002,127.42001623444962L221.45999999999998,124.6537296381307L221.7,117.18561690885498L221.9,107.88857380742236L222.16,95.95913542214873L222.26,86.39245576500798L222.28,80.1459388886923L222.57999999999998,69.10742514962162L222.70000000000002,59.5285565057886L222.9,48.91483873745753L223.38,83.4063690139589L223.72,95.87409436980113L223.88,99.44082747149005L224.16,94.79477160496434L224.78,76.9409221426661L224.92,62.79292130317778L224.98000000000002,52.85356420768791L225.14,42.989603173050256L225.46,81.80781097609577L225.54000000000002,103.16244461788403L225.64,113.5294793805937L225.68,118.76950625628591L225.72,120.93732101451374L225.78,120.80379094855198L226.48,103.708561214639L226.6,90.59685267116622L226.61999999999998,82.25065728141068L226.76,73.82612010126827L226.94,64.40935482443284L227.34,49.006964213019074L227.58,86.42545294187396L227.89999999999998,101.0316926757689L227.94,108.8405855883715L227.95999999999998,113.03449184374556L228,114.58239456913796L228.12,112.60658774245934L228.2,109.4687856532881L228.3,105.17197939978536L228.42,99.7319546320587L228.52,94.03844401946961L228.67999999999998,86.77005652398644L229.1,72.20204729329812L229.38,56.588073346681995L229.6,94.33728088545061L229.8,112.1126001413778L229.88,120.82945382261964L229.9,125.5696173375171L230.46,114.81293361051806L230.64000000000001,103.99236522002178L230.79999999999998,93.64833407341932L231.1,80.19172681123908L231.12,71.64023486604032L231.35999999999999,60.73559941571794L231.98000000000002,91.5195528623214L232.16,105.62143293809595L232.29999999999998,110.70885041227163L232.42000000000002,110.83701425126924L232.48000000000002,109.45815632908185L232.5,108.14668679061317L232.6,104.94831139077415L232.78,98.67525448583169L232.94,91.04473103622557L233.07999999999998,83.06923959829783L233.1,77.80521338788495L233.14,73.67584590382471L233.34,66.30239103838858L233.4,60.43115986717376L233.44,55.955091232804264L233.94,93.41742990447749L234.04000000000002,113.49866889849704L234.16,122.6380015344107L234.24,126.17925542504096L234.98,110.40691280092302L235.10000000000002,98.02386831043663L235.14,89.6352795555979L235.16,84.12210210835873L235.18,80.32960193884338L235.3,75.17499094846228L235.62,64.23765658079613L235.74,54.80653564769641L235.76,48.643826710883474L236,39.191264923014444" style="fill: none;" fill="none"></path></g></g></g></g><g opacity="0.2"><g><g><g><path stroke="rgb(255, 112, 67)" stroke-width="2px" d="M21.900000000000002,-267.912771484375L23.12,38.97326513671874L23.18,31.809873291015634L23.36,11.032382202148455L23.680000000000003,-25.832043579101537L24.6,125.18234051513672L24.7,114.18371627807616L25.12,69.23073919677735L25.220000000000002,58.74644250488281L25.36,43.95449475097658L25.48,31.41932495117186L26.18,-39.76750756835938L26.38,-59.73218920898435L26.8,124.2100464782715L26.96,108.51933941650391L27.36,69.92928924560547L28.44,-31.38299487304687L28.459999999999997,-33.18359350585939L28.86,135.70411074829101L28.919999999999998,130.25404495239258L29.220000000000002,103.21632678222656L29.28,97.73542822265625L29.3,95.93253723144531L29.5,77.93938702392578L29.88,43.82291772460937L30.3,6.647133178710931L30.740000000000002,-31.89657006835938L31.28,114.35390759277342L31.48,97.03547125244141L31.6,86.70110675048828L31.740000000000002,74.79666143798829L31.76,73.07408447265625L32.42,17.06615197753905L32.7,-6.584533325195309L32.96,-28.56382861328123L33,152.35065419387817L33.24,132.42890911865234L33.44,115.91817330932616L34.3,44.88003173828125L34.46,31.803963134765638L34.62,18.693878540039066L35.059999999999995,-17.29649597167969L35.14,154.10521587371827L35.32,139.5379049835205L35.4,133.09302082824706L35.44,129.75925677490235L35.620000000000005,115.35276745605469L35.72,107.46729901123047L35.76,104.33149395751953L35.86,96.232119140625L35.9,92.95780023193359L35.98,86.51917932128906L36.06,80.13687872314453L36.18,70.41884356689454L36.2,68.814904296875L36.66,32.175325195312496L36.739999999999995,25.828143310546892L37.4,146.21759019470215L37.54,135.21836842346192L37.66,125.78013815307617L38.16,86.30048724365234L38.2,83.24301892089844L38.36,70.77498480224608L38.64,48.62891772460938L38.86,31.483532714843733L38.919999999999995,26.70883264160156L39.1,12.861456054687494L39.26,0.5419200439453107L39.44,-13.407069946289056L39.46,154.17660389328003L39.58,144.82078343200683L39.6,143.30114672851562L39.699999999999996,135.56773579406737L40.06,107.79363415527344L40.120000000000005,103.12446405029297L40.3,89.32578649902344L41.28,14.082207519531238L41.34,9.635423339843754L41.379999999999995,6.4911984863281305L41.46,0.5011247558593652L41.58,-8.777418579101578L41.68,149.79100008392334L41.88,134.82680563354492L42,125.65101916503906L42.1,118.1645460205078L42.3,102.7569207763672L43.14,39.23577819824217L43.22,33.27113769531252L43.239999999999995,31.76610119628907L43.26,30.266051391601565L43.620000000000005,2.8896970214843805L43.88,146.68082245635986L44.13999999999999,127.19126943969727L44.900000000000006,70.38978167724609L45.12,53.83919848632813L45.18,49.41020996093749L45.239999999999995,44.95721142578125L45.64,15.377770263671863L45.76,6.333340820312486L45.9,-4.159924316406261L46.339999999999996,124.48177243041991L46.4,120.13142483520508L46.62,103.98716760253906L46.68,99.54352862548828L46.74,95.06387463378907L46.76,93.57175573730468L47.72,22.695597534179683L47.839999999999996,13.923937011718749L47.86,12.400518188476582L48.3,139.568615524292L48.54,122.03988110351563L48.74,107.42396148681641L48.82,101.64060198974609L49.34,63.47953247070312L49.559999999999995,47.25827209472658L49.72,35.60896301269531L49.839999999999996,26.860150024414054L50.48,138.38599760437012L50.56,132.55191696166992L51.06,96.12738769531249L51.379999999999995,73.02090936279296L51.4,71.53843249511719L51.699999999999996,49.933454345703126L51.78,43.94354357910157L52.1,20.72212683105468L52.120000000000005,19.229823242187507L52.56,144.318774597168L52.76,130.10851278686522L52.82,125.85371633911133L52.919999999999995,118.5819372253418L52.98,114.34009912109374L53.379999999999995,85.36283660888672L53.660000000000004,65.17593743896484L53.839999999999996,52.199097534179685L53.92,46.41376074218749L53.96,43.51109179687501L54,40.619135009765614L54.06,36.30367797851562L54.199999999999996,26.26742871093751L54.38,13.26036987304687L54.66,148.56448852539063L54.7,145.6775958404541L54.76,141.35902891540528L54.86,134.33750390625L54.919999999999995,129.96798361206055L54.94,128.52205139160156L55.34,99.94616345214844L55.52,87.0372197265625L55.64,78.4668087158203L55.800000000000004,67.08842706298827L55.980000000000004,54.34748278808594L56.120000000000005,44.38572973632813L56.54,14.209775634765634L56.62,8.602188964843748L56.82,148.60603548431396L56.900000000000006,142.85769488525392L57.08,130.05369989013673L57.34,111.64759652709961L57.4,107.37236712646484L57.52,98.97908154296876L57.559999999999995,96.19345324707031L58.36,39.29279382324219L58.7,15.267889160156244L58.900000000000006,154.3034312019348L58.96,150.05168115997316L59,147.25429230499267L59.36,121.73551620483398L59.64,101.95458990478515L59.68000000000001,99.15788549804688L60.04,73.81040411376954L60.120000000000005,68.1347963256836L60.28,56.74776672363281L60.62,32.983517333984366L60.74,24.51001550292969L61.220000000000006,143.02408642578126L61.480000000000004,124.85390313720703L61.54,120.67617501831054L61.559999999999995,119.22455264282226L61.64,113.47659704589844L61.72,107.80438977050781L61.800000000000004,102.23335046386718L61.94,92.40482580566406L62.24,71.29178668212892L62.92,23.809086181640623L63,18.205139038085946L63.14,8.37653833007812L63.32,147.32347250366212L63.76,116.57245965576172L63.800000000000004,113.83660052490234L63.84,111.00354159545898L64,99.80934985351563L64.16,88.664685546875L64.24,83.10516235351562L64.64,55.392537475585925L64.74,48.240520507812505L64.76,46.86700671386717L64.8,44.11422106933594L64.86,39.928265991210935L64.96000000000001,32.86491223144532L65.1,22.95473181152343L65.16,18.78953833007813L65.26,11.838249389648439L65.64,136.32311270141602L65.83999999999999,122.43100253295898L65.96000000000001,113.98718185424805L66.08000000000001,105.70108575439453L66.16,100.08110296630859L66.39999999999999,83.31915563964844L66.42,81.93966650390625L66.92,47.36153686523437L67.10000000000001,34.79924987792967L67.8,136.2624412536621L67.82,134.86738906860353L67.86,132.02543502807617L68.74,70.67240447998047L68.9,59.914165527343755L69.04,50.325534545898435L69.08,47.55535522460937L69.12,44.711679199218764L69.22,37.782173095703115L69.72,153.09845803451537L69.74,151.70542422485352L69.94,137.91035360717774L69.97999999999999,135.1520828704834L70.08000000000001,128.2578190612793L70.36,108.91156628417968L70.48,100.57716497802734L70.66,88.16052966308594L70.96000000000001,67.28760693359375L71.03999999999999,61.88299719238282L71.08,59.15111437988281L71.58,24.743086425781257L72.02000000000001,143.4075336151123L72.14,135.07151217651366L72.48,111.89911767578124L72.6,103.69141534423828L72.62,102.32103588867187L72.9,83.0660184326172L73.12,67.94817010498046L73.58,36.330958129882816L73.72,26.73404858398439L73.82000000000001,19.795764160156267L74.08000000000001,150.36625438690186L74.22000000000001,140.79093280029298L74.52,120.32311380004883L74.75999999999999,103.82462744140625L74.82000000000001,99.66694116210937L75.10000000000001,80.62724243164062L75.8,32.64609521484374L75.82,31.311486328125L75.84,29.94119921875L76.2,152.97444185256958L76.5,132.5977098083496L77.46,66.78005596923828L77.64,54.53931298828124L77.82000000000001,42.3260946044922L77.94,34.098885498046855L78.36,152.9676303024292L78.4,150.1490439224243L78.42,148.79567721557618L79.36,85.32463244628906L79.52,74.29648187255859L79.98,43.09670727539063L80.24000000000001,25.528854736328128L80.55999999999999,150.3582328300476L80.62,146.3904853515625L80.78,135.3544690551758L80.84,131.20753024291992L81.32,98.88921783447265L81.4,93.41194250488282L81.44000000000001,90.71050677490234L82,52.68599011230468L82.46000000000001,21.697432983398443L82.75999999999999,147.62966191864012L83.12,123.35480938720703L83.24000000000001,115.22557144165039L83.56,93.63406225585938L83.92,69.30355688476561L83.94,67.98526611328126L84.08,58.637484863281244L84.14,54.494041625976564L84.62,22.069479492187497L84.82,154.37271809101105L84.88,150.35336224746703L84.9,149.02399570465087L84.94,146.30262745666505L84.96,144.92299233245848L85.46,111.31061984252929L86.11999999999999,66.78999133300782L86.28,55.98936547851562L86.56,37.17590405273438L86.58,35.774023681640614L86.92,13.037869873046873L87.5,119.66165432739257L87.53999999999999,116.93714291381835L87.74000000000001,103.37676470947265L88.08,80.46907513427735L88.17999999999999,73.70780206298828L88.62,44.22266809082032L88.78,33.550197021484365L89,18.81181005859375L89.04,16.15709606933595L89.18,151.71446871948243L89.30000000000001,143.56840339660644L89.44,134.16524159240723L89.56,126.1119977722168L89.62,122.13195025634766L89.96,99.31024584960937L90.2,83.4194055786133L90.25999999999999,79.39778326416017L90.72000000000001,48.445094482421865L90.75999999999999,45.80670947265625L90.88,37.82665136718751L90.96000000000001,32.48328344726562L91.28,11.288746093750007L91.62,133.07046798706054L92.02,106.62431408691407L92.38000000000001,82.48072283935547L92.41999999999999,79.82725823974609L92.46,77.14505224609375L92.52000000000001,73.11771533203125L92.58,69.09387670898438L92.92,46.44999304199217L93.14,31.80954736328124L93.42,13.21068762207031L94.06,114.34371691894532L94.54,82.52415270996094L94.61999999999999,77.26551513671875L94.66,74.58674224853516L94.78,66.66955560302733L94.84,62.71742651367188L95.2,38.97545971679688L95.46000000000001,21.62550073242187L95.62,154.39298366641998L95.88000000000001,136.9866295928955L95.98,130.4340765686035L96.3,109.20697631835937L96.4,102.57177752685547L96.44,100.02429919433594L96.64,86.82015185546875L96.72,81.47354095458985L97.30000000000001,43.28674487304687L97.4,36.59731713867188L97.54,27.39985375976562L98.42,112.10524252319337L98.58000000000001,101.45538269042969L98.72000000000001,92.33623974609375L98.8,87.03755108642578L99.02,72.34387597656252L99.14,64.452166015625L99.25999999999999,56.58095690917969L99.7,27.60467761230467L99.92,13.321046752929703L100.02,149.2451010055542L100.2,137.47002795410157L100.22,136.15364793395997L100.46,120.21309146118163L100.67999999999999,105.8208207397461L100.74,101.88382556152344L101.88,26.924042724609365L101.97999999999999,20.3449197998047L102,19.05581042480469L102.2,147.86718039703368L103.66,52.11288964843749L103.88000000000001,37.77040710449219L103.89999999999999,36.46066650390625L103.94,33.808646850585944L103.98,31.16796948242188L104.03999999999999,27.204047241210958L104.06,25.881943115234378L104.56,134.78509503173828L104.66,128.28270635986328L104.72,124.369330078125L104.88000000000001,113.88714376831055L105.28,87.85286474609376L105.34,83.93306225585937L105.36,82.65675640869141L105.66000000000001,62.998278442382826L105.97999999999999,42.018842529296876L106.1,34.152272460937496L106.18,28.910898193359372L106.36,17.258525390624982L106.4,14.607168457031236L106.58000000000001,143.98088395690917L106.66,138.70399714660644L106.88,124.4250365600586L107.39999999999999,90.49159197998047L107.58,78.72966943359374L107.88000000000001,59.07807397460937L108.02,49.86269543457033L108.13999999999999,42.195060791015635L108.22,37.00973522949218L108.24000000000001,35.73064270019532L108.62,151.92148613357543L108.67999999999999,147.99368517303466L109.4,101.17080975341797L109.52,93.37635119628906L109.82,73.74452325439452L109.86,71.18769079589845L110.2,49.15322680664062L110.22,47.843171142578115L110.6,23.132634033203118L110.61999999999999,21.848500488281246L110.68,17.972991577148434L110.86,146.7918592453003L111.08,132.65267752075195L111.58,100.14649493408203L111.64,96.16324517822265L111.86,81.92169702148436L111.92,77.90537646484376L111.96000000000001,75.28149523925782L112,72.69246655273437L112.58,35.174305786132805L113,148.11185095214844L113.14,138.87805206298827L113.3,128.68541723632814L113.38,123.53170666503905L113.52000000000001,114.46298202514649L113.54,113.15548760986329L113.55999999999999,111.89247961425781L113.76,98.96011798095704L114.28,65.34948852539063L114.38,58.78681408691406L114.7,37.89918115234374L114.92,23.668361450195306L115,18.570786499023427L115.02,17.298212524414055L115.18,146.63969512939454L115.3,138.950626663208L115.36000000000001,135.04181880187988L115.53999999999999,123.32590502929688L115.62,118.09746194458009L115.75999999999999,109.17361761474609L115.78,107.87062915039063L115.89999999999999,100.06353546142577L116.02,92.28785034179688L116.06,89.76677215576173L116.12,85.9063862915039L116.82,40.946464233398444L117.06,25.312699462890635L117.44,140.395659866333L117.9,110.56554904174804L118.3,84.79568432617187L118.78,53.96305102539063L119.10000000000001,33.22174877929689L119.25999999999999,22.947137695312506L119.44,150.60001722717286L119.5,146.66850510406493L119.53999999999999,144.05293571472168L119.56,142.73594729614257L120.44,86.15283654785158L120.56,78.54197308349609L120.62,74.6183355102539L120.76,65.60599365234376L121.02000000000001,48.86239062499999L121.06,46.316449584960935L121.08,45.020615234375015L121.22,36.04139306640624L121.58,151.91247762680052L122.14,115.77649252319335L122.54,90.16369781494141L122.58000000000001,87.56308782958985L122.7,79.88828820800781L123.22000000000001,46.54000341796876L123.32000000000001,40.06151611328124L123.66,18.410690795898432L124.02,134.1032460632324L124.17999999999999,123.81998974609374L124.8,83.99020825195312L125.34,49.34237353515624L125.80000000000001,19.94104101562499L126.38,121.10544357299804L126.6,107.02021850585938L126.92,86.71857104492187L127.2,68.65344512939453L127.22000000000001,67.44677917480469L127.61999999999999,41.87703137207032L128.42,128.87794274902345L128.79999999999998,104.55856781005859L128.86,100.72639099121093L128.96,94.25302075195313L129.7,47.09762231445313L129.84,38.351058227539056L129.92000000000002,33.15585705566406L130.04,25.49228564453125L130.16,17.800423706054687L130.32,145.5426434249878L130.36,143.0090122680664L130.84,112.4394243774414L131,102.18798675537109L131.34,80.40329205322266L131.48,71.51208666992187L131.72,56.20033850097657L131.76,53.65740686035156L131.88,46.093982177734375L132.12,30.850081298828115L132.22,24.49103564453125L132.42000000000002,149.3294171524048L132.62,136.67573391723633L133.18,100.71902502441407L133.22000000000003,98.21037554931641L133.29999999999998,93.1745747680664L133.6,74.15387762451172L134.42000000000002,22.133806762695315L134.48000000000002,18.31754064941407L134.84,132.86498956298828L135.20000000000002,109.91366912841798L135.54000000000002,88.31451965332032L135.6,84.52485467529296L135.7,78.19628869628906L135.8,71.79662158203125L136.16,48.783298828125L136.18,47.518297241210945L136.52,25.971616699218742L136.57999999999998,22.255790649414052L136.72,150.63702292633056L137.26,116.22490933227539L137.3,113.73605996704102L137.44,104.81564331054688L137.8,81.98934332275391L137.98,70.72544921875L138.16,59.36733483886718L138.36,46.71152832031248L138.58,32.619358276367194L138.67999999999998,26.333037963867184L139.06,139.29228584289552L139.16,132.93916256713868L139.2,130.4399242553711L139.28,125.39127377319335L139.45999999999998,113.9542088317871L139.82,90.93703198242187L140.22,65.81713507080079L140.32,59.45971362304688L140.5,48.05447009277344L140.62,40.31752148437499L140.72,33.992785156249994L140.78,30.218465942382807L141.22000000000003,139.2502235107422L141.57999999999998,116.45871359252929L141.66,111.47085949707031L141.76,105.20033581542968L142.07999999999998,85.03310095214844L142.12,82.48649176025391L142.44,62.15868859863281L142.48000000000002,59.59182299804688L142.6,52.03825219726562L142.64,49.52671826171874L142.68,46.96981518554688L142.92000000000002,31.753661621093755L142.96,29.21319616699219L143,26.678054199218735L143.46,134.24343029785155L143.64,122.84750015258788L143.70000000000002,119.0990297241211L144.02,98.88683856201172L144.24,84.98932342529297L144.28,82.49372735595702L144.4,74.94679461669922L144.66,58.413768066406234L144.76000000000002,52.159855834960936L145.02,35.84924780273437L145.8,122.95712051391601L146.26,93.96857818603516L146.34,88.9116083984375L146.36,87.6278822631836L146.5,78.88465893554687L146.84,57.51355566406251L147.06,43.62331958007812L147.28,29.6839444580078L147.42,20.835864746093733L147.54,149.4317978439331L148.01999999999998,119.21409036254883L149.12,50.07313610839843L149.20000000000002,45.024504638671885L149.46,28.73585327148436L149.76,145.6831984024048L149.92000000000002,135.61363456726076L149.94,134.3973523864746L150.01999999999998,129.33972259521485L150.22,116.82460549926758L150.42000000000002,104.18062744140626L150.44,102.86871398925781L150.46,101.62088879394531L150.62,91.68958825683593L151.02,66.3176025390625L151.5,36.28129760742189L151.64,27.474089233398445L151.70000000000002,23.693577392578135L151.9,146.812584854126L152.07999999999998,135.53772192382812L152.14,131.76513827514648L152.33999999999997,119.3158911743164L152.44,112.99709487915038L153.16,67.80986810302734L153.34,56.556881713867185L153.38,54.036938842773424L153.46,49.016663085937495L153.58,41.39062768554689L153.64,37.628031005859356L153.78,28.95792956542968L153.94,154.52562131595613L154,150.82686394882202L154.16,140.7573703918457L154.24,135.7034453125L154.78,102.08454815673828L154.86,97.04698736572266L155.08,83.12617926025389L155.3,69.28178491210937L155.54,54.26803247070312L156.36,138.15820127868653L156.66,119.50737915039062L156.94000000000003,101.97561767578125L157.1,91.96878881835937L157.38,74.37942504882812L157.4,73.1191548461914L157.92000000000002,40.526604125976576L158.20000000000002,23.02723986816406L158.70000000000002,126.72610537719727L159.27999999999997,90.51095751953125L159.34,86.81873406982422L159.46,79.38299157714843L159.82,56.86837084960938L159.85999999999999,54.39660009765626L160.22,31.98342980957031L160.3,26.97625634765626L160.8,130.86613995361327L160.94,122.10051724243164L161.2,105.7986685180664L161.32000000000002,98.28888610839843L161.84,66.04012396240235L162.14,47.31400573730468L162.3,37.3485262451172L162.32000000000002,36.08667529296875L162.76,143.38997290039063L162.84,138.49305807495116L163.12,120.8957633972168L163.36,106.02398236083984L163.38000000000002,104.81140624999999L163.52,96.15995330810547L163.8,78.78936309814453L163.92,71.30686083984375L164.1,59.92913647460938L164.28,48.75828930664062L164.32,46.22986145019533L164.34,44.96516406250001L164.72,21.032290527343747L164.78,152.06489365768434L164.95999999999998,140.78838105773926L165.22,124.67217126464844L165.70000000000002,94.79283856201172L166.01999999999998,74.86686083984375L166.24,61.13303747558592L166.6,38.572819458007814L166.79999999999998,26.25088244628907L166.82,24.96277258300782L166.94,152.08462688446045L167.07999999999998,143.43693501281737L167.16,138.43660874938965L167.18,137.19328814697266L167.20000000000002,135.97181285095215L167.64,108.45356719970702L167.66,107.17965692138672L167.74,102.22149212646484L167.78,99.72675433349609L167.96,88.54881823730469L168.04000000000002,83.56487799072266L168.62,47.466463867187514L168.64,46.19362915039062L168.82,35.13444482421875L168.88,31.409047363281246L169.02,22.635648559570313L169.22,144.6185568161011L169.24,143.3776745605469L169.28,140.90979185485838L169.38,134.74475468444825L169.58,122.18590487670899L169.94,99.65993371582032L170.06,92.28607946777343L170.08,91.04205676269531L170.24,81.19878387451172L170.62,57.48279895019532L170.96,36.36491979980468L171.94,109.91465777587891L172.2,93.76185852050781L172.26,89.96544683837891L172.88,51.652538452148434L172.9,50.401269287109386L173.23999999999998,29.125499877929684L173.44,150.7722225036621L173.5,147.05935832214357L173.54,144.620168800354L173.76,131.12206112670899L173.88,123.69416262817381L174.01999999999998,115.04976873779296L174.38,92.7266088256836L174.4,91.41014868164062L174.48000000000002,86.51366571044923L174.54,82.70535766601563L174.57999999999998,80.21649200439452L174.85999999999999,62.803927734374994L174.94,57.89499975585936L175.16,44.20018994140625L175.22,40.468534667968754L175.62,149.508635307312L175.78,139.60411448669433L175.98000000000002,127.2780775756836L176.22,112.40240713500977L176.68,84.03545788574219L176.78,77.83748028564453L177.12,56.62808605957031L178,136.10869706726075L178.02,134.8872964630127L178.10000000000002,129.99508993530273L178.66,95.17458142089843L179.52,41.871729614257816L179.67999999999998,32.03137377929687L179.84,22.08085437011718L179.86,154.49968043899537L180.45999999999998,117.42092831420898L180.54,112.39986489868164L180.76,98.86499053955079L181,84.06200469970703L181.06,80.27273626708985L181.1,77.79758673095704L181.18,72.92953552246094L181.34,63.02782922363281L182.54,122.4723030090332L182.66,115.13959713745118L182.68,113.86274536132812L183.01999999999998,92.78610693359376L183.16,84.09302215576172L183.62,55.681809204101555L183.70000000000002,50.769752319335936L183.98000000000002,33.50777209472656L184.32,145.96074963378908L184.44,138.65291748046874L184.7,122.66519790649414L185.1,98.0951166381836L185.28,86.87690673828125L185.6,67.19494567871094L185.64,64.71609143066406L185.82000000000002,53.600586791992185L186,42.406805175781244L186.16,32.430787353515626L186.56,141.09567387390138L186.60000000000002,138.56400439453125L186.66,134.8823477935791L186.7,132.39648474121094L186.82000000000002,125.02240505981446L187.06,110.27190173339844L187.08,109.01140881347656L187.22,100.37466607666015L187.28,96.7058768310547L187.38000000000002,90.58809375L187.52,81.94752136230468L187.56,79.5067354736328L188.58,149.68072786712645L188.8,136.06534596252442L188.86,132.39104718017578L188.95999999999998,126.2759530029297L189.28,106.60058111572266L189.36,101.76183081054688L189.38,100.53785809326172L189.42000000000002,98.06430017089843L189.62,85.76081066894531L189.70000000000002,80.81554718017578L189.78,75.92784796142578L189.96,64.86800634765626L189.98,63.629317993164065L190.07999999999998,57.40856347656249L190.16,52.4821005859375L190.18,51.21470886230469L190.48000000000002,32.665270629882826L191.1,127.39517526245118L191.34,112.60141046142579L191.48000000000002,103.9560795288086L191.57999999999998,97.84751477050781L191.85999999999999,80.71418908691408L192.04,69.7045403442383L192.34,51.24836633300781L192.55999999999997,37.7193125L192.7,28.940155639648452L192.72,27.69159167480467L192.9,149.61802344512938L193.66,103.1116279296875L193.72,99.35484362792968L193.76000000000002,96.94216357421875L193.82000000000002,93.28943170166015L193.83999999999997,92.05676214599609L193.92,87.11246014404297L194.56,47.693168334960944L194.84,30.510247314453125L195.5,122.48752383422851L195.58,117.66271508789063L195.94,95.53239575195313L196.04,89.40497064208984L196.34,71.00847943115234L196.4,67.37351062011719L196.45999999999998,63.667071289062505L196.88,37.96661560058595L197.1,24.39064990234374L197.38,139.74020561218262L197.58,127.52444091796875L197.64000000000001,123.76950082397461L197.72,118.84595498657227L198.06,98.02110388183594L198.1,95.53049450683594L198.16,91.77130377197265L198.57999999999998,66.21728198242188L198.62,63.73896008300781L198.72,57.52095422363283L198.94,44.124813720703116L199.1,34.24737817382814L199.18,29.408470336914064L199.51999999999998,140.89305546569824L199.64,133.56480258178712L199.84,121.27572994995117L199.88,118.84882858276367L200,111.5355588684082L200.1,105.4894228515625L200.20000000000002,99.4254232788086L200.26000000000002,95.69993890380859L200.55999999999997,77.3716100463867L200.57999999999998,76.10407165527344L201.12,43.096891967773445L201.28,33.25112573242188L201.48,153.32764770126343L201.7,139.77256887817384L202.11999999999998,114.20113711547852L202.46,93.38111517333985L202.48,92.15157995605469L203.12,52.99755529785155L203.14,51.710727416992185L203.26,44.31306958007812L204.3,113.01575152587891L204.34,110.58949114990234L204.54,98.30619287109374L204.67999999999998,89.66025354003907L205.22,56.517520507812506L205.64000000000001,31.007602172851563L205.84,150.83012797927856L206.16,131.21218014526366L206.20000000000002,128.8313595275879L206.23999999999998,126.36089520263673L206.34,120.25002993774415L206.98000000000002,81.00381933593751L207.07999999999998,74.95232452392578L207.29999999999998,61.57455004882813L207.32,60.33942517089844L207.4,55.378631225585934L208.26000000000002,134.88476373291016L208.32,131.2680115661621L208.72,106.84212615966797L208.84,99.49169525146485L208.85999999999999,98.2911947631836L209.38,66.48545532226562L209.52,58.003718383789064L209.66,49.47175598144531L210.32000000000002,141.1345570526123L210.76,114.13958837890624L210.78,112.92065124511718L210.96,102.05832727050782L211.10000000000002,93.50707537841797L211.16,89.88949481201172L211.3,81.36339367675781L211.36,77.66204425048828L211.74,54.49564953613282L211.8,50.815947143554695L212.02,37.36767993164062L212.24,23.925322875976548L212.44,143.69546632385254L212.48,141.27633290100098L212.5,140.0755594482422L212.56,136.3944990234375L213.04,107.09488854980468L213.14000000000001,101.03449047851562L213.16000000000003,99.81351629638672L213.23999999999998,94.91926593017578L213.62,71.67401300048827L213.82,59.50855932617188L213.98,49.649679931640634L214.22,34.89269335937499L215.01999999999998,117.99025073242188L215.20000000000002,106.94498895263672L215.22,105.70165069580078L215.34,98.49181414794921L215.38,96.09637023925782L215.56,85.14240625L216.26000000000002,42.51317712402343L216.82,139.96241906738283L216.88,136.3195437927246L216.94,132.6471476135254L217.12,121.71148718261719L217.68,87.71545361328124L218.16,58.445926269531256L218.35999999999999,46.210696899414046L219.46,110.59325018310547L219.58,103.29103485107422L219.66,98.45482678222656L219.72,94.82406787109375L219.94,81.50289074707031L220.3,59.61879895019531L220.4,53.56676635742187L221.02,147.12967587280275L221.12,141.07687599182128L221.14000000000001,139.88021601867678L221.18,137.51053398132325L221.42000000000002,122.91846276855469L221.45999999999998,120.50429974365234L221.7,105.9834478149414L221.9,93.94300915527344L222.16,78.06497784423829L222.26,72.04243627929688L222.28,70.77616357421874L222.57999999999998,52.54965454101563L222.70000000000002,45.160253540039065L222.9,32.99426208496092L223.38,135.14366442871093L223.72,114.57568240356446L223.88,104.79092712402344L224.16,87.82568780517578L224.78,50.16014794921874L224.92,41.57092004394531L224.98000000000002,37.94452856445312L225.14,28.193661621093753L225.46,140.03512268066407L225.54000000000002,135.1943950805664L225.64,129.0800315246582L225.68,126.62954656982421L225.72,124.18904315185547L225.78,120.60349584960937L226.48,78.06571661376954L226.6,70.92928985595704L226.61999999999998,69.73136419677735L226.76,61.189314331054675L226.94,50.28420690917967L227.34,25.90337829589842L227.58,142.55318603515624L227.89999999999998,122.94105227661133L227.94,120.5539249572754L227.95999999999998,119.32535122680665L228,116.90424865722656L228.12,109.64287750244141L228.2,104.76208251953125L228.3,98.72677001953126L228.42,91.57191748046876L228.52,85.49817810058593L228.67999999999998,75.86747528076172L229.1,50.35003344726563L229.38,33.1671124267578L229.6,150.96109219360352L229.8,138.77557902526854L229.88,133.90473434448242L229.9,132.67986260986328L230.46,98.67790802001953L230.64000000000001,87.76151263427735L230.79999999999998,78.13228735351564L231.1,60.00681591796875L231.12,58.81299694824219L231.35999999999999,44.37864624023436L231.98000000000002,137.69548303222655L232.16,126.77425305175781L232.29999999999998,118.33997662353515L232.42000000000002,111.02926000976562L232.48000000000002,107.38986944580078L232.5,106.17948248291016L232.6,100.15074829101562L232.78,89.26566912841797L232.94,79.5989458618164L233.07999999999998,71.10600244140625L233.1,69.90917407226563L233.14,67.48179467773437L233.34,55.242208740234375L233.4,51.624313110351565L233.44,49.24098828125L233.94,149.6109379119873L234.04000000000002,143.62052738952636L234.16,136.34700048828125L234.24,131.49113626098634L234.98,86.7483988647461L235.10000000000002,79.44930157470702L235.14,77.05239642333984L235.16,75.8523359375L235.18,74.64085168457031L235.3,67.44307446289062L235.62,47.83165502929688L235.74,40.659854248046884L235.76,39.39976330566407L236,25.012422241210942" style="fill: none;" fill="none"></path></g></g></g></g></g></g><g transform="translate(70, 178)" clip-path="url(#clip_1)"><clipPath id="clip_1"><rect width="260" height="22"></rect></clipPath><g><g><line x1="0" y1="0" x2="0" y2="5" style="visibility: inherit;" fill="rgb(0, 0, 0)" stroke="rgb(204, 204, 204)" stroke-width="1px"></line><line x1="20" y1="0" x2="20" y2="5" style="visibility: inherit;" fill="rgb(0, 0, 0)" stroke="rgb(204, 204, 204)" stroke-width="1px"></line><line x1="40" y1="0" x2="40" y2="5" style="visibility: inherit;" fill="rgb(0, 0, 0)" stroke="rgb(204, 204, 204)" stroke-width="1px"></line><line x1="60" y1="0" x2="60" y2="5" style="visibility: inherit;" fill="rgb(0, 0, 0)" stroke="rgb(204, 204, 204)" stroke-width="1px"></line><line x1="80" y1="0" x2="80" y2="5" style="visibility: inherit;" fill="rgb(0, 0, 0)" stroke="rgb(204, 204, 204)" stroke-width="1px"></line><line x1="100" y1="0" x2="100" y2="5" style="visibility: inherit;" fill="rgb(0, 0, 0)" stroke="rgb(204, 204, 204)" stroke-width="1px"></line><line x1="120" y1="0" x2="120" y2="5" style="visibility: inherit;" fill="rgb(0, 0, 0)" stroke="rgb(204, 204, 204)" stroke-width="1px"></line><line x1="140" y1="0" x2="140" y2="5" style="visibility: inherit;" fill="rgb(0, 0, 0)" stroke="rgb(204, 204, 204)" stroke-width="1px"></line><line x1="160" y1="0" x2="160" y2="5" style="visibility: inherit;" fill="rgb(0, 0, 0)" stroke="rgb(204, 204, 204)" stroke-width="1px"></line><line x1="180" y1="0" x2="180" y2="5" style="visibility: inherit;" fill="rgb(0, 0, 0)" stroke="rgb(204, 204, 204)" stroke-width="1px"></line><line x1="200" y1="0" x2="200" y2="5" style="visibility: inherit;" fill="rgb(0, 0, 0)" stroke="rgb(204, 204, 204)" stroke-width="1px"></line><line x1="220" y1="0" x2="220" y2="5" style="visibility: inherit;" fill="rgb(0, 0, 0)" stroke="rgb(204, 204, 204)" stroke-width="1px"></line><line x1="240" y1="0" x2="240" y2="5" style="visibility: inherit;" fill="rgb(0, 0, 0)" stroke="rgb(204, 204, 204)" stroke-width="1px"></line><line x1="260" y1="0" x2="260" y2="5" style="visibility: inherit;" fill="rgb(0, 0, 0)" stroke="rgb(204, 204, 204)" stroke-width="1px"></line></g><g transform="translate(0, 8)"><text x="0" y="0" dx="0em" dy="0.95em" style="text-anchor: middle; visibility: hidden; font-family: &quot;Helvetica Neue&quot;, sans-serif; font-size: 12px; font-weight: 200;" fill="rgb(50, 49, 63)" stroke="none" stroke-width="1px">-1k</text><text x="20" y="0" dx="0em" dy="0.95em" style="text-anchor: middle; visibility: inherit; font-family: &quot;Helvetica Neue&quot;, sans-serif; font-size: 12px; font-weight: 200;" fill="rgb(50, 49, 63)" stroke="none" stroke-width="1px">0</text><text x="40" y="0" dx="0em" dy="0.95em" style="text-anchor: middle; visibility: hidden; font-family: &quot;Helvetica Neue&quot;, sans-serif; font-size: 12px; font-weight: 200;" fill="rgb(50, 49, 63)" stroke="none" stroke-width="1px">1k</text><text x="60" y="0" dx="0em" dy="0.95em" style="text-anchor: middle; visibility: inherit; font-family: &quot;Helvetica Neue&quot;, sans-serif; font-size: 12px; font-weight: 200;" fill="rgb(50, 49, 63)" stroke="none" stroke-width="1px">2k</text><text x="80" y="0" dx="0em" dy="0.95em" style="text-anchor: middle; visibility: hidden; font-family: &quot;Helvetica Neue&quot;, sans-serif; font-size: 12px; font-weight: 200;" fill="rgb(50, 49, 63)" stroke="none" stroke-width="1px">3k</text><text x="100" y="0" dx="0em" dy="0.95em" style="text-anchor: middle; visibility: inherit; font-family: &quot;Helvetica Neue&quot;, sans-serif; font-size: 12px; font-weight: 200;" fill="rgb(50, 49, 63)" stroke="none" stroke-width="1px">4k</text><text x="120" y="0" dx="0em" dy="0.95em" style="text-anchor: middle; visibility: hidden; font-family: &quot;Helvetica Neue&quot;, sans-serif; font-size: 12px; font-weight: 200;" fill="rgb(50, 49, 63)" stroke="none" stroke-width="1px">5k</text><text x="140" y="0" dx="0em" dy="0.95em" style="text-anchor: middle; visibility: inherit; font-family: &quot;Helvetica Neue&quot;, sans-serif; font-size: 12px; font-weight: 200;" fill="rgb(50, 49, 63)" stroke="none" stroke-width="1px">6k</text><text x="160" y="0" dx="0em" dy="0.95em" style="text-anchor: middle; visibility: hidden; font-family: &quot;Helvetica Neue&quot;, sans-serif; font-size: 12px; font-weight: 200;" fill="rgb(50, 49, 63)" stroke="none" stroke-width="1px">7k</text><text x="180" y="0" dx="0em" dy="0.95em" style="text-anchor: middle; visibility: inherit; font-family: &quot;Helvetica Neue&quot;, sans-serif; font-size: 12px; font-weight: 200;" fill="rgb(50, 49, 63)" stroke="none" stroke-width="1px">8k</text><text x="200" y="0" dx="0em" dy="0.95em" style="text-anchor: middle; visibility: hidden; font-family: &quot;Helvetica Neue&quot;, sans-serif; font-size: 12px; font-weight: 200;" fill="rgb(50, 49, 63)" stroke="none" stroke-width="1px">9k</text><text x="220" y="0" dx="0em" dy="0.95em" style="text-anchor: middle; visibility: inherit; font-family: &quot;Helvetica Neue&quot;, sans-serif; font-size: 12px; font-weight: 200;" fill="rgb(50, 49, 63)" stroke="none" stroke-width="1px">10k</text><text x="240" y="0" dx="0em" dy="0.95em" style="text-anchor: middle; visibility: hidden; font-family: &quot;Helvetica Neue&quot;, sans-serif; font-size: 12px; font-weight: 200;" fill="rgb(50, 49, 63)" stroke="none" stroke-width="1px">11k</text><text x="260" y="0" dx="0em" dy="0.95em" style="text-anchor: middle; visibility: hidden; font-family: &quot;Helvetica Neue&quot;, sans-serif; font-size: 12px; font-weight: 200;" fill="rgb(50, 49, 63)" stroke="none" stroke-width="1px">12k</text></g><line x1="0" y1="0" x2="260" y2="0" fill="rgb(0, 0, 0)" stroke="rgb(204, 204, 204)" stroke-width="1px"></line></g></g></g></g></svg>